<?xml version="1.0" encoding="UTF-8" standalone="no"?>
<svg
   xmlns:dc="http://purl.org/dc/elements/1.1/"
   xmlns:cc="http://creativecommons.org/ns#"
   xmlns:rdf="http://www.w3.org/1999/02/22-rdf-syntax-ns#"
   xmlns:svg="http://www.w3.org/2000/svg"
   xmlns="http://www.w3.org/2000/svg"
   xmlns:xlink="http://www.w3.org/1999/xlink"
   version="1.1"
   id="svg4230"
   width="33.7px"
   height="32.95px">
  <metadata
     id="metadata4311">
    <rdf:RDF>
      <cc:Work
         rdf:about="">
        <dc:format>image/svg+xml</dc:format>
        <dc:type
           rdf:resource="http://purl.org/dc/dcmitype/StillImage" />
        <dc:title></dc:title>
      </cc:Work>
    </rdf:RDF>
  </metadata>
  <path
     id="path4871-5"
     d="m 10.300562,3.18772 12.699219,0 c 4.933333,0 7.433333,2.333333 7.5,7 l 0,0.15039 0,12.25 c 0,4.766667 -2.5,7.150391 -7.5,7.150391 l -12.699219,0 C 5.567229,29.605168 3.199,27.221444 3.199,22.58811 l 0,-12.25 c 0,-4.633333 2.368229,-7.017057 7.101562,-7.15039 z"
     style="fill:url(#linearGradient5627);fill-opacity:1;fill-rule:evenodd;stroke:none" />
  <path
     style="fill:#003866;fill-rule:evenodd;stroke:none"
     d="m 23.8,0 c 6.633333,0 9.933333,3.1666667 9.9,9.5 l 0,13.95 c 0.03333,6.333333 -3.266667,9.5 -9.9,9.5 l -15.2,0 0,7.81e-4 C 2.8333333,32.550781 -0.0333333,29.35 0,23.45 L 0,9.5 C -0.0333333,3.6 2.8333333,0.3992188 8.6,-7.813e-4 L 8.6,0 23.8,0 m 7.9,9.5 C 31.7,4.5 29.066667,2 23.8,2 L 9.6,2 C 4.5333333,2.1 2,4.6 2,9.5 l 0,13.95 c 0,4.9 2.5333333,7.4 7.6,7.5 l 14.2,0 c 5.266667,0 7.9,-2.5 7.9,-7.5 l 0,-13.95"
     id="path4855" />
  <path
     style="fill:url(#linearGradient5546);fill-rule:evenodd;stroke:none"
     d="m 10.751562,4.4007925 c -4.033333,0 -6.384896,1.941797 -6.851562,5.8417965 l 0.002,0.0078 0,2.400392 c 0,4.933333 2.282942,7.40039 6.849609,7.40039 l 3.5,0 0,0.04883 2.25,0 0.5,-0.04883 5.900391,0 0.15039,0 c 4.5,-0.06667 6.75,-2.533724 6.75,-7.40039 l 0,-2.400392 -0.0039,-0.0039 C 29.265154,6.3464955 26.935336,4.4007925 22.902003,4.4007925 l -8.650391,0 z"
     id="path5542" />
  <path
     id="path4871"
     d="m 8.5996094,2 -0.00781,-1e-7 C 4.1917969,2.4 2,4.9333333 2,9.5 l 0,13.949219 c 0,4.566666 2.1996094,7.051172 6.5996094,7.451172 l 0,0.04883 15.2011716,0 c 5.266667,0 7.898438,-2.5 7.898438,-7.5 l 0,-13.949219 c 0,-5 -2.631771,-7.5 -7.898438,-7.5 z m 1.7011716,1.1992188 12.699219,0 c 4.933333,0 7.433333,2.3333333 7.5,7.0000002 l 0,0.15039 0,12.25 C 30.5,27.366276 28,29.75 23,29.75 l -12.699219,0 C 5.5674479,29.616667 3.1992187,27.232943 3.1992188,22.599609 l 0,-12.25 c -1e-7,-4.633333 2.3682291,-7.0170569 7.1015622,-7.1503902 z"
     style="fill:#ffff33;fill-opacity:1;fill-rule:evenodd;stroke:none" />
  <g
     id="use4881"
     transform="matrix(0.6062,0,0,0.6062,16.20094,17.15093)">
    <path
       style="fill:#034e16;fill-rule:evenodd;stroke:none"
       d="m 10.8,-15.3 q 2.75,-2.85 7.7,-5.2 l 0.85,-0.15 0.8,0.4 0.05,0.05 0.45,0.75 q 1.5,6.65 0.55,13 l -0.25,0.6 -0.2,0.3 -0.15,0.15 -0.05,0.05 q -7,5 -12.95,12.25 l 0,0.05 q -5.35,6.1 -9.2,12.75 l -0.7,0.65 0.1,-0.05 -0.95,0.15 -0.1,0 -0.75,-0.5 q -6.95,-7.9 -15.75,-13.6 l 0,-0.05 -0.25,-0.15 -0.35,-0.35 0,0.05 -0.35,-1.1 q 0.05,-0.65 0.55,-1 l 0,-0.05 q 4.2,-3.55 10.15,-6.4 l 1.1,-0.05 0.05,0 q 0.55,0.15 0.85,0.7 l 4.15,7.7 Q -2.1,1.15 0.75,-3.6 L 0.9,-3.8 0.8,-3.7 q 4.4,-6.35 9.95,-11.55 l 0.05,-0.05 m 8.75,8.45 -0.9,-0.8 -0.15,0.15 -0.05,0.1 1.1,0.55"
       id="path6913" />
    <path
       style="fill:#dcbf25;fill-rule:evenodd;stroke:none"
       d="m 19.75,-12.05 0,0.3 -0.05,0.9 0.05,-1.2"
       id="path6915" />
    <path
       style="fill:#18f550;fill-rule:evenodd;stroke:none"
       d="m 7.4,-9.4 q 2.05,-2.6 4.4,-4.8 l 5.15,-4 0,-0.05 0.05,0 0.45,-0.3 0.95,-0.55 0.35,-0.1 q 0.1,0.05 0.35,0.15 l 0.15,0.75 -0.15,-0.25 -0.15,-0.25 -0.2,0 q -0.1,0.1 -0.2,0.1 l -0.05,-0.05 -0.15,0.25 0.1,1.8 q 0.5,4.3 -0.6,8.35 L 13.3,-4.9 Q 9.4,-1.65 6.05,2.05 1.75,6.7 -1.25,12.4 l -2,4.25 q -2.85,-3.55 -6.4,-6.2 -2.05,-1.6 -4.2,-2.7 l -0.75,0.1 -0.1,0.2 9,7.25 q 1.4,1.15 2.3,2.9 l 0.7,-0.05 0.4,-0.5 0.3,-0.55 0.25,-0.65 0.2,-0.6 q 0.8,-0.75 1.35,-1.7 2.35,-3.6 5.05,-6.55 L 7.75,4.25 7.7,3.7 q 2.85,-3.05 6.05,-5.65 l 5.8,-5.3 0,0.05 0.1,0.65 0.05,0.3 -2.7,2.15 -1.05,0.95 -0.9,0.8 -3.2,2.85 0.05,0.1 -0.05,0.05 -0.25,0.2 0,0.05 -0.05,0 -0.2,0.2 0,0.05 -0.05,0 -0.2,0.15 0,0.1 -0.1,0 -0.15,0.15 0,0.1 -0.1,0 -0.2,0.2 0,0.05 -0.05,0 -0.2,0.2 0,0.05 -0.05,0 -0.2,0.2 0,0.05 -0.05,0 -0.2,0.2 0,0.1 -0.1,0 -0.15,0.15 0,0.1 -0.1,0 -0.15,0.15 0,0.1 -0.1,0 -0.15,0.15 0,0.1 -0.1,0 -0.15,0.2 0,0.05 -0.05,0 -0.2,0.2 0,0.05 -0.05,0 -0.2,0.25 0,0.1 0,0.15 -0.15,0 -0.05,0 -0.1,0.1 0,0.05 0,0.1 -0.1,0 -0.15,0.15 0,0.05 0,0.05 -0.05,0 -0.2,0.2 0,0.05 0,0.05 -0.05,0 -0.2,0.2 0,0.05 L 7.2,5.5 7,5.75 6.25,6.7 6.25,6.75 6.2,6.75 6,7 5.75,7.4 1.2,13.1 l -0.55,0.75 0,0.05 -0.05,0 -0.5,0.7 0,0.05 -0.05,0 -0.7,0.95 0,0.1 -0.05,0 -0.2,0.25 -0.25,0.4 0,0.1 -0.05,0 -0.2,0.25 -0.25,0.4 0,0.1 -0.05,0 -0.2,0.3 -1,1.4 -0.1,0.15 -0.25,0 L -3.9,18.3 -5.45,16.6 -6.9,15 q -0.85,-0.9 -1.65,-1.2 l -2.1,-1.95 -2.95,-2.4 q -1.1,-1 -2.7,-2.2 l -1.1,-0.8 -1.3,-0.9 -0.25,-0.45 0,-0.05 0.2,-0.85 0.05,-0.1 0.05,-0.1 0.5,-0.35 2.15,-1.05 1.7,-1.05 -1.25,0.8 -3.3,2.25 0.15,0.5 q 0.4,0.4 1.15,0.45 1.85,-0.9 3.4,-2.4 l 0.95,-0.8 1.2,-0.8 2.7,-1.95 q -0.05,-0.45 -0.85,-0.2 l -2.05,0.95 2,-1.2 0.05,0 0.25,-0.05 0.15,-0.05 0.15,0 0.3,0 0.25,0 0.6,0.8 q 1.1,1.65 2,3.85 l 1.7,3.25 0.7,1.45 0.35,0.75 0.05,0.15 0.05,-0.05 0,-0.05 -0.05,-0.15 q 0,-0.5 1.35,-2.9 1,-0.8 1.65,-2.1 l 1.9,-3.5 1.9,-3.2 Q 4.2,-4.35 5.55,-5.7 L 8,-8.05 10.1,-10 l 2.55,-2.2 2.65,-2.1 2.25,-2.15 0.1,-0.25 -0.65,0 q -0.8,0.15 -1.5,0.55 l -3.75,2.75 -2.35,2.15 -2,1.85 m 11.75,0.15 q 0.15,1.4 -0.75,2.4 L 14.9,-4.2 Q 10.45,-0.65 7,3.9 L 2.35,9.65 0.8,11.3 2.95,8.25 Q 4.9,5.45 7.15,2.9 l 2.1,-2.2 2.05,-2.05 q 2.65,-2.65 5.85,-5 1.4,-1 1.8,-2.75 l 0.2,-0.3 0,0.15 m 0.1,2.95 -0.05,0.05 0.05,0 0,-0.05"
       id="path6917" />
    <path
       style="fill:#07a32f;fill-rule:evenodd;stroke:none"
       d="m 19.55,-7.25 -5.8,5.3 Q 10.55,0.65 7.7,3.7 L 7.75,4.25 4.85,7.6 q -2.7,2.95 -5.05,6.55 -0.55,0.95 -1.35,1.7 l -0.2,0.6 -0.25,0.65 -0.3,0.55 -0.4,0.5 -0.7,0.05 q -0.9,-1.75 -2.3,-2.9 l -9,-7.25 0.1,-0.2 0.75,-0.1 q 2.15,1.1 4.2,2.7 3.55,2.65 6.4,6.2 l 2,-4.25 q 3,-5.7 7.3,-10.35 3.35,-3.7 7.25,-6.95 l 4.55,-3.45 q 1.1,-4.05 0.6,-8.35 l -0.1,-1.8 0.15,-0.25 0.05,0.05 q 0.1,0 0.2,-0.1 l 0.2,0 0.15,0.25 0.15,0.25 q 0.7,2.3 0.6,4.65 l -0.1,1.6 -0.05,1.2 -0.15,3.6 m -0.4,-2 0,-0.15 -0.2,0.3 q -0.4,1.75 -1.8,2.75 -3.2,2.35 -5.85,5 L 9.25,0.7 7.15,2.9 Q 4.9,5.45 2.95,8.25 L 0.8,11.3 2.35,9.65 7,3.9 q 3.45,-4.55 7.9,-8.1 l 3.5,-2.65 q 0.9,-1 0.75,-2.4"
       id="path6919" />
    <path
       style="fill:#c4fdd2;fill-rule:evenodd;stroke:none"
       d="m 7.4,-9.4 2,-1.85 2.35,-2.15 3.75,-2.75 q 0.7,-0.4 1.5,-0.55 l 0.65,0 -0.1,0.25 -2.25,2.15 -2.65,2.1 L 10.1,-10 8,-8.05 5.55,-5.7 q -1.35,1.35 -2.4,3.05 l -1.9,3.2 -1.9,3.5 q -0.65,1.3 -1.65,2.1 l 0.1,-0.8 q 0.2,-1.1 0.75,-2 L 0.35,0.4 2.2,-2.6 3.75,-4.95 5.85,-7.7 7.4,-9.4 m -19.6,9.75 2.05,-0.95 q 0.8,-0.25 0.85,0.2 l -2.7,1.95 -1.2,0.8 -0.95,0.8 q -1.55,1.5 -3.4,2.4 Q -18.3,5.5 -18.7,5.1 l -0.15,-0.5 3.3,-2.25 1.25,-0.8 0.75,-0.5 1.35,-0.7"
       id="path6921" />
    <path
       style="fill:#034e16;fill-rule:evenodd;stroke:none"
       d="m 19.25,-6.85 0.05,-0.05 0.05,-0.15 -0.1,0.2 m -7.8,-7.7 q 2.7,-2.75 7.5,-5.05 l 0.3,-0.05 0.25,0.15 0.15,0.25 q 1.45,6.5 0.55,12.65 L 20.05,-6.35 20,-6.2 19.95,-6.15 Q 12.9,-1.1 6.85,6.3 1.4,12.5 -2.45,19.2 L -2.7,19.4 -3,19.45 -3.25,19.3 Q -10.3,11.3 -19.2,5.5 l -0.15,-0.15 -0.2,-0.15 -0.15,-0.4 0.2,-0.3 q 4.05,-3.5 9.95,-6.3 l 0.35,0 0.3,0.25 5.2,9.65 q 1.85,-5.45 5.3,-11.2 4.35,-6.35 9.85,-11.45 m 0.7,0.7 0,0.05 Q 6.75,-8.75 2.4,-2.55 L 2.45,-2.6 Q -1.3,3.65 -3.1,9.5 l -0.25,0.3 -0.4,0.05 -0.3,-0.25 -5.5,-10.3 q -5.15,2.5 -8.8,5.55 8.55,5.6 15.4,13.25 3.8,-6.45 9.05,-12.45 6.05,-7.4 13.1,-12.5 0.85,-5.65 -0.4,-11.55 -4.2,2.1 -6.65,4.55"
       id="path6923" />
  </g>
  <defs
     id="defs4241">
    <linearGradient
       x2="819.2"
       x1="-819.2"
       spreadMethod="pad"
       id="gradient0"
       gradientUnits="userSpaceOnUse"
       gradientTransform="matrix(0.0, 0.0178, -0.0177, 0.0, 46.25, 14.45)">
      <stop
         id="stop4251"
         stop-color="#004277"
         offset="0.0" />
      <stop
         id="stop4253"
         stop-color="#00b3ff"
         offset="1.0" />
    </linearGradient>
    <linearGradient
       x2="819.2"
       x1="-819.2"
       spreadMethod="pad"
       id="gradient2"
       gradientUnits="userSpaceOnUse"
       gradientTransform="matrix(0.0, -0.0095, 0.0096, 0.0, 44.2, 7.85)">
      <stop
         id="stop4269"
         stop-opacity="0.26666668"
         stop-color="#ffffff"
         offset="0.0" />
      <stop
         id="stop4271"
         stop-opacity="0.0"
         stop-color="#ffffff"
         offset="1.0" />
    </linearGradient>
    <linearGradient
       x2="819.2"
       x1="-819.2"
       spreadMethod="pad"
       gradientTransform="matrix(0,-0.0095,0.0096,0,48.101562,12.250402)"
       gradientUnits="userSpaceOnUse"
       id="linearGradient5546"
       xlink:href="#gradient2" />
    <linearGradient
       y2="3175.988"
       y1="3175.988"
       x2="923.47906"
       x1="-714.92163"
       spreadMethod="pad"
       gradientTransform="matrix(0,0.0178,-0.0177,0,87.495847,14.530281)"
       gradientUnits="userSpaceOnUse"
       id="linearGradient5627"
       xlink:href="#gradient0" />
  </defs>
</svg>
