<?xml version="1.0" encoding="UTF-8" standalone="no"?>
<svg
   xmlns:dc="http://purl.org/dc/elements/1.1/"
   xmlns:cc="http://creativecommons.org/ns#"
   xmlns:rdf="http://www.w3.org/1999/02/22-rdf-syntax-ns#"
   xmlns:svg="http://www.w3.org/2000/svg"
   xmlns="http://www.w3.org/2000/svg"
   xmlns:xlink="http://www.w3.org/1999/xlink"
   version="1.1"
   id="svg4230"
   width="33.7px"
   height="32.95px">
  <metadata
     id="metadata4311">
    <rdf:RDF>
      <cc:Work
         rdf:about="">
        <dc:format>image/svg+xml</dc:format>
        <dc:type
           rdf:resource="http://purl.org/dc/dcmitype/StillImage" />
        <dc:title></dc:title>
      </cc:Work>
    </rdf:RDF>
  </metadata>
  <path
     id="path4871-5"
     d="m 10.300562,3.18772 12.699219,0 c 4.933333,0 7.433333,2.333333 7.5,7 l 0,0.15039 0,12.25 c 0,4.766667 -2.5,7.150391 -7.5,7.150391 l -12.699219,0 C 5.567229,29.605168 3.199,27.221444 3.199,22.58811 l 0,-12.25 c 0,-4.633333 2.368229,-7.017057 7.101562,-7.15039 z"
     style="fill:url(#linearGradient5627);fill-opacity:1;fill-rule:evenodd;stroke:none" />
  <path
     style="fill:#003866;fill-rule:evenodd;stroke:none"
     d="m 23.8,0 c 6.633333,0 9.933333,3.1666667 9.9,9.5 l 0,13.95 c 0.03333,6.333333 -3.266667,9.5 -9.9,9.5 l -15.2,0 0,7.81e-4 C 2.8333333,32.550781 -0.0333333,29.35 0,23.45 L 0,9.5 C -0.0333333,3.6 2.8333333,0.3992188 8.6,-7.813e-4 L 8.6,0 23.8,0 m 7.9,9.5 C 31.7,4.5 29.066667,2 23.8,2 L 9.6,2 C 4.5333333,2.1 2,4.6 2,9.5 l 0,13.95 c 0,4.9 2.5333333,7.4 7.6,7.5 l 14.2,0 c 5.266667,0 7.9,-2.5 7.9,-7.5 l 0,-13.95"
     id="path4855" />
  <path
     style="fill:url(#linearGradient5546);fill-rule:evenodd;stroke:none"
     d="m 10.751562,4.4007925 c -4.033333,0 -6.384896,1.941797 -6.851562,5.8417965 l 0.002,0.0078 0,2.400392 c 0,4.933333 2.282942,7.40039 6.849609,7.40039 l 3.5,0 0,0.04883 2.25,0 0.5,-0.04883 5.900391,0 0.15039,0 c 4.5,-0.06667 6.75,-2.533724 6.75,-7.40039 l 0,-2.400392 -0.0039,-0.0039 C 29.265154,6.3464955 26.935336,4.4007925 22.902003,4.4007925 l -8.650391,0 z"
     id="path5542" />
  <path
     id="path4871"
     d="m 8.5996094,2 -0.00781,-1e-7 C 4.1917969,2.4 2,4.9333333 2,9.5 l 0,13.949219 c 0,4.566666 2.1996094,7.051172 6.5996094,7.451172 l 0,0.04883 15.2011716,0 c 5.266667,0 7.898438,-2.5 7.898438,-7.5 l 0,-13.949219 c 0,-5 -2.631771,-7.5 -7.898438,-7.5 z m 1.7011716,1.1992188 12.699219,0 c 4.933333,0 7.433333,2.3333333 7.5,7.0000002 l 0,0.15039 0,12.25 C 30.5,27.366276 28,29.75 23,29.75 l -12.699219,0 C 5.5674479,29.616667 3.1992187,27.232943 3.1992188,22.599609 l 0,-12.25 c -1e-7,-4.633333 2.3682291,-7.0170569 7.1015622,-7.1503902 z"
     style="fill:#ffff33;fill-opacity:1;fill-rule:evenodd;stroke:none" />
  <defs
     id="defs4241">
    <linearGradient
       x2="819.2"
       x1="-819.2"
       spreadMethod="pad"
       id="gradient0"
       gradientUnits="userSpaceOnUse"
       gradientTransform="matrix(0.0, 0.0178, -0.0177, 0.0, 46.25, 14.45)">
      <stop
         id="stop4251"
         stop-color="#004277"
         offset="0.0" />
      <stop
         id="stop4253"
         stop-color="#00b3ff"
         offset="1.0" />
    </linearGradient>
    <linearGradient
       x2="819.2"
       x1="-819.2"
       spreadMethod="pad"
       id="gradient2"
       gradientUnits="userSpaceOnUse"
       gradientTransform="matrix(0.0, -0.0095, 0.0096, 0.0, 44.2, 7.85)">
      <stop
         id="stop4269"
         stop-opacity="0.26666668"
         stop-color="#ffffff"
         offset="0.0" />
      <stop
         id="stop4271"
         stop-opacity="0.0"
         stop-color="#ffffff"
         offset="1.0" />
    </linearGradient>
    <linearGradient
       x2="819.2"
       x1="-819.2"
       spreadMethod="pad"
       gradientTransform="matrix(0,-0.0095,0.0096,0,48.101562,12.250402)"
       gradientUnits="userSpaceOnUse"
       id="linearGradient5546"
       xlink:href="#gradient2" />
    <linearGradient
       y2="3175.988"
       y1="3175.988"
       x2="923.47906"
       x1="-714.92163"
       spreadMethod="pad"
       gradientTransform="matrix(0,0.0178,-0.0177,0,87.495847,14.530281)"
       gradientUnits="userSpaceOnUse"
       id="linearGradient5627"
       xlink:href="#gradient0" />
  </defs>
</svg>
