<?xml version="1.0" encoding="UTF-8" standalone="no"?>
<svg xmlns:xlink="http://www.w3.org/1999/xlink" height="28.9px" width="28.9px" xmlns="http://www.w3.org/2000/svg">
  <g transform="matrix(1, 0, 0, 1, 1.4, 1.35)">
    <use height="28.9" transform="matrix(1.0, 0.0, 0.0, 1.0, -1.4, -1.35)" width="28.9" xlink:href="#shape0"/>
    <use height="21.0" id="am_IconHolder" transform="matrix(1.0, 0.0, 0.0, 1.0, 2.6, 2.45)" width="21.0" xlink:href="#sprite0"/>
    <use height="41.1" id="am_Check" transform="matrix(0.5518, 0.0, 0.0, 0.5518, 1.7773, 0.1049)" width="42.25" xlink:href="#sprite2"/>
  </g>
  <defs>
    <g id="shape0" transform="matrix(1, 0, 0, 1, 1.4, 1.35)">
      <path d="M26.2 26.05 L0.0 26.05 0.0 0.15 26.2 0.15 26.2 26.05" fill="#000000" fill-rule="evenodd" stroke="none"/>
      <path d="M26.2 26.05 L0.0 26.05 0.0 0.15 26.2 0.15 26.2 26.05" fill="none" stroke="#ffcc33" stroke-linecap="round" stroke-linejoin="round" stroke-width="1.0"/>
      <path d="M27.0 -0.85 L27.0 27.05 -0.9 27.05 -0.9 -0.85 27.0 -0.85" fill="none" stroke="#8f813d" stroke-linecap="round" stroke-linejoin="round" stroke-width="1.0"/>
    </g>
    <g id="sprite0" transform="matrix(1, 0, 0, 1, 0.5, 0.5)">
      <use height="21.0" transform="matrix(1.0, 0.0, 0.0, 1.0, -0.5, -0.5)" width="21.0" xlink:href="#sprite1"/>
    </g>
    <g id="sprite1" transform="matrix(1, 0, 0, 1, 0.5, 0.5)">
      <use height="21.0" transform="matrix(1.0, 0.0, 0.0, 1.0, -0.5, -0.5)" width="21.0" xlink:href="#shape1"/>
    </g>
    <g id="shape1" transform="matrix(1, 0, 0, 1, 0.5, 0.5)">
      <path d="M20.0 10.0 Q20.0 14.15 17.05 17.1 14.15 20.0 10.0 20.0 5.85 20.0 2.9 17.1 0.0 14.15 0.0 10.0 0.0 5.85 2.9 2.9 5.85 0.0 10.0 0.0 14.15 0.0 17.05 2.9 20.0 5.85 20.0 10.0 M9.4 3.5 L9.25 11.5 16.95 11.5 9.25 11.5 9.4 3.5" fill="#00ccff" fill-rule="evenodd" stroke="none"/>
      <path d="M20.0 10.0 Q20.0 14.15 17.05 17.1 14.15 20.0 10.0 20.0 5.85 20.0 2.9 17.1 0.0 14.15 0.0 10.0 0.0 5.85 2.9 2.9 5.85 0.0 10.0 0.0 14.15 0.0 17.05 2.9 20.0 5.85 20.0 10.0" fill="none" stroke="#8f813d" stroke-linecap="round" stroke-linejoin="round" stroke-width="1.0"/>
      <path d="M16.95 11.5 L9.25 11.5 9.4 3.5" fill="none" stroke="#000000" stroke-linecap="round" stroke-linejoin="round" stroke-width="3.0"/>
    </g>
    <g id="sprite2" transform="matrix(1, 0, 0, 1, 20.7, 20.65)">
      <use height="41.1" transform="matrix(1.0, 0.0, 0.0, 1.0, -20.7, -20.65)" width="42.25" xlink:href="#shape2"/>
    </g>
    <g id="shape2" transform="matrix(1, 0, 0, 1, 20.7, 20.65)">
      <path d="M10.8 -15.3 Q13.55 -18.15 18.5 -20.5 L19.35 -20.65 20.15 -20.25 20.2 -20.2 20.65 -19.45 Q22.15 -12.8 21.2 -6.45 L20.95 -5.85 20.75 -5.55 20.6 -5.4 20.55 -5.35 Q13.55 -0.35 7.6 6.9 L7.6 6.95 Q2.25 13.05 -1.6 19.7 L-2.3 20.35 -2.2 20.3 -3.15 20.45 -3.25 20.45 -4.0 19.95 Q-10.95 12.05 -19.75 6.35 L-19.75 6.3 -20.0 6.15 -20.35 5.8 -20.35 5.85 -20.7 4.75 Q-20.65 4.1 -20.15 3.75 L-20.15 3.7 Q-15.95 0.15 -10.0 -2.7 L-8.9 -2.75 -8.85 -2.75 Q-8.3 -2.6 -8.0 -2.05 L-3.85 5.65 Q-2.1 1.15 0.75 -3.6 L0.9 -3.8 0.8 -3.7 Q5.2 -10.05 10.75 -15.25 L10.8 -15.3 M19.55 -6.85 L18.65 -7.65 18.5 -7.5 18.45 -7.4 19.55 -6.85" fill="#034e16" fill-rule="evenodd" stroke="none"/>
      <path d="M19.75 -12.05 L19.75 -11.75 19.7 -10.85 19.75 -12.05" fill="#dcbf25" fill-rule="evenodd" stroke="none"/>
      <path d="M7.4 -9.4 Q9.45 -12.0 11.8 -14.2 L16.95 -18.2 16.95 -18.25 17.0 -18.25 17.45 -18.55 18.4 -19.1 18.75 -19.2 Q18.85 -19.15 19.1 -19.05 L19.25 -18.3 19.1 -18.55 18.95 -18.8 18.75 -18.8 Q18.65 -18.7 18.55 -18.7 L18.5 -18.75 18.35 -18.5 18.45 -16.7 Q18.95 -12.4 17.85 -8.35 L13.3 -4.9 Q9.4 -1.65 6.05 2.05 1.75 6.7 -1.25 12.4 L-3.25 16.65 Q-6.1 13.1 -9.65 10.45 -11.7 8.85 -13.85 7.75 L-14.6 7.85 -14.7 8.05 -5.7 15.3 Q-4.3 16.45 -3.4 18.2 L-2.7 18.15 -2.3 17.65 -2.0 17.1 -1.75 16.45 -1.55 15.85 Q-0.75 15.1 -0.2 14.15 2.15 10.55 4.85 7.6 L7.75 4.25 7.7 3.7 Q10.55 0.65 13.75 -1.95 L19.55 -7.25 19.55 -7.2 19.65 -6.55 19.7 -6.25 17.0 -4.1 15.95 -3.15 15.05 -2.35 11.85 0.5 11.9 0.6 11.85 0.65 11.6 0.85 11.6 0.9 11.55 0.9 11.35 1.1 11.35 1.15 11.3 1.15 11.1 1.3 11.1 1.4 11.0 1.4 10.85 1.55 10.85 1.65 10.75 1.65 10.55 1.85 10.55 1.9 10.5 1.9 10.3 2.1 10.3 2.15 10.25 2.15 10.05 2.35 10.05 2.4 10.0 2.4 9.8 2.6 9.8 2.7 9.7 2.7 9.55 2.85 9.55 2.95 9.45 2.95 9.3 3.1 9.3 3.2 9.2 3.2 9.05 3.35 9.05 3.45 8.95 3.45 8.8 3.65 8.8 3.7 8.75 3.7 8.55 3.9 8.55 3.95 8.5 3.95 8.3 4.2 8.3 4.3 8.3 4.45 8.15 4.45 8.1 4.45 8.0 4.55 8.0 4.6 8.0 4.7 7.9 4.7 7.75 4.85 7.75 4.9 7.75 4.95 7.7 4.95 7.5 5.15 7.5 5.2 7.5 5.25 7.45 5.25 7.25 5.45 7.25 5.5 7.2 5.5 7.0 5.75 6.25 6.7 6.25 6.75 6.2 6.75 6.0 7.0 5.75 7.4 1.2 13.1 0.65 13.85 0.65 13.9 0.6 13.9 0.1 14.6 0.1 14.65 0.05 14.65 -0.65 15.6 -0.65 15.7 -0.7 15.7 -0.9 15.95 -1.15 16.35 -1.15 16.45 -1.2 16.45 -1.4 16.7 -1.65 17.1 -1.65 17.2 -1.7 17.2 -1.9 17.5 -2.9 18.9 -3.0 19.05 -3.25 19.05 -3.9 18.3 -5.45 16.6 -6.9 15.0 Q-7.75 14.1 -8.55 13.8 L-10.65 11.85 -13.6 9.45 Q-14.7 8.45 -16.3 7.25 L-17.4 6.45 -18.7 5.55 -18.95 5.1 -18.95 5.05 -18.75 4.2 -18.7 4.1 -18.65 4.0 -18.15 3.65 -16.0 2.6 -14.3 1.55 -15.55 2.35 -18.85 4.6 -18.7 5.1 Q-18.3 5.5 -17.55 5.55 -15.7 4.65 -14.15 3.15 L-13.2 2.35 -12.0 1.55 -9.3 -0.4 Q-9.35 -0.85 -10.15 -0.6 L-12.2 0.35 -10.2 -0.85 -10.15 -0.85 -9.9 -0.9 -9.75 -0.95 -9.6 -0.95 -9.3 -0.95 -9.05 -0.95 -8.45 -0.15 Q-7.35 1.5 -6.45 3.7 L-4.75 6.95 -4.05 8.4 -3.7 9.15 -3.65 9.3 -3.6 9.25 -3.6 9.2 -3.65 9.05 Q-3.65 8.55 -2.3 6.15 -1.3 5.35 -0.65 4.05 L1.25 0.55 3.15 -2.65 Q4.2 -4.35 5.55 -5.7 L8.0 -8.05 10.1 -10.0 12.65 -12.2 15.3 -14.3 17.55 -16.45 17.65 -16.7 17.0 -16.7 Q16.2 -16.55 15.5 -16.15 L11.75 -13.4 9.4 -11.25 7.4 -9.4 M19.15 -9.25 Q19.3 -7.85 18.4 -6.85 L14.9 -4.2 Q10.45 -0.65 7.0 3.9 L2.35 9.65 0.8 11.3 2.95 8.25 Q4.9 5.45 7.15 2.9 L9.25 0.7 11.3 -1.35 Q13.95 -4.0 17.15 -6.35 18.55 -7.35 18.95 -9.1 L19.15 -9.4 19.15 -9.25 M19.2 -6.25 L19.25 -6.25 19.25 -6.3 19.2 -6.25" fill="#18f550" fill-rule="evenodd" stroke="none"/>
      <path d="M19.55 -7.25 L13.75 -1.95 Q10.55 0.65 7.7 3.7 L7.75 4.25 4.85 7.6 Q2.15 10.55 -0.2 14.15 -0.75 15.1 -1.55 15.85 L-1.75 16.45 -2.0 17.1 -2.3 17.65 -2.7 18.15 -3.4 18.2 Q-4.3 16.45 -5.7 15.3 L-14.7 8.05 -14.6 7.85 -13.85 7.75 Q-11.7 8.85 -9.65 10.45 -6.1 13.1 -3.25 16.65 L-1.25 12.4 Q1.75 6.7 6.05 2.05 9.4 -1.65 13.3 -4.9 L17.85 -8.35 Q18.95 -12.4 18.45 -16.7 L18.35 -18.5 18.5 -18.75 18.55 -18.7 Q18.65 -18.7 18.75 -18.8 L18.95 -18.8 19.1 -18.55 19.25 -18.3 Q19.95 -16.0 19.85 -13.65 L19.75 -12.05 19.7 -10.85 19.55 -7.25 M19.15 -9.25 L19.15 -9.4 18.95 -9.1 Q18.55 -7.35 17.15 -6.35 13.95 -4.0 11.3 -1.35 L9.25 0.7 7.15 2.9 Q4.9 5.45 2.95 8.25 L0.8 11.3 2.35 9.65 7.0 3.9 Q10.45 -0.65 14.9 -4.2 L18.4 -6.85 Q19.3 -7.85 19.15 -9.25" fill="#07a32f" fill-rule="evenodd" stroke="none"/>
      <path d="M7.4 -9.4 L9.4 -11.25 11.75 -13.4 15.5 -16.15 Q16.2 -16.55 17.0 -16.7 L17.65 -16.7 17.55 -16.45 15.3 -14.3 12.65 -12.2 10.1 -10.0 8.0 -8.05 5.55 -5.7 Q4.2 -4.35 3.15 -2.65 L1.25 0.55 -0.65 4.05 Q-1.3 5.35 -2.3 6.15 L-2.2 5.35 Q-2.0 4.25 -1.45 3.35 L0.35 0.4 2.2 -2.6 3.75 -4.95 5.85 -7.7 7.4 -9.4 M-12.2 0.35 L-10.15 -0.6 Q-9.35 -0.85 -9.3 -0.4 L-12.0 1.55 -13.2 2.35 -14.15 3.15 Q-15.7 4.65 -17.55 5.55 -18.3 5.5 -18.7 5.1 L-18.85 4.6 -15.55 2.35 -14.3 1.55 -13.55 1.05 -12.2 0.35" fill="#c4fdd2" fill-rule="evenodd" stroke="none"/>
      <path d="M19.25 -6.85 L19.3 -6.9 19.35 -7.05 19.25 -6.85 M11.45 -14.55 Q14.15 -17.3 18.95 -19.6 L19.25 -19.65 19.5 -19.5 19.65 -19.25 Q21.1 -12.75 20.2 -6.6 L20.05 -6.35 20.0 -6.2 19.95 -6.15 Q12.9 -1.1 6.85 6.3 1.4 12.5 -2.45 19.2 L-2.7 19.4 -3.0 19.45 -3.25 19.3 Q-10.3 11.3 -19.2 5.5 L-19.35 5.35 -19.55 5.2 -19.7 4.8 -19.5 4.5 Q-15.45 1.0 -9.55 -1.8 L-9.2 -1.8 -8.9 -1.55 -3.7 8.1 Q-1.85 2.65 1.6 -3.1 5.95 -9.45 11.45 -14.55 M12.15 -13.85 L12.15 -13.8 Q6.75 -8.75 2.4 -2.55 L2.45 -2.6 Q-1.3 3.65 -3.1 9.5 L-3.35 9.8 -3.75 9.85 -4.05 9.6 -9.55 -0.7 Q-14.7 1.8 -18.35 4.85 -9.8 10.45 -2.95 18.1 0.85 11.65 6.1 5.65 12.15 -1.75 19.2 -6.85 20.05 -12.5 18.8 -18.4 14.6 -16.3 12.15 -13.85" fill="#034e16" fill-rule="evenodd" stroke="none"/>
    </g>
  </defs>
</svg>
