<?xml version="1.0" encoding="UTF-8" standalone="no"?>
<svg xmlns:xlink="http://www.w3.org/1999/xlink" height="33.85px" width="33.0px" xmlns="http://www.w3.org/2000/svg">
  <g transform="matrix(1, 0, 0, 1, 16.55, 16.9)">
    <use height="64.8" transform="matrix(0.2498, -0.134, 0.134, 0.2498, -8.4343, -8.2029)" width="64.8" xlink:href="#sprite0"/>
    <use height="64.8" transform="matrix(0.169, -0.1626, 0.1626, 0.169, -16.5415, 5.9929)" width="64.8" xlink:href="#sprite0"/>
  </g>
  <defs>
    <g id="sprite0" transform="matrix(1, 0, 0, 1, 32.4, 32.4)">
      <use height="64.8" transform="matrix(1.0, 0.0, 0.0, 1.0, -32.4, -32.4)" width="64.8" xlink:href="#shape0"/>
    </g>
    <g id="shape0" transform="matrix(1, 0, 0, 1, 32.4, 32.4)">
      <path d="M19.35 -25.85 Q20.1 -25.8 20.7 -25.25 L25.3 -20.65 Q25.8 -20.1 25.85 -19.35 25.9 -18.55 25.4 -17.95 L19.75 -11.2 Q21.1 -8.8 21.85 -6.15 L30.6 -5.35 Q31.35 -5.3 31.9 -4.7 32.4 -4.1 32.4 -3.35 L32.4 3.15 Q32.4 3.9 31.9 4.5 31.35 5.1 30.6 5.15 L21.85 5.95 Q21.1 8.6 19.75 11.0 L25.4 17.8 Q25.9 18.35 25.85 19.15 L25.3 20.5 20.7 25.1 Q20.1 25.6 19.35 25.65 18.55 25.7 18.0 25.2 L11.2 19.55 Q8.8 20.9 6.2 21.65 L5.35 30.6 Q5.3 31.35 4.7 31.9 4.1 32.4 3.35 32.4 L-3.15 32.4 Q-3.9 32.4 -4.5 31.9 -5.1 31.35 -5.15 30.6 L-5.95 21.65 Q-8.6 20.9 -10.95 19.6 L-17.9 25.35 Q-18.5 25.85 -19.3 25.8 -20.05 25.75 -20.6 25.25 L-25.2 20.65 Q-25.75 20.05 -25.8 19.3 -25.85 18.5 -25.35 17.95 L-19.55 11.0 Q-20.95 8.6 -21.6 6.0 L-30.55 5.15 Q-31.35 5.1 -31.85 4.5 -32.4 3.9 -32.4 3.15 L-32.4 -3.35 Q-32.4 -4.1 -31.85 -4.7 -31.35 -5.3 -30.55 -5.35 L-21.6 -6.15 Q-20.9 -8.8 -19.55 -11.15 L-25.35 -18.1 Q-25.85 -18.7 -25.8 -19.5 -25.75 -20.25 -25.2 -20.8 L-20.6 -25.4 Q-20.05 -25.95 -19.3 -26.0 -18.5 -26.05 -17.9 -25.55 L-10.95 -19.75 Q-8.6 -21.15 -5.95 -21.85 L-5.15 -30.55 Q-5.1 -31.35 -4.5 -31.85 -3.9 -32.4 -3.15 -32.4 L3.35 -32.4 Q4.1 -32.4 4.7 -31.85 5.3 -31.35 5.35 -30.55 L6.15 -21.85 Q8.8 -21.15 11.2 -19.75 L18.0 -25.4 Q18.55 -25.9 19.35 -25.85 M10.55 -10.5 Q6.2 -14.85 0.1 -14.85 -6.05 -14.85 -10.35 -10.5 -14.65 -6.2 -14.65 -0.1 -14.65 6.05 -10.35 10.35 -6.05 14.65 0.1 14.65 6.2 14.65 10.55 10.35 14.85 6.05 14.85 -0.1 14.85 -6.2 10.55 -10.5" fill="#70c9d3" fill-rule="evenodd" stroke="none"/>
    </g>
  </defs>
</svg>
