<?xml version="1.0" encoding="UTF-8" standalone="no"?>
<svg xmlns:xlink="http://www.w3.org/1999/xlink" height="28.9px" width="28.9px" xmlns="http://www.w3.org/2000/svg">
  <g transform="matrix(1, 0, 0, 1, 1.4, 1.35)">
    <use height="28.9" transform="matrix(1.0, 0.0, 0.0, 1.0, -1.4, -1.35)" width="28.9" xlink:href="#shape0"/>
    <use height="21.0" id="am_IconHolder" transform="matrix(1.0, 0.0, 0.0, 1.0, 2.6, 2.45)" width="21.0" xlink:href="#sprite0"/>
  </g>
  <defs>
    <g id="shape0" transform="matrix(1, 0, 0, 1, 1.4, 1.35)">
      <path d="M26.2 26.05 L0.0 26.05 0.0 0.15 26.2 0.15 26.2 26.05" fill="#000000" fill-rule="evenodd" stroke="none"/>
      <path d="M26.2 26.05 L0.0 26.05 0.0 0.15 26.2 0.15 26.2 26.05" fill="none" stroke="#ffcc33" stroke-linecap="round" stroke-linejoin="round" stroke-width="1.0"/>
      <path d="M27.0 -0.85 L27.0 27.05 -0.9 27.05 -0.9 -0.85 27.0 -0.85" fill="none" stroke="#8f813d" stroke-linecap="round" stroke-linejoin="round" stroke-width="1.0"/>
    </g>
    <g id="sprite0" transform="matrix(1, 0, 0, 1, 0.5, 0.5)">
      <use height="21.0" transform="matrix(1.0, 0.0, 0.0, 1.0, -0.5, -0.5)" width="21.0" xlink:href="#sprite1"/>
    </g>
    <g id="sprite1" transform="matrix(1, 0, 0, 1, 0.5, 0.5)">
      <use height="21.0" transform="matrix(1.0, 0.0, 0.0, 1.0, -0.5, -0.5)" width="21.0" xlink:href="#shape1"/>
    </g>
    <g id="shape1" transform="matrix(1, 0, 0, 1, 0.5, 0.5)">
      <path d="M20.0 10.0 Q20.0 14.15 17.05 17.1 14.15 20.0 10.0 20.0 5.85 20.0 2.9 17.1 0.0 14.15 0.0 10.0 0.0 5.85 2.9 2.9 5.85 0.0 10.0 0.0 14.15 0.0 17.05 2.9 20.0 5.85 20.0 10.0 M9.4 3.5 L9.25 11.5 16.95 11.5 9.25 11.5 9.4 3.5" fill="#00ccff" fill-rule="evenodd" stroke="none"/>
      <path d="M20.0 10.0 Q20.0 14.15 17.05 17.1 14.15 20.0 10.0 20.0 5.85 20.0 2.9 17.1 0.0 14.15 0.0 10.0 0.0 5.85 2.9 2.9 5.85 0.0 10.0 0.0 14.15 0.0 17.05 2.9 20.0 5.85 20.0 10.0" fill="none" stroke="#8f813d" stroke-linecap="round" stroke-linejoin="round" stroke-width="1.0"/>
      <path d="M16.95 11.5 L9.25 11.5 9.4 3.5" fill="none" stroke="#000000" stroke-linecap="round" stroke-linejoin="round" stroke-width="3.0"/>
    </g>
  </defs>
</svg>
