<?xml version="1.0" encoding="UTF-8" standalone="no"?>
<svg xmlns:xlink="http://www.w3.org/1999/xlink" height="83.6px" width="72.65px" xmlns="http://www.w3.org/2000/svg">
  <g transform="matrix(1, 0, 0, 1, -0.9, 13.25)">
    <use height="244.35" transform="matrix(0.1128, 0.0, 0.0, 0.1105, 32.7, 10.45)" width="266.0" xlink:href="#sprite0"/>
    <use height="244.35" transform="matrix(0.1128, 0.0, 0.0, 0.1105, 12.95, 18.3)" width="266.0" xlink:href="#sprite1"/>
    <use height="244.35" transform="matrix(0.1128, 0.0, 0.0, 0.1105, 24.3, 32.35)" width="266.0" xlink:href="#sprite2"/>
  </g>
  <defs>
    <g id="sprite0" transform="matrix(1, 0, 0, 1, 0.0, 0.0)">
      <use height="244.35" transform="matrix(1.0, 0.0, 0.0, 1.0, 0.0, 0.0)" width="266.0" xlink:href="#shape0"/>
    </g>
    <g id="shape0" transform="matrix(1, 0, 0, 1, 0.0, 0.0)">
      <path d="M247.95 69.05 Q233.9 50.45 218.0 44.85 211.7 42.6 195.95 40.0 177.4 36.9 161.0 32.35 145.3 27.95 135.25 19.65 126.1 10.55 120.25 6.85 117.4 21.15 98.7 32.5 85.0 40.85 59.5 49.15 32.0 57.4 21.85 61.0 5.0 67.05 5.0 72.35 5.0 87.75 10.0 108.2 12.5 118.45 15.0 127.1 15.0 129.6 14.75 129.35 L14.45 129.85 Q14.15 130.25 13.2 130.35 L15.2 132.75 15.0 131.6 Q26.3 123.05 32.65 120.3 37.9 118.0 41.4 119.2 L47.25 122.7 Q51.25 125.1 56.25 125.1 L61.35 123.95 Q65.5 122.75 67.5 122.6 L102.0 120.35 Q103.9 120.35 111.3 123.65 119.0 127.05 119.5 127.1 L130.5 124.35 137.85 128.5 Q140.8 130.1 141.4 130.1 143.3 130.1 149.5 127.75 155.7 125.35 160.5 125.35 161.95 125.35 166.95 128.75 171.95 132.1 175.25 132.1 176.6 132.1 181.3 130.75 186.0 129.35 189.5 129.35 193.35 129.35 197.1 131.75 L200.75 134.1 Q203.1 134.1 208.9 129.75 214.7 125.35 216.5 125.35 217.4 125.35 224.9 129.5 L233.35 134.5 233.5 134.35 235.2 135.0 Q235.7 135.3 235.9 136.05 245.6 130.65 252.35 120.35 260.75 107.6 260.75 96.2 260.75 91.6 257.3 84.2 253.75 76.7 247.95 69.05 M266.0 95.85 Q266.0 97.7 263.95 104.35 261.25 113.15 257.3 120.6 248.2 137.65 235.75 141.95 235.0 149.4 232.2 160.9 227.9 178.45 227.25 185.85 226.65 193.35 226.8 209.75 226.05 224.5 220.55 234.3 224.25 235.3 226.0 237.35 224.45 239.75 221.55 239.5 L210.15 238.6 136.95 239.55 137.0 243.1 136.5 243.75 Q136.0 244.35 134.5 244.35 133.45 244.35 132.6 242.45 L132.55 242.4 132.0 241.6 132.1 241.15 131.6 239.6 126.75 239.6 92.05 241.5 55.5 243.35 55.0 243.35 54.5 243.35 Q50.75 243.35 44.75 221.25 L36.5 188.1 Q34.15 179.6 22.1 156.3 11.0 134.8 11.0 132.6 11.0 130.65 11.5 130.05 7.15 127.25 3.3 101.35 L0.0 72.1 Q0.0 63.65 41.4 48.5 L73.4 37.35 Q90.5 31.4 95.5 28.85 104.8 24.05 110.7 17.45 117.05 10.3 115.0 5.6 114.65 -4.4 124.35 3.5 L132.4 10.75 Q137.1 15.05 139.0 15.85 147.6 24.1 161.8 28.7 171.1 31.7 188.55 34.4 207.7 37.4 214.55 39.25 227.9 42.8 235.0 49.35 L248.85 61.6 Q256.45 68.65 257.75 72.6 266.0 95.1 266.0 95.85 M209.55 135.25 Q203.4 139.35 201.5 139.35 199.55 139.35 195.7 137.0 L192.25 134.6 185.75 134.6 175.5 137.35 Q172.85 136.85 167.0 133.75 161.55 130.85 160.75 130.85 159.1 130.85 150.65 133.1 142.2 135.35 140.5 135.35 139.35 135.35 135.85 133.15 131.25 130.2 130.0 129.6 L118.5 132.35 Q114.0 129.95 110.8 128.45 104.7 125.6 98.25 125.6 63.15 128.95 55.5 130.35 L40.0 124.6 Q33.4 126.55 26.3 130.8 20.3 134.35 19.0 134.35 L16.45 134.0 15.75 133.55 18.2 137.6 Q24.6 148.85 34.0 171.15 43.3 193.15 49.8 212.45 56.15 231.15 56.9 238.8 61.55 237.65 71.55 236.9 67.7 226.1 59.95 195.25 51.0 159.65 51.0 152.6 51.0 146.5 54.0 153.15 L54.05 152.4 54.5 151.85 Q67.45 163.0 83.45 196.65 L86.8 203.85 85.95 198.35 80.0 158.2 Q80.0 151.6 81.1 154.05 82.95 154.6 85.3 157.2 L85.4 157.3 85.7 157.0 87.5 156.35 Q91.15 164.9 98.85 192.05 105.25 214.55 113.0 228.1 L113.0 230.15 114.5 213.85 Q116.0 198.75 116.0 188.2 116.0 184.45 112.0 161.95 112.0 158.65 113.4 160.1 114.15 160.8 115.0 162.55 L115.5 162.35 Q125.5 184.1 130.6 201.7 133.55 211.9 135.15 221.6 L135.5 219.25 Q139.0 195.9 139.0 174.1 138.9 170.5 139.4 166.55 140.35 158.7 143.5 156.35 L145.2 157.0 Q146.0 157.5 146.0 159.1 L146.0 159.15 146.6 160.2 Q149.9 166.3 154.5 179.1 160.45 195.65 163.35 207.2 L164.1 201.1 Q167.55 177.05 175.15 166.65 L175.0 165.2 Q175.0 161.4 176.85 164.5 L178.5 162.85 178.75 163.3 179.0 165.1 178.55 167.85 Q181.15 173.6 184.5 184.3 189.95 201.6 192.3 214.05 194.4 203.6 194.5 201.6 193.65 191.5 193.8 186.2 193.95 180.65 196.2 177.75 L196.0 177.1 Q196.0 175.45 196.7 175.0 L198.5 174.35 199.2 175.35 200.5 174.85 200.75 175.3 201.0 177.1 201.0 177.95 Q208.65 189.65 212.0 204.25 213.05 208.85 214.8 219.6 216.2 228.05 217.45 233.75 L220.45 234.3 218.5 232.35 218.0 231.6 Q218.0 212.55 222.7 177.8 225.9 154.15 229.15 143.3 L227.0 143.35 224.95 143.0 224.25 142.1 224.0 140.6 Q227.55 139.75 230.85 138.45 L230.95 138.3 Q229.1 137.8 224.15 134.75 218.35 131.1 216.65 131.1 215.7 131.1 209.55 135.25 M175.8 178.95 Q172.3 192.45 171.5 201.1 L170.2 219.05 Q169.55 227.75 168.5 234.2 L190.95 233.8 189.55 232.4 189.0 231.6 189.45 228.45 Q185.95 217.45 181.0 195.45 L176.7 175.5 175.8 178.95 M66.25 188.85 Q67.65 192.45 71.15 209.2 75.0 227.6 75.0 233.85 L74.9 236.65 83.9 236.2 91.75 235.9 89.95 224.55 Q81.15 208.1 55.7 157.25 L56.85 160.35 Q60.05 169.3 66.25 188.85 M82.55 159.1 Q84.35 166.95 87.5 185.65 L92.7 217.7 93.25 219.15 Q97.0 228.55 97.0 229.45 97.0 231.95 96.75 231.35 L96.45 231.85 Q96.05 232.3 94.7 232.35 L95.0 235.75 110.45 235.15 Q106.9 227.15 97.4 200.85 85.7 168.5 85.05 160.05 L84.4 159.25 83.15 159.45 82.55 159.1 M81.8 156.05 L81.95 156.65 82.5 156.9 81.8 156.05 M145.0 190.2 Q145.0 195.6 141.8 214.95 139.85 226.85 137.95 234.35 L164.05 234.2 163.4 233.05 162.0 230.1 162.1 225.75 Q148.8 182.9 144.8 167.35 144.0 172.25 144.0 174.85 144.0 177.8 144.5 183.55 L145.0 190.2 M129.7 228.2 Q127.5 207.85 126.5 204.85 L121.0 189.25 Q120.95 201.95 120.4 207.95 L117.25 232.6 115.5 233.35 Q113.0 231.0 113.0 230.25 L113.0 235.05 130.55 234.4 129.7 228.2 M112.0 235.1 L111.85 234.7 111.0 235.15 112.0 235.1 M193.15 233.65 L193.05 233.75 213.4 233.4 Q209.8 223.15 200.4 191.9 L198.9 207.3 Q196.75 225.1 194.0 231.9 L193.95 232.05 193.75 233.35 193.15 233.65" fill="#000000" fill-rule="evenodd" stroke="none"/>
      <path d="M247.95 69.05 Q253.75 76.7 257.3 84.2 260.75 91.6 260.75 96.2 260.75 107.6 252.35 120.35 245.6 130.65 235.9 136.05 235.7 135.3 235.2 135.0 L233.5 134.35 233.35 134.5 224.9 129.5 Q217.4 125.35 216.5 125.35 214.7 125.35 208.9 129.75 203.1 134.1 200.75 134.1 L197.1 131.75 Q193.35 129.35 189.5 129.35 186.0 129.35 181.3 130.75 176.6 132.1 175.25 132.1 171.95 132.1 166.95 128.75 161.95 125.35 160.5 125.35 155.7 125.35 149.5 127.75 143.3 130.1 141.4 130.1 140.8 130.1 137.85 128.5 L130.5 124.35 119.5 127.1 Q119.0 127.05 111.3 123.65 103.9 120.35 102.0 120.35 L67.5 122.6 Q65.5 122.75 61.35 123.95 L56.25 125.1 Q51.25 125.1 47.25 122.7 L41.4 119.2 Q37.9 118.0 32.65 120.3 26.3 123.05 15.0 131.6 L15.2 132.75 13.2 130.35 Q14.15 130.25 14.45 129.85 L14.75 129.35 Q15.0 129.6 15.0 127.1 12.5 118.45 10.0 108.2 5.0 87.75 5.0 72.35 5.0 67.05 21.85 61.0 32.0 57.4 59.5 49.15 85.0 40.85 98.7 32.5 117.4 21.15 120.25 6.85 126.1 10.55 135.25 19.65 145.3 27.95 161.0 32.35 177.4 36.9 195.95 40.0 211.7 42.6 218.0 44.85 233.9 50.45 247.95 69.05" fill="#ff9933" fill-rule="evenodd" stroke="none"/>
      <path d="M209.55 135.25 Q215.7 131.1 216.65 131.1 218.35 131.1 224.15 134.75 229.1 137.8 230.95 138.3 L230.85 138.45 Q227.55 139.75 224.0 140.6 L224.25 142.1 224.95 143.0 227.0 143.35 229.15 143.3 Q225.9 154.15 222.7 177.8 218.0 212.55 218.0 231.6 L218.5 232.35 220.45 234.3 217.45 233.75 Q216.2 228.05 214.8 219.6 213.05 208.85 212.0 204.25 208.65 189.65 201.0 177.95 L201.0 177.1 200.75 175.3 200.5 174.85 199.2 175.35 198.5 174.35 196.7 175.0 Q196.0 175.45 196.0 177.1 L196.2 177.75 Q193.95 180.65 193.8 186.2 193.65 191.5 194.5 201.6 194.4 203.6 192.3 214.05 189.95 201.6 184.5 184.3 181.15 173.6 178.55 167.85 L179.0 165.1 178.75 163.3 178.5 162.85 176.85 164.5 Q175.0 161.4 175.0 165.2 L175.15 166.65 Q167.55 177.05 164.1 201.1 L163.35 207.2 Q160.45 195.65 154.5 179.1 149.9 166.3 146.6 160.2 L146.0 159.15 146.0 159.1 Q146.0 157.5 145.2 157.0 L143.5 156.35 Q140.35 158.7 139.4 166.55 138.9 170.5 139.0 174.1 139.0 195.9 135.5 219.25 L135.15 221.6 Q133.55 211.9 130.6 201.7 125.5 184.1 115.5 162.35 L115.0 162.55 Q114.15 160.8 113.4 160.1 112.0 158.65 112.0 161.95 116.0 184.45 116.0 188.2 116.0 198.75 114.5 213.85 L113.0 230.15 113.0 228.1 Q105.25 214.55 98.85 192.05 91.15 164.9 87.5 156.35 L85.7 157.0 85.4 157.3 85.3 157.2 Q82.95 154.6 81.1 154.05 80.0 151.6 80.0 158.2 L85.95 198.35 86.8 203.85 83.45 196.65 Q67.45 163.0 54.5 151.85 L54.05 152.4 54.0 153.15 Q51.0 146.5 51.0 152.6 51.0 159.65 59.95 195.25 67.7 226.1 71.55 236.9 61.55 237.65 56.9 238.8 56.15 231.15 49.8 212.45 43.3 193.15 34.0 171.15 24.6 148.85 18.2 137.6 L15.75 133.55 16.45 134.0 19.0 134.35 Q20.3 134.35 26.3 130.8 33.4 126.55 40.0 124.6 L55.5 130.35 Q63.15 128.95 98.25 125.6 104.7 125.6 110.8 128.45 114.0 129.95 118.5 132.35 L130.0 129.6 Q131.25 130.2 135.85 133.15 139.35 135.35 140.5 135.35 142.2 135.35 150.65 133.1 159.1 130.85 160.75 130.85 161.55 130.85 167.0 133.75 172.85 136.85 175.5 137.35 L185.75 134.6 192.25 134.6 195.7 137.0 Q199.55 139.35 201.5 139.35 203.4 139.35 209.55 135.25" fill="#ff3399" fill-rule="evenodd" stroke="none"/>
      <path d="M82.55 159.1 L83.15 159.45 84.4 159.25 85.05 160.05 Q85.7 168.5 97.4 200.85 106.9 227.15 110.45 235.15 L95.0 235.75 94.7 232.35 Q96.05 232.3 96.45 231.85 L96.75 231.35 Q97.0 231.95 97.0 229.45 97.0 228.55 93.25 219.15 L92.7 217.7 87.5 185.65 Q84.35 166.95 82.55 159.1 M66.25 188.85 Q60.05 169.3 56.85 160.35 L55.7 157.25 Q81.15 208.1 89.95 224.55 L91.75 235.9 83.9 236.2 74.9 236.65 75.0 233.85 Q75.0 227.6 71.15 209.2 67.65 192.45 66.25 188.85 M175.8 178.95 L176.7 175.5 181.0 195.45 Q185.95 217.45 189.45 228.45 L189.0 231.6 189.55 232.4 190.95 233.8 168.5 234.2 Q169.55 227.75 170.2 219.05 L171.5 201.1 Q172.3 192.45 175.8 178.95 M129.7 228.2 L130.55 234.4 113.0 235.05 113.0 230.25 Q113.0 231.0 115.5 233.35 L117.25 232.6 120.4 207.95 Q120.95 201.95 121.0 189.25 L126.5 204.85 Q127.5 207.85 129.7 228.2 M145.0 190.2 L144.5 183.55 Q144.0 177.8 144.0 174.85 144.0 172.25 144.8 167.35 148.8 182.9 162.1 225.75 L162.0 230.1 163.4 233.05 164.05 234.2 137.95 234.35 Q139.85 226.85 141.8 214.95 145.0 195.6 145.0 190.2 M193.15 233.65 L193.75 233.35 193.95 232.05 194.0 231.9 Q196.75 225.1 198.9 207.3 L200.4 191.9 Q209.8 223.15 213.4 233.4 L193.05 233.75 193.15 233.65" fill="#ff00ff" fill-rule="evenodd" stroke="none"/>
      <path d="M81.8 156.05 L82.5 156.9 81.95 156.65 81.8 156.05 M112.0 235.1 L111.0 235.15 111.85 234.7 112.0 235.1" fill="#ff0000" fill-rule="evenodd" stroke="none"/>
    </g>
    <g id="sprite1" transform="matrix(1, 0, 0, 1, 0.0, 0.0)">
      <use height="244.35" transform="matrix(1.0, 0.0, 0.0, 1.0, 0.0, 0.0)" width="266.0" xlink:href="#shape1"/>
    </g>
    <g id="shape1" transform="matrix(1, 0, 0, 1, 0.0, 0.0)">
      <path d="M247.95 69.05 Q233.9 50.45 218.0 44.85 211.7 42.6 195.95 40.0 177.4 36.9 161.0 32.35 145.3 27.95 135.25 19.65 126.1 10.55 120.25 6.85 117.4 21.15 98.7 32.5 85.0 40.85 59.5 49.15 32.0 57.4 21.85 61.0 5.0 67.05 5.0 72.35 5.0 87.75 10.0 108.2 12.5 118.45 15.0 127.1 15.0 129.6 14.75 129.35 L14.45 129.85 Q14.15 130.25 13.2 130.35 L15.2 132.75 15.0 131.6 Q26.3 123.05 32.65 120.3 37.9 118.0 41.4 119.2 L47.25 122.7 Q51.25 125.1 56.25 125.1 L61.35 123.95 Q65.5 122.75 67.5 122.6 L102.0 120.35 Q103.9 120.35 111.3 123.65 119.0 127.05 119.5 127.1 L130.5 124.35 137.85 128.5 Q140.8 130.1 141.4 130.1 143.3 130.1 149.5 127.75 155.7 125.35 160.5 125.35 161.95 125.35 166.95 128.75 171.95 132.1 175.25 132.1 176.6 132.1 181.3 130.75 186.0 129.35 189.5 129.35 193.35 129.35 197.1 131.75 L200.75 134.1 Q203.1 134.1 208.9 129.75 214.7 125.35 216.5 125.35 217.4 125.35 224.9 129.5 L233.35 134.5 233.5 134.35 235.2 135.0 Q235.7 135.3 235.9 136.05 245.6 130.65 252.35 120.35 260.75 107.6 260.75 96.2 260.75 91.6 257.3 84.2 253.75 76.7 247.95 69.05 M257.75 72.6 Q266.0 95.1 266.0 95.85 266.0 97.7 263.95 104.35 261.25 113.15 257.3 120.6 248.2 137.65 235.75 141.95 235.0 149.4 232.2 160.9 227.9 178.45 227.25 185.85 226.65 193.35 226.8 209.75 226.05 224.5 220.55 234.3 224.25 235.3 226.0 237.35 224.45 239.75 221.55 239.5 L210.15 238.6 136.95 239.55 137.0 243.1 136.5 243.75 Q136.0 244.35 134.5 244.35 133.45 244.35 132.6 242.45 L132.55 242.4 132.0 241.6 132.1 241.15 131.6 239.6 126.75 239.6 92.05 241.5 55.5 243.35 55.0 243.35 54.5 243.35 Q50.75 243.35 44.75 221.25 L36.5 188.1 Q34.15 179.6 22.1 156.3 11.0 134.8 11.0 132.6 11.0 130.65 11.5 130.05 7.15 127.25 3.3 101.35 L0.0 72.1 Q0.0 63.65 41.4 48.5 L73.4 37.35 Q90.5 31.4 95.5 28.85 104.8 24.05 110.7 17.45 117.05 10.3 115.0 5.6 114.65 -4.4 124.35 3.5 L132.4 10.75 Q137.1 15.05 139.0 15.85 147.6 24.1 161.8 28.7 171.1 31.7 188.55 34.4 207.7 37.4 214.55 39.25 227.9 42.8 235.0 49.35 L248.85 61.6 Q256.45 68.65 257.75 72.6 M209.55 135.25 Q203.4 139.35 201.5 139.35 199.55 139.35 195.7 137.0 L192.25 134.6 185.75 134.6 175.5 137.35 Q172.85 136.85 167.0 133.75 161.55 130.85 160.75 130.85 159.1 130.85 150.65 133.1 142.2 135.35 140.5 135.35 139.35 135.35 135.85 133.15 131.25 130.2 130.0 129.6 L118.5 132.35 Q114.0 129.95 110.8 128.45 104.7 125.6 98.25 125.6 63.15 128.95 55.5 130.35 L40.0 124.6 Q33.4 126.55 26.3 130.8 20.3 134.35 19.0 134.35 L16.45 134.0 15.75 133.55 18.2 137.6 Q24.6 148.85 34.0 171.15 43.3 193.15 49.8 212.45 56.15 231.15 56.9 238.8 61.55 237.65 71.55 236.9 67.7 226.1 59.95 195.25 51.0 159.65 51.0 152.6 51.0 146.5 54.0 153.15 L54.05 152.4 54.5 151.85 Q67.45 163.0 83.45 196.65 L86.8 203.85 85.95 198.35 80.0 158.2 Q80.0 151.6 81.1 154.05 82.95 154.6 85.3 157.2 L85.4 157.3 85.7 157.0 87.5 156.35 Q91.15 164.9 98.85 192.05 105.25 214.55 113.0 228.1 L113.0 230.15 114.5 213.85 Q116.0 198.75 116.0 188.2 116.0 184.45 112.0 161.95 112.0 158.65 113.4 160.1 114.15 160.8 115.0 162.55 L115.5 162.35 Q125.5 184.1 130.6 201.7 133.55 211.9 135.15 221.6 L135.5 219.25 Q139.0 195.9 139.0 174.1 138.9 170.5 139.4 166.55 140.35 158.7 143.5 156.35 L145.2 157.0 Q146.0 157.5 146.0 159.1 L146.0 159.15 146.6 160.2 Q149.9 166.3 154.5 179.1 160.45 195.65 163.35 207.2 L164.1 201.1 Q167.55 177.05 175.15 166.65 L175.0 165.2 Q175.0 161.4 176.85 164.5 L178.5 162.85 178.75 163.3 179.0 165.1 178.55 167.85 Q181.15 173.6 184.5 184.3 189.95 201.6 192.3 214.05 194.4 203.6 194.5 201.6 193.65 191.5 193.8 186.2 193.95 180.65 196.2 177.75 L196.0 177.1 Q196.0 175.45 196.7 175.0 L198.5 174.35 199.2 175.35 200.5 174.85 200.75 175.3 201.0 177.1 201.0 177.95 Q208.65 189.65 212.0 204.25 213.05 208.85 214.8 219.6 216.2 228.05 217.45 233.75 L220.45 234.3 218.5 232.35 218.0 231.6 Q218.0 212.55 222.7 177.8 225.9 154.15 229.15 143.3 L227.0 143.35 224.95 143.0 224.25 142.1 224.0 140.6 Q227.55 139.75 230.85 138.45 L230.95 138.3 Q229.1 137.8 224.15 134.75 218.35 131.1 216.65 131.1 215.7 131.1 209.55 135.25 M175.8 178.95 Q172.3 192.45 171.5 201.1 L170.2 219.05 Q169.55 227.75 168.5 234.2 L190.95 233.8 189.55 232.4 189.0 231.6 189.45 228.45 Q185.95 217.45 181.0 195.45 L176.7 175.5 175.8 178.95 M56.85 160.35 Q60.05 169.3 66.25 188.85 67.65 192.45 71.15 209.2 75.0 227.6 75.0 233.85 L74.9 236.65 83.9 236.2 91.75 235.9 89.95 224.55 Q81.15 208.1 55.7 157.25 L56.85 160.35 M81.8 156.05 L81.95 156.65 82.5 156.9 81.8 156.05 M82.55 159.1 Q84.35 166.95 87.5 185.65 L92.7 217.7 93.25 219.15 Q97.0 228.55 97.0 229.45 97.0 231.95 96.75 231.35 L96.45 231.85 Q96.05 232.3 94.7 232.35 L95.0 235.75 110.45 235.15 Q106.9 227.15 97.4 200.85 85.7 168.5 85.05 160.05 L84.4 159.25 83.15 159.45 82.55 159.1 M145.0 190.2 Q145.0 195.6 141.8 214.95 139.85 226.85 137.95 234.35 L164.05 234.2 163.4 233.05 162.0 230.1 162.1 225.75 Q148.8 182.9 144.8 167.35 144.0 172.25 144.0 174.85 144.0 177.8 144.5 183.55 L145.0 190.2 M129.7 228.2 Q127.5 207.85 126.5 204.85 L121.0 189.25 Q120.95 201.95 120.4 207.95 L117.25 232.6 115.5 233.35 Q113.0 231.0 113.0 230.25 L113.0 235.05 130.55 234.4 129.7 228.2 M111.85 234.7 L111.0 235.15 112.0 235.1 111.85 234.7 M193.05 233.75 L213.4 233.4 Q209.8 223.15 200.4 191.9 L198.9 207.3 Q196.75 225.1 194.0 231.9 L193.95 232.05 193.75 233.35 193.15 233.65 193.05 233.75" fill="#000000" fill-rule="evenodd" stroke="none"/>
      <path d="M247.95 69.05 Q253.75 76.7 257.3 84.2 260.75 91.6 260.75 96.2 260.75 107.6 252.35 120.35 245.6 130.65 235.9 136.05 235.7 135.3 235.2 135.0 L233.5 134.35 233.35 134.5 224.9 129.5 Q217.4 125.35 216.5 125.35 214.7 125.35 208.9 129.75 203.1 134.1 200.75 134.1 L197.1 131.75 Q193.35 129.35 189.5 129.35 186.0 129.35 181.3 130.75 176.6 132.1 175.25 132.1 171.95 132.1 166.95 128.75 161.95 125.35 160.5 125.35 155.7 125.35 149.5 127.75 143.3 130.1 141.4 130.1 140.8 130.1 137.85 128.5 L130.5 124.35 119.5 127.1 Q119.0 127.05 111.3 123.65 103.9 120.35 102.0 120.35 L67.5 122.6 Q65.5 122.75 61.35 123.95 L56.25 125.1 Q51.25 125.1 47.25 122.7 L41.4 119.2 Q37.9 118.0 32.65 120.3 26.3 123.05 15.0 131.6 L15.2 132.75 13.2 130.35 Q14.15 130.25 14.45 129.85 L14.75 129.35 Q15.0 129.6 15.0 127.1 12.5 118.45 10.0 108.2 5.0 87.75 5.0 72.35 5.0 67.05 21.85 61.0 32.0 57.4 59.5 49.15 85.0 40.85 98.7 32.5 117.4 21.15 120.25 6.85 126.1 10.55 135.25 19.65 145.3 27.95 161.0 32.35 177.4 36.9 195.95 40.0 211.7 42.6 218.0 44.85 233.9 50.45 247.95 69.05" fill="#ffff00" fill-rule="evenodd" stroke="none"/>
      <path d="M209.55 135.25 Q215.7 131.1 216.65 131.1 218.35 131.1 224.15 134.75 229.1 137.8 230.95 138.3 L230.85 138.45 Q227.55 139.75 224.0 140.6 L224.25 142.1 224.95 143.0 227.0 143.35 229.15 143.3 Q225.9 154.15 222.7 177.8 218.0 212.55 218.0 231.6 L218.5 232.35 220.45 234.3 217.45 233.75 Q216.2 228.05 214.8 219.6 213.05 208.85 212.0 204.25 208.65 189.65 201.0 177.95 L201.0 177.1 200.75 175.3 200.5 174.85 199.2 175.35 198.5 174.35 196.7 175.0 Q196.0 175.45 196.0 177.1 L196.2 177.75 Q193.95 180.65 193.8 186.2 193.65 191.5 194.5 201.6 194.4 203.6 192.3 214.05 189.95 201.6 184.5 184.3 181.15 173.6 178.55 167.85 L179.0 165.1 178.75 163.3 178.5 162.85 176.85 164.5 Q175.0 161.4 175.0 165.2 L175.15 166.65 Q167.55 177.05 164.1 201.1 L163.35 207.2 Q160.45 195.65 154.5 179.1 149.9 166.3 146.6 160.2 L146.0 159.15 146.0 159.1 Q146.0 157.5 145.2 157.0 L143.5 156.35 Q140.35 158.7 139.4 166.55 138.9 170.5 139.0 174.1 139.0 195.9 135.5 219.25 L135.15 221.6 Q133.55 211.9 130.6 201.7 125.5 184.1 115.5 162.35 L115.0 162.55 Q114.15 160.8 113.4 160.1 112.0 158.65 112.0 161.95 116.0 184.45 116.0 188.2 116.0 198.75 114.5 213.85 L113.0 230.15 113.0 228.1 Q105.25 214.55 98.85 192.05 91.15 164.9 87.5 156.35 L85.7 157.0 85.4 157.3 85.3 157.2 Q82.95 154.6 81.1 154.05 80.0 151.6 80.0 158.2 L85.95 198.35 86.8 203.85 83.45 196.65 Q67.45 163.0 54.5 151.85 L54.05 152.4 54.0 153.15 Q51.0 146.5 51.0 152.6 51.0 159.65 59.95 195.25 67.7 226.1 71.55 236.9 61.55 237.65 56.9 238.8 56.15 231.15 49.8 212.45 43.3 193.15 34.0 171.15 24.6 148.85 18.2 137.6 L15.75 133.55 16.45 134.0 19.0 134.35 Q20.3 134.35 26.3 130.8 33.4 126.55 40.0 124.6 L55.5 130.35 Q63.15 128.95 98.25 125.6 104.7 125.6 110.8 128.45 114.0 129.95 118.5 132.35 L130.0 129.6 Q131.25 130.2 135.85 133.15 139.35 135.35 140.5 135.35 142.2 135.35 150.65 133.1 159.1 130.85 160.75 130.85 161.55 130.85 167.0 133.75 172.85 136.85 175.5 137.35 L185.75 134.6 192.25 134.6 195.7 137.0 Q199.55 139.35 201.5 139.35 203.4 139.35 209.55 135.25" fill="#ff3399" fill-rule="evenodd" stroke="none"/>
      <path d="M56.85 160.35 L55.7 157.25 Q81.15 208.1 89.95 224.55 L91.75 235.9 83.9 236.2 74.9 236.65 75.0 233.85 Q75.0 227.6 71.15 209.2 67.65 192.45 66.25 188.85 60.05 169.3 56.85 160.35 M175.8 178.95 L176.7 175.5 181.0 195.45 Q185.95 217.45 189.45 228.45 L189.0 231.6 189.55 232.4 190.95 233.8 168.5 234.2 Q169.55 227.75 170.2 219.05 L171.5 201.1 Q172.3 192.45 175.8 178.95 M129.7 228.2 L130.55 234.4 113.0 235.05 113.0 230.25 Q113.0 231.0 115.5 233.35 L117.25 232.6 120.4 207.95 Q120.95 201.95 121.0 189.25 L126.5 204.85 Q127.5 207.85 129.7 228.2 M145.0 190.2 L144.5 183.55 Q144.0 177.8 144.0 174.85 144.0 172.25 144.8 167.35 148.8 182.9 162.1 225.75 L162.0 230.1 163.4 233.05 164.05 234.2 137.95 234.35 Q139.85 226.85 141.8 214.95 145.0 195.6 145.0 190.2 M82.55 159.1 L83.15 159.45 84.4 159.25 85.05 160.05 Q85.7 168.5 97.4 200.85 106.9 227.15 110.45 235.15 L95.0 235.75 94.7 232.35 Q96.05 232.3 96.45 231.85 L96.75 231.35 Q97.0 231.95 97.0 229.45 97.0 228.55 93.25 219.15 L92.7 217.7 87.5 185.65 Q84.35 166.95 82.55 159.1 M193.05 233.75 L193.15 233.65 193.75 233.35 193.95 232.05 194.0 231.9 Q196.75 225.1 198.9 207.3 L200.4 191.9 Q209.8 223.15 213.4 233.4 L193.05 233.75" fill="#ff00ff" fill-rule="evenodd" stroke="none"/>
      <path d="M81.8 156.05 L82.5 156.9 81.95 156.65 81.8 156.05 M111.85 234.7 L112.0 235.1 111.0 235.15 111.85 234.7" fill="#ff0000" fill-rule="evenodd" stroke="none"/>
    </g>
    <g id="sprite2" transform="matrix(1, 0, 0, 1, 0.0, 0.0)">
      <use height="244.35" transform="matrix(1.0, 0.0, 0.0, 1.0, 0.0, 0.0)" width="266.0" xlink:href="#shape2"/>
    </g>
    <g id="shape2" transform="matrix(1, 0, 0, 1, 0.0, 0.0)">
      <path d="M247.95 69.05 Q233.9 50.45 218.0 44.85 211.7 42.6 195.95 40.0 177.4 36.9 161.0 32.35 145.3 27.95 135.25 19.65 126.1 10.55 120.25 6.85 117.4 21.15 98.7 32.5 85.0 40.85 59.5 49.15 32.0 57.4 21.85 61.0 5.0 67.05 5.0 72.35 5.0 87.75 10.0 108.2 12.5 118.45 15.0 127.1 15.0 129.6 14.75 129.35 L14.45 129.85 Q14.15 130.25 13.2 130.35 L15.2 132.75 15.0 131.6 Q26.3 123.05 32.65 120.3 37.9 118.0 41.4 119.2 L47.25 122.7 Q51.25 125.1 56.25 125.1 L61.35 123.95 Q65.5 122.75 67.5 122.6 L102.0 120.35 Q103.9 120.35 111.3 123.65 119.0 127.05 119.5 127.1 L130.5 124.35 137.85 128.5 Q140.8 130.1 141.4 130.1 143.3 130.1 149.5 127.75 155.7 125.35 160.5 125.35 161.95 125.35 166.95 128.75 171.95 132.1 175.25 132.1 176.6 132.1 181.3 130.75 186.0 129.35 189.5 129.35 193.35 129.35 197.1 131.75 L200.75 134.1 Q203.1 134.1 208.9 129.75 214.7 125.35 216.5 125.35 217.4 125.35 224.9 129.5 L233.35 134.5 233.5 134.35 235.2 135.0 Q235.7 135.3 235.9 136.05 245.6 130.65 252.35 120.35 260.75 107.6 260.75 96.2 260.75 91.6 257.3 84.2 253.75 76.7 247.95 69.05 M257.75 72.6 Q266.0 95.1 266.0 95.85 266.0 97.7 263.95 104.35 261.25 113.15 257.3 120.6 248.2 137.65 235.75 141.95 235.0 149.4 232.2 160.9 227.9 178.45 227.25 185.85 226.65 193.35 226.8 209.75 226.05 224.5 220.55 234.3 224.25 235.3 226.0 237.35 224.45 239.75 221.55 239.5 L210.15 238.6 136.95 239.55 137.0 243.1 136.5 243.75 Q136.0 244.35 134.5 244.35 133.45 244.35 132.6 242.45 L132.55 242.4 132.0 241.6 132.1 241.15 131.6 239.6 126.75 239.6 92.05 241.5 55.5 243.35 55.0 243.35 54.5 243.35 Q50.75 243.35 44.75 221.25 L36.5 188.1 Q34.15 179.6 22.1 156.3 11.0 134.8 11.0 132.6 11.0 130.65 11.5 130.05 7.15 127.25 3.3 101.35 L0.0 72.1 Q0.0 63.65 41.4 48.5 L73.4 37.35 Q90.5 31.4 95.5 28.85 104.8 24.05 110.7 17.45 117.05 10.3 115.0 5.6 114.65 -4.4 124.35 3.5 L132.4 10.75 Q137.1 15.05 139.0 15.85 147.6 24.1 161.8 28.7 171.1 31.7 188.55 34.4 207.7 37.4 214.55 39.25 227.9 42.8 235.0 49.35 L248.85 61.6 Q256.45 68.65 257.75 72.6 M209.55 135.25 Q203.4 139.35 201.5 139.35 199.55 139.35 195.7 137.0 L192.25 134.6 185.75 134.6 175.5 137.35 Q172.85 136.85 167.0 133.75 161.55 130.85 160.75 130.85 159.1 130.85 150.65 133.1 142.2 135.35 140.5 135.35 139.35 135.35 135.85 133.15 131.25 130.2 130.0 129.6 L118.5 132.35 Q114.0 129.95 110.8 128.45 104.7 125.6 98.25 125.6 63.15 128.95 55.5 130.35 L40.0 124.6 Q33.4 126.55 26.3 130.8 20.3 134.35 19.0 134.35 L16.45 134.0 15.75 133.55 18.2 137.6 Q24.6 148.85 34.0 171.15 43.3 193.15 49.8 212.45 56.15 231.15 56.9 238.8 61.55 237.65 71.55 236.9 67.7 226.1 59.95 195.25 51.0 159.65 51.0 152.6 51.0 146.5 54.0 153.15 L54.05 152.4 54.5 151.85 Q67.45 163.0 83.45 196.65 L86.8 203.85 85.95 198.35 80.0 158.2 Q80.0 151.6 81.1 154.05 82.95 154.6 85.3 157.2 L85.4 157.3 85.7 157.0 87.5 156.35 Q91.15 164.9 98.85 192.05 105.25 214.55 113.0 228.1 L113.0 230.15 114.5 213.85 Q116.0 198.75 116.0 188.2 116.0 184.45 112.0 161.95 112.0 158.65 113.4 160.1 114.15 160.8 115.0 162.55 L115.5 162.35 Q125.5 184.1 130.6 201.7 133.55 211.9 135.15 221.6 L135.5 219.25 Q139.0 195.9 139.0 174.1 138.9 170.5 139.4 166.55 140.35 158.7 143.5 156.35 L145.2 157.0 Q146.0 157.5 146.0 159.1 L146.0 159.15 146.6 160.2 Q149.9 166.3 154.5 179.1 160.45 195.65 163.35 207.2 L164.1 201.1 Q167.55 177.05 175.15 166.65 L175.0 165.2 Q175.0 161.4 176.85 164.5 L178.5 162.85 178.75 163.3 179.0 165.1 178.55 167.85 Q181.15 173.6 184.5 184.3 189.95 201.6 192.3 214.05 194.4 203.6 194.5 201.6 193.65 191.5 193.8 186.2 193.95 180.65 196.2 177.75 L196.0 177.1 Q196.0 175.45 196.7 175.0 L198.5 174.35 199.2 175.35 200.5 174.85 200.75 175.3 201.0 177.1 201.0 177.95 Q208.65 189.65 212.0 204.25 213.05 208.85 214.8 219.6 216.2 228.05 217.45 233.75 L220.45 234.3 218.5 232.35 218.0 231.6 Q218.0 212.55 222.7 177.8 225.9 154.15 229.15 143.3 L227.0 143.35 224.95 143.0 224.25 142.1 224.0 140.6 Q227.55 139.75 230.85 138.45 L230.95 138.3 Q229.1 137.8 224.15 134.75 218.35 131.1 216.65 131.1 215.7 131.1 209.55 135.25 M175.8 178.95 Q172.3 192.45 171.5 201.1 L170.2 219.05 Q169.55 227.75 168.5 234.2 L190.95 233.8 189.55 232.4 189.0 231.6 189.45 228.45 Q185.95 217.45 181.0 195.45 L176.7 175.5 175.8 178.95 M56.85 160.35 Q60.05 169.3 66.25 188.85 67.65 192.45 71.15 209.2 75.0 227.6 75.0 233.85 L74.9 236.65 83.9 236.2 91.75 235.9 89.95 224.55 Q81.15 208.1 55.7 157.25 L56.85 160.35 M81.8 156.05 L81.95 156.65 82.5 156.9 81.8 156.05 M84.4 159.25 L83.15 159.45 82.55 159.1 Q84.35 166.95 87.5 185.65 L92.7 217.7 93.25 219.15 Q97.0 228.55 97.0 229.45 97.0 231.95 96.75 231.35 L96.45 231.85 Q96.05 232.3 94.7 232.35 L95.0 235.75 110.45 235.15 Q106.9 227.15 97.4 200.85 85.7 168.5 85.05 160.05 L84.4 159.25 M145.0 190.2 Q145.0 195.6 141.8 214.95 139.85 226.85 137.95 234.35 L164.05 234.2 163.4 233.05 162.0 230.1 162.1 225.75 Q148.8 182.9 144.8 167.35 144.0 172.25 144.0 174.85 144.0 177.8 144.5 183.55 L145.0 190.2 M129.7 228.2 Q127.5 207.85 126.5 204.85 L121.0 189.25 Q120.95 201.95 120.4 207.95 L117.25 232.6 115.5 233.35 Q113.0 231.0 113.0 230.25 L113.0 235.05 130.55 234.4 129.7 228.2 M111.85 234.7 L111.0 235.15 112.0 235.1 111.85 234.7 M193.75 233.35 L193.15 233.65 193.05 233.75 213.4 233.4 Q209.8 223.15 200.4 191.9 L198.9 207.3 Q196.75 225.1 194.0 231.9 L193.95 232.05 193.75 233.35" fill="#000000" fill-rule="evenodd" stroke="none"/>
      <path d="M209.55 135.25 Q215.7 131.1 216.65 131.1 218.35 131.1 224.15 134.75 229.1 137.8 230.95 138.3 L230.85 138.45 Q227.55 139.75 224.0 140.6 L224.25 142.1 224.95 143.0 227.0 143.35 229.15 143.3 Q225.9 154.15 222.7 177.8 218.0 212.55 218.0 231.6 L218.5 232.35 220.45 234.3 217.45 233.75 Q216.2 228.05 214.8 219.6 213.05 208.85 212.0 204.25 208.65 189.65 201.0 177.95 L201.0 177.1 200.75 175.3 200.5 174.85 199.2 175.35 198.5 174.35 196.7 175.0 Q196.0 175.45 196.0 177.1 L196.2 177.75 Q193.95 180.65 193.8 186.2 193.65 191.5 194.5 201.6 194.4 203.6 192.3 214.05 189.95 201.6 184.5 184.3 181.15 173.6 178.55 167.85 L179.0 165.1 178.75 163.3 178.5 162.85 176.85 164.5 Q175.0 161.4 175.0 165.2 L175.15 166.65 Q167.55 177.05 164.1 201.1 L163.35 207.2 Q160.45 195.65 154.5 179.1 149.9 166.3 146.6 160.2 L146.0 159.15 146.0 159.1 Q146.0 157.5 145.2 157.0 L143.5 156.35 Q140.35 158.7 139.4 166.55 138.9 170.5 139.0 174.1 139.0 195.9 135.5 219.25 L135.15 221.6 Q133.55 211.9 130.6 201.7 125.5 184.1 115.5 162.35 L115.0 162.55 Q114.15 160.8 113.4 160.1 112.0 158.65 112.0 161.95 116.0 184.45 116.0 188.2 116.0 198.75 114.5 213.85 L113.0 230.15 113.0 228.1 Q105.25 214.55 98.85 192.05 91.15 164.9 87.5 156.35 L85.7 157.0 85.4 157.3 85.3 157.2 Q82.95 154.6 81.1 154.05 80.0 151.6 80.0 158.2 L85.95 198.35 86.8 203.85 83.45 196.65 Q67.45 163.0 54.5 151.85 L54.05 152.4 54.0 153.15 Q51.0 146.5 51.0 152.6 51.0 159.65 59.95 195.25 67.7 226.1 71.55 236.9 61.55 237.65 56.9 238.8 56.15 231.15 49.8 212.45 43.3 193.15 34.0 171.15 24.6 148.85 18.2 137.6 L15.75 133.55 16.45 134.0 19.0 134.35 Q20.3 134.35 26.3 130.8 33.4 126.55 40.0 124.6 L55.5 130.35 Q63.15 128.95 98.25 125.6 104.7 125.6 110.8 128.45 114.0 129.95 118.5 132.35 L130.0 129.6 Q131.25 130.2 135.85 133.15 139.35 135.35 140.5 135.35 142.2 135.35 150.65 133.1 159.1 130.85 160.75 130.85 161.55 130.85 167.0 133.75 172.85 136.85 175.5 137.35 L185.75 134.6 192.25 134.6 195.7 137.0 Q199.55 139.35 201.5 139.35 203.4 139.35 209.55 135.25" fill="#ff3399" fill-rule="evenodd" stroke="none"/>
      <path d="M56.85 160.35 L55.7 157.25 Q81.15 208.1 89.95 224.55 L91.75 235.9 83.9 236.2 74.9 236.65 75.0 233.85 Q75.0 227.6 71.15 209.2 67.65 192.45 66.25 188.85 60.05 169.3 56.85 160.35 M175.8 178.95 L176.7 175.5 181.0 195.45 Q185.95 217.45 189.45 228.45 L189.0 231.6 189.55 232.4 190.95 233.8 168.5 234.2 Q169.55 227.75 170.2 219.05 L171.5 201.1 Q172.3 192.45 175.8 178.95 M129.7 228.2 L130.55 234.4 113.0 235.05 113.0 230.25 Q113.0 231.0 115.5 233.35 L117.25 232.6 120.4 207.95 Q120.95 201.95 121.0 189.25 L126.5 204.85 Q127.5 207.85 129.7 228.2 M145.0 190.2 L144.5 183.55 Q144.0 177.8 144.0 174.85 144.0 172.25 144.8 167.35 148.8 182.9 162.1 225.75 L162.0 230.1 163.4 233.05 164.05 234.2 137.95 234.35 Q139.85 226.85 141.8 214.95 145.0 195.6 145.0 190.2 M84.4 159.25 L85.05 160.05 Q85.7 168.5 97.4 200.85 106.9 227.15 110.45 235.15 L95.0 235.75 94.7 232.35 Q96.05 232.3 96.45 231.85 L96.75 231.35 Q97.0 231.95 97.0 229.45 97.0 228.55 93.25 219.15 L92.7 217.7 87.5 185.65 Q84.35 166.95 82.55 159.1 L83.15 159.45 84.4 159.25 M193.75 233.35 L193.95 232.05 194.0 231.9 Q196.75 225.1 198.9 207.3 L200.4 191.9 Q209.8 223.15 213.4 233.4 L193.05 233.75 193.15 233.65 193.75 233.35" fill="#ff00ff" fill-rule="evenodd" stroke="none"/>
      <path d="M81.8 156.05 L82.5 156.9 81.95 156.65 81.8 156.05 M111.85 234.7 L112.0 235.1 111.0 235.15 111.85 234.7" fill="#ff0000" fill-rule="evenodd" stroke="none"/>
      <path d="M247.95 69.05 Q253.75 76.7 257.3 84.2 260.75 91.6 260.75 96.2 260.75 107.6 252.35 120.35 245.6 130.65 235.9 136.05 235.7 135.3 235.2 135.0 L233.5 134.35 233.35 134.5 224.9 129.5 Q217.4 125.35 216.5 125.35 214.7 125.35 208.9 129.75 203.1 134.1 200.75 134.1 L197.1 131.75 Q193.35 129.35 189.5 129.35 186.0 129.35 181.3 130.75 176.6 132.1 175.25 132.1 171.95 132.1 166.95 128.75 161.95 125.35 160.5 125.35 155.7 125.35 149.5 127.75 143.3 130.1 141.4 130.1 140.8 130.1 137.85 128.5 L130.5 124.35 119.5 127.1 Q119.0 127.05 111.3 123.65 103.9 120.35 102.0 120.35 L67.5 122.6 Q65.5 122.75 61.35 123.95 L56.25 125.1 Q51.25 125.1 47.25 122.7 L41.4 119.2 Q37.9 118.0 32.65 120.3 26.3 123.05 15.0 131.6 L15.2 132.75 13.2 130.35 Q14.15 130.25 14.45 129.85 L14.75 129.35 Q15.0 129.6 15.0 127.1 12.5 118.45 10.0 108.2 5.0 87.75 5.0 72.35 5.0 67.05 21.85 61.0 32.0 57.4 59.5 49.15 85.0 40.85 98.7 32.5 117.4 21.15 120.25 6.85 126.1 10.55 135.25 19.65 145.3 27.95 161.0 32.35 177.4 36.9 195.95 40.0 211.7 42.6 218.0 44.85 233.9 50.45 247.95 69.05" fill="#330099" fill-rule="evenodd" stroke="none"/>
    </g>
  </defs>
</svg>
