<?xml version="1.0" encoding="UTF-8" standalone="no"?>
<svg xmlns:xlink="http://www.w3.org/1999/xlink" height="83.6px" width="72.65px" xmlns="http://www.w3.org/2000/svg">
  <g transform="matrix(1, 0, 0, 1, -0.9, 13.25)">
    <use height="40.0" transform="matrix(1.0, 0.0, 0.0, 1.0, 14.2, 10.15)" width="53.05" xlink:href="#sprite0"/>
  </g>
  <defs>
    <g id="sprite0" transform="matrix(1, 0, 0, 1, 0.5, 0.5)">
      <use height="40.0" transform="matrix(1.0, 0.0, 0.0, 1.0, -0.5, -0.5)" width="53.05" xlink:href="#shape0"/>
    </g>
    <g id="shape0" transform="matrix(1, 0, 0, 1, 0.5, 0.5)">
      <path d="M41.25 7.35 Q41.25 8.05 40.75 8.55 40.25 9.05 39.5 9.05 38.75 9.05 38.25 8.55 37.75 8.05 37.75 7.3 37.75 6.6 38.25 6.1 38.75 5.6 39.5 5.6 40.25 5.6 40.75 6.1 41.25 6.6 41.25 7.35 M0.55 2.25 L2.8 0.0 49.15 0.0 51.4 2.25 1.2 2.25 M5.3 10.35 L46.9 10.35 46.9 35.9 47.65 35.9 M0.55 4.5 L52.05 4.5 52.05 39.0 0.0 39.0 M33.2 5.65 Q33.95 5.65 34.45 6.15 34.95 6.65 34.95 7.4 34.95 8.1 34.45 8.6 33.95 9.1 33.2 9.1 32.45 9.1 31.95 8.6 31.45 8.1 31.45 7.35 31.45 6.65 31.95 6.15 32.45 5.65 33.2 5.65 M17.7 5.65 Q18.45 5.65 18.95 6.15 19.45 6.65 19.45 7.4 19.45 8.1 18.95 8.6 18.45 9.1 17.7 9.1 16.95 9.1 16.45 8.6 15.95 8.1 15.95 7.35 15.95 6.65 16.45 6.15 16.95 5.65 17.7 5.65 M11.2 7.4 Q11.2 6.7 11.7 6.2 12.2 5.7 12.95 5.7 13.7 5.7 14.2 6.2 14.7 6.7 14.7 7.45 14.7 8.15 14.2 8.65 13.7 9.15 12.95 9.15 12.2 9.15 11.7 8.65 11.2 8.15 11.2 7.4 M4.55 35.9 L4.85 35.9 4.85 10.35 M0.1 38.1 L0.1 4.65 M10.6 13.9 L40.6 13.9 M4.85 35.9 L46.9 35.9" fill="none" stroke="#000000" stroke-linecap="round" stroke-linejoin="round" stroke-width="1.0"/>
    </g>
  </defs>
</svg>
