<?xml version="1.0" encoding="UTF-8" standalone="no"?>
<svg xmlns:xlink="http://www.w3.org/1999/xlink" height="83.6px" width="72.65px" xmlns="http://www.w3.org/2000/svg">
  <g transform="matrix(1, 0, 0, 1, -0.9, 13.25)">
    <use height="439.5" transform="matrix(0.1653, 0.1348, -0.1348, 0.1653, 60.1464, -13.2552)" width="81.05" xlink:href="#sprite0"/>
  </g>
  <defs>
    <g id="sprite0" transform="matrix(1, 0, 0, 1, 40.75, 342.7)">
      <use height="32.15" transform="matrix(1.0048, 0.0, 0.0, 1.0, -31.1944, 64.65)" width="61.25" xlink:href="#sprite1"/>
      <use height="411.6" transform="matrix(1.0, 0.0, 0.0, 1.0, -40.75, -342.7)" width="81.05" xlink:href="#sprite2"/>
    </g>
    <g id="sprite1" transform="matrix(1, 0, 0, 1, 29.95, -64.65)">
      <use height="32.15" transform="matrix(1.0, 0.0, 0.0, 1.0, -29.95, 64.65)" width="61.25" xlink:href="#shape0"/>
    </g>
    <g id="shape0" transform="matrix(1, 0, 0, 1, 29.95, -64.65)">
      <path d="M21.9 75.25 L25.9 75.3 27.0 75.25 27.1 75.25 27.45 75.25 Q28.25 69.55 28.85 66.8 L28.65 66.6 26.15 65.6 25.75 65.4 22.65 65.4 3.05 65.4 2.85 65.3 -8.4 65.3 -24.45 65.3 -24.9 65.6 -27.4 66.6 -27.65 66.8 Q-27.1 69.55 -26.3 75.25 L-24.65 75.3 -23.65 75.3 -11.95 75.15 -10.85 75.1 -9.75 75.0 -9.3 75.0 -7.65 75.0 11.15 74.95 13.95 75.15 21.9 75.25 M-24.15 95.95 L-24.9 95.4 -27.7 80.1 -29.95 68.9 -29.7 66.1 -27.8 64.65 -25.55 64.65 -25.45 64.7 2.85 64.7 5.35 64.65 24.35 64.65 26.75 64.65 27.05 64.65 28.55 65.0 Q30.55 65.65 31.3 67.65 L28.9 80.1 Q27.3 88.05 26.05 95.4 L26.0 95.4 26.0 95.1 Q25.9 93.6 25.3 92.95 24.3 93.95 24.15 94.85 23.9 94.7 23.6 94.85 L22.05 94.85 23.4 94.5 Q23.4 94.4 23.5 94.45 L23.6 94.3 25.15 86.45 Q24.55 85.85 23.35 85.75 L23.25 85.75 22.5 85.8 22.4 85.8 22.35 85.8 22.25 85.8 21.5 85.8 20.8 85.8 20.4 85.8 20.15 85.8 19.95 85.8 19.75 85.8 19.65 85.8 19.45 85.8 17.5 85.65 -16.35 85.65 -22.1 85.75 Q-23.4 85.85 -24.0 86.45 L-22.45 94.3 -22.35 94.45 -22.25 94.5 -20.9 94.85 -22.2 94.85 Q-23.2 94.0 -24.2 94.15 L-24.3 94.75 Q-24.5 95.25 -24.15 95.95 M25.5 95.8 L25.35 95.95 25.35 95.8 25.5 95.8 M23.2 96.75 L22.05 96.8 -20.25 96.8 -21.35 96.75 23.2 96.75 M-6.4 85.0 L19.05 85.0 19.45 85.1 20.15 85.1 25.55 84.9 27.35 76.05 26.6 75.8 21.6 75.8 18.5 75.8 11.0 75.8 4.1 75.65 -2.35 75.65 -7.4 75.8 -8.65 75.8 -8.85 75.8 -9.15 75.8 -25.35 75.8 -26.15 76.05 -24.35 84.9 -17.7 85.1 -17.3 85.0 -6.4 85.0" fill="#000000" fill-rule="evenodd" stroke="none"/>
      <path d="M-24.15 95.95 Q-24.5 95.25 -24.3 94.75 L-24.2 94.15 Q-23.2 94.0 -22.2 94.85 L-20.9 94.85 -5.1 94.85 18.85 94.85 22.05 94.85 23.6 94.85 Q23.9 94.7 24.15 94.85 24.3 93.95 25.3 92.95 25.9 93.6 26.0 95.1 L26.0 95.4 26.0 95.45 25.95 95.7 25.5 95.8 25.35 95.8 25.35 95.95 25.05 96.4 23.7 96.75 23.2 96.75 -21.35 96.75 -22.95 96.75 Q-23.7 96.65 -24.15 95.95" fill="#030303" fill-rule="evenodd" stroke="none"/>
      <path d="M22.65 65.4 L25.75 65.4 26.15 65.6 28.65 66.6 28.85 66.8 Q28.25 69.55 27.45 75.25 L27.1 75.25 27.0 75.25 25.9 75.3 21.9 75.25 22.1 73.9 22.75 66.4 22.65 65.4 M20.15 85.8 L20.4 85.8 20.8 85.8 21.5 85.8 22.25 85.8 22.35 85.8 22.4 85.8 22.5 85.8 23.25 85.75 23.35 85.75 Q24.55 85.85 25.15 86.45 L23.6 94.3 23.5 94.45 Q23.4 94.4 23.4 94.5 L22.05 94.85 18.85 94.85 19.3 92.05 20.2 86.25 20.15 85.8 M21.6 75.8 L26.6 75.8 27.35 76.05 25.55 84.9 20.15 85.1 20.8 81.1 21.6 75.8" fill="#e0f0f1" fill-rule="evenodd" stroke="none"/>
      <path d="M21.9 75.25 L13.95 75.15 11.15 74.95 -7.65 75.0 -8.4 70.7 -8.4 65.3 2.85 65.3 3.05 65.4 22.65 65.4 22.75 66.4 22.1 73.9 21.9 75.25 M19.45 85.8 L19.65 85.8 19.75 85.8 19.95 85.8 20.15 85.8 20.2 86.25 19.3 92.05 18.85 94.85 -5.1 94.85 -6.35 86.8 -5.9 86.8 -2.55 86.6 9.4 86.5 18.3 85.9 19.45 85.8 M20.15 85.1 L19.45 85.1 19.05 85.0 -6.4 85.0 -7.3 77.75 -7.35 76.8 -6.85 76.7 -5.95 76.5 -2.95 76.5 -1.0 76.5 -2.0 76.3 -0.4 76.35 2.75 76.45 13.25 76.45 18.5 75.8 21.6 75.8 20.8 81.1 20.15 85.1" fill="url(#gradient0)" fill-rule="evenodd" stroke="none"/>
      <path d="M-7.65 75.0 L-9.3 75.0 -9.75 75.0 -10.85 75.1 -11.95 75.15 -23.65 75.3 -24.65 75.3 -26.3 75.25 Q-27.1 69.55 -27.65 66.8 L-27.4 66.6 -24.9 65.6 -24.45 65.3 -8.4 65.3 -8.4 70.7 -7.65 75.0 M-20.9 94.85 L-22.25 94.5 -22.35 94.45 -22.45 94.3 -24.0 86.45 Q-23.4 85.85 -22.1 85.75 L-16.35 85.65 17.5 85.65 19.45 85.8 18.3 85.9 9.4 86.5 -2.55 86.6 -5.9 86.8 -6.35 86.8 -5.1 94.85 -20.9 94.85 M-6.4 85.0 L-17.3 85.0 -17.7 85.1 -24.35 84.9 -26.15 76.05 -25.35 75.8 -9.15 75.8 -8.85 75.8 -8.65 75.8 -7.4 75.8 -2.35 75.65 4.1 75.65 11.0 75.8 18.5 75.8 13.25 76.45 2.75 76.45 -0.4 76.35 -2.0 76.3 -1.0 76.5 -2.95 76.5 -5.95 76.5 -6.85 76.7 -7.35 76.8 -7.3 77.75 -6.4 85.0" fill="url(#gradient1)" fill-rule="evenodd" stroke="none"/>
    </g>
    <linearGradient gradientTransform="matrix(0.0123, -1.0E-4, 0.0, -0.0072, -1.3, 128.2)" gradientUnits="userSpaceOnUse" id="gradient0" spreadMethod="pad" x1="-819.2" x2="819.2">
      <stop offset="0.0" stop-color="#e0f0f1"/>
      <stop offset="1.0" stop-color="#95bace"/>
    </linearGradient>
    <linearGradient gradientTransform="matrix(0.0079, 0.0, -0.0102, -1.0318, -18.85, 19.15)" gradientUnits="userSpaceOnUse" id="gradient1" spreadMethod="pad" x1="-819.2" x2="819.2">
      <stop offset="0.0" stop-color="#e0f0f1"/>
      <stop offset="1.0" stop-color="#ffffff"/>
    </linearGradient>
    <g id="sprite2" transform="matrix(1, 0, 0, 1, 40.75, 342.7)">
      <use height="411.6" transform="matrix(1.0, 0.0, 0.0, 1.0, -40.75, -342.7)" width="81.05" xlink:href="#shape1"/>
    </g>
    <g id="shape1" transform="matrix(1, 0, 0, 1, 40.75, 342.7)">
      <path d="M23.25 -170.2 L23.95 -170.1 24.15 -169.6 25.8 -165.1 26.1 -163.9 26.5 -163.45 27.3 -162.75 30.65 -162.55 32.7 -162.55 33.35 -162.4 Q35.7 -162.45 38.05 -155.85 40.25 -149.6 40.25 -145.5 40.5 -143.25 39.7 -142.9 L39.05 -142.4 36.6 -142.3 36.0 -139.65 Q35.1 -136.7 32.6 -132.5 L31.35 -130.75 31.4 -130.75 Q30.4 -129.35 29.3 -129.15 L28.25 -128.95 27.65 -129.05 17.65 -129.05 13.35 -129.05 13.0 -129.05 11.9 -129.05 11.8 -129.05 9.75 -129.1 9.1 -129.1 9.0 -128.95 8.95 -128.9 8.7 -128.5 Q7.65 -126.9 6.95 -125.25 L6.9 -125.1 6.55 -123.95 5.9 -121.4 5.8 -120.15 5.8 -119.7 5.7 -117.85 5.6 -116.25 5.6 -116.15 5.65 -105.7 5.65 -105.2 5.65 -101.7 5.65 -99.35 5.65 -81.05 5.8 -81.0 6.65 -80.4 8.0 -79.4 Q9.25 -77.95 9.25 -75.4 L9.1 -73.25 9.15 -70.45 Q9.45 -68.7 9.25 -63.05 L9.2 -47.7 9.2 -46.4 9.25 -42.6 Q9.45 -36.95 9.15 -35.15 L9.1 -32.4 9.25 -30.25 Q9.25 -27.7 8.0 -26.25 L6.65 -25.25 5.75 -24.6 5.65 -24.6 5.65 -17.8 5.55 -17.8 5.55 -16.7 5.65 -16.7 5.65 -16.05 5.65 -8.25 5.65 -1.8 5.65 0.65 5.55 6.15 5.65 7.0 5.75 7.95 5.8 8.6 5.75 9.3 5.9 9.85 6.1 12.45 6.6 14.2 7.1 15.65 Q7.75 17.2 8.7 18.7 L9.6 20.45 9.3 20.45 Q6.15 15.95 5.6 11.25 L5.6 11.35 Q6.15 16.0 9.3 20.45 L9.6 20.9 9.85 20.9 9.85 21.1 10.25 21.1 10.45 21.15 11.05 21.1 14.25 21.1 15.45 21.05 16.4 21.05 16.9 21.15 17.55 21.25 17.95 21.25 18.75 21.45 19.65 22.95 19.8 23.15 19.75 23.15 Q24.55 33.2 27.85 41.3 L28.2 42.45 29.1 45.85 Q29.75 46.25 30.5 47.6 L30.55 47.6 30.9 48.5 31.75 50.1 32.6 53.4 32.7 53.85 32.65 53.85 32.75 55.85 32.75 56.35 33.0 61.05 32.7 64.8 Q31.9 68.0 29.35 68.0 L28.55 67.95 28.75 67.3 Q28.75 65.4 26.85 66.35 L15.05 66.35 15.05 66.3 9.25 66.3 7.75 66.3 7.75 66.35 -8.0 66.35 -8.0 66.3 -15.25 66.3 -15.25 66.35 -30.1 66.35 -30.0 66.45 Q-30.5 66.75 -30.5 68.05 L-30.4 68.9 Q-32.55 68.6 -33.25 65.0 L-33.55 61.05 -33.35 56.2 -33.25 55.65 -33.2 53.85 -33.1 53.4 Q-32.35 49.85 -31.4 48.1 L-31.55 48.1 -31.4 47.6 -31.35 47.6 -31.0 47.6 -30.8 47.3 -29.8 45.95 -28.8 42.45 -28.45 41.3 Q-25.25 33.2 -20.4 23.15 L-20.35 23.15 -20.25 22.95 -19.35 21.45 -18.55 21.25 -18.15 21.25 -17.5 21.15 -17.0 21.05 -16.05 21.05 -14.85 21.1 -10.7 21.1 -10.7 20.85 -10.6 20.85 -10.55 20.85 -10.35 20.45 -9.4 18.35 Q-7.45 13.9 -6.35 8.85 L-6.35 8.2 -6.35 7.65 -6.35 7.25 -6.4 -0.4 -6.45 -3.95 -6.5 -9.0 -6.5 -9.45 -6.4 -9.45 -6.4 -24.6 -6.55 -24.6 -6.6 -24.6 -6.75 -24.6 Q-7.15 -24.6 -7.8 -25.25 -8.55 -25.5 -9.2 -26.25 -10.25 -27.6 -10.35 -29.9 L-10.5 -30.5 -10.55 -32.4 -10.35 -36.9 -10.35 -42.6 -10.3 -57.9 -10.3 -59.25 -10.35 -63.05 Q-10.55 -68.7 -10.2 -70.45 L-10.3 -71.9 -10.25 -73.45 -10.35 -75.4 Q-10.35 -77.95 -9.2 -79.4 L-7.8 -80.4 -6.75 -81.05 -6.6 -81.05 -6.55 -81.05 -6.45 -81.05 -6.5 -100.2 -6.4 -115.05 -6.35 -117.75 -6.35 -117.85 -6.95 -120.35 Q-7.9 -124.05 -9.4 -127.3 L-10.0 -128.6 -10.15 -128.9 -10.15 -128.95 -10.25 -129.2 -11.05 -129.2 -12.05 -129.2 Q-12.15 -129.05 -12.35 -129.05 L-28.1 -129.05 -28.7 -128.95 -29.75 -129.15 Q-30.85 -129.35 -31.8 -130.75 L-31.85 -130.75 -33.0 -132.5 Q-35.55 -136.7 -36.4 -139.65 L-37.0 -142.3 -39.5 -142.4 -40.15 -142.9 Q-40.95 -143.25 -40.7 -145.5 -40.7 -149.6 -38.5 -155.85 -36.15 -162.45 -33.8 -162.4 L-33.15 -162.55 -31.1 -162.55 -27.75 -162.75 -26.95 -163.45 -26.55 -163.9 -26.25 -165.1 -24.6 -169.6 -24.4 -170.1 -22.9 -170.2 -22.55 -170.2 -22.6 -169.75 Q-22.45 -169.5 -20.7 -169.4 L-20.65 -169.4 -7.3 -169.05 -0.2 -168.9 13.75 -169.2 20.25 -169.4 21.0 -169.45 Q22.05 -169.55 22.15 -169.75 L22.1 -170.2 23.25 -170.2 M18.75 -161.6 L18.9 -161.6 19.95 -161.6 24.4 -161.9 24.8 -162.0 Q24.15 -162.75 23.7 -164.65 L23.05 -166.4 Q22.3 -167.7 21.15 -168.05 L20.4 -168.2 17.5 -168.2 9.9 -168.2 -20.85 -168.2 Q-22.45 -168.05 -23.35 -166.55 -23.85 -165.8 -24.15 -164.65 -24.6 -162.75 -25.25 -162.0 L-24.85 -161.9 -20.35 -161.6 -19.35 -161.6 -12.65 -161.6 18.75 -161.6 M14.85 -160.25 L14.85 -160.7 3.3 -160.8 3.35 -159.75 3.3 -157.3 Q3.5 -156.35 3.35 -154.4 3.35 -151.25 3.05 -149.75 2.3 -145.85 -0.15 -145.85 L-0.6 -145.85 -0.9 -145.9 Q-2.8 -146.25 -3.2 -148.4 L-3.3 -149.45 -3.5 -150.35 -3.6 -153.35 -3.55 -154.45 -3.75 -159.75 -3.75 -160.8 -15.3 -160.7 -15.3 -160.25 Q-15.3 -159.7 -15.65 -158.1 -17.2 -153.1 -17.25 -151.35 L-17.85 -148.45 Q-18.65 -146.5 -19.55 -145.85 L-19.7 -145.9 -19.85 -145.85 -20.75 -146.0 -20.7 -146.0 -21.2 -146.3 -21.5 -146.75 -21.6 -147.05 -21.65 -147.9 -21.6 -148.8 Q-21.6 -150.85 -21.05 -154.9 L-20.25 -160.7 -21.45 -160.7 -26.45 -160.65 -26.7 -160.05 -26.85 -159.5 -28.65 -153.1 Q-30.9 -145.7 -31.8 -145.7 -32.6 -145.7 -32.75 -146.3 L-32.8 -146.35 -32.8 -146.4 -32.75 -147.2 Q-32.75 -148.75 -30.95 -154.85 L-30.7 -155.65 -30.45 -156.8 -30.45 -156.9 -30.4 -157.1 -29.7 -159.4 -29.4 -160.45 -29.35 -160.6 -31.55 -160.45 -31.55 -160.25 -33.5 -154.55 Q-35.6 -148.75 -36.05 -146.3 L-36.75 -146.0 -37.3 -146.05 -37.5 -146.55 -37.4 -147.1 Q-37.3 -149.0 -35.0 -156.35 L-33.65 -160.2 -33.8 -160.15 -35.45 -157.05 Q-35.85 -155.35 -36.95 -152.65 -38.45 -149.1 -38.65 -144.5 L-37.7 -144.2 -13.95 -144.2 27.4 -144.2 37.25 -144.2 Q37.9 -144.3 38.2 -144.5 38.0 -149.1 36.5 -152.65 35.4 -155.35 35.0 -157.05 L33.35 -160.15 33.2 -160.2 34.55 -156.35 Q36.85 -149.0 36.95 -147.1 L37.05 -146.55 Q37.05 -146.1 36.85 -146.05 L36.3 -146.0 35.6 -146.3 34.35 -150.9 33.9 -152.45 Q32.7 -157.0 31.5 -160.25 L31.1 -160.2 31.1 -160.25 31.1 -160.45 29.1 -160.55 30.35 -155.6 30.35 -155.35 30.5 -154.85 Q32.3 -148.75 32.3 -147.2 L32.35 -146.4 Q32.2 -145.7 31.35 -145.7 L31.15 -145.75 Q30.2 -146.45 28.2 -153.1 L26.4 -159.5 26.25 -160.05 26.0 -160.65 25.6 -160.65 21.15 -160.7 21.0 -160.7 19.8 -160.7 20.6 -154.9 Q21.15 -150.95 21.15 -148.9 L21.15 -148.8 21.2 -147.9 21.15 -147.05 Q20.9 -145.85 19.4 -145.85 L19.25 -145.9 19.1 -145.85 Q18.2 -146.5 17.4 -148.45 L16.8 -151.35 Q16.75 -153.1 15.2 -158.1 14.85 -159.7 14.85 -160.25 M30.7 -149.2 L30.75 -148.8 30.75 -148.75 30.95 -148.25 30.95 -148.4 30.7 -149.2 M19.2 -131.35 L27.95 -131.35 28.2 -131.4 29.9 -133.7 32.65 -138.2 32.8 -138.5 33.95 -141.5 34.1 -142.25 34.1 -143.5 25.05 -143.5 10.65 -143.5 -34.5 -143.5 -34.5 -142.25 -34.35 -141.5 -33.2 -138.5 -33.05 -138.2 -30.3 -133.7 -28.65 -131.4 -28.4 -131.35 -11.85 -131.35 -6.0 -131.35 13.7 -131.35 14.1 -131.35 19.2 -131.35 M3.0 -97.0 L3.0 -100.2 3.05 -110.7 3.1 -113.4 3.1 -114.15 3.1 -114.45 3.15 -115.05 3.2 -115.2 3.6 -117.85 3.9 -120.35 4.15 -121.9 4.3 -123.2 4.7 -126.05 5.6 -128.9 5.65 -128.95 5.7 -129.1 5.05 -129.1 5.25 -129.55 Q4.95 -130.05 3.9 -130.4 L-6.5 -130.4 -7.35 -129.9 -7.15 -129.15 -7.75 -129.15 -7.65 -128.95 -7.65 -128.9 -7.0 -127.35 -6.9 -127.05 -6.0 -124.85 -5.0 -120.35 -4.45 -117.85 -4.1 -116.35 -4.05 -115.05 -4.0 -100.2 -4.0 -85.95 -3.95 -84.65 -4.0 -82.75 -4.0 -81.05 -3.6 -81.05 -3.6 -80.9 -3.5 -80.7 -3.45 -80.65 -2.3 -80.2 -1.5 -80.1 -1.2 -80.1 -1.1 -80.1 -0.4 -80.1 -0.2 -80.1 -0.1 -80.1 1.55 -80.15 1.65 -80.15 1.75 -80.15 2.15 -80.25 2.5 -80.65 2.55 -81.05 3.1 -81.05 3.45 -81.05 3.1 -81.75 3.05 -81.85 3.05 -92.7 3.0 -97.0 M5.4 -120.75 L5.35 -120.9 5.35 -120.35 5.4 -117.85 5.4 -116.45 5.45 -115.05 5.5 -100.2 5.5 -81.05 5.55 -81.05 5.55 -100.2 5.5 -115.05 5.45 -116.45 5.45 -117.85 5.4 -120.35 5.4 -120.75 M5.65 -120.35 L6.1 -122.8 5.6 -120.35 5.6 -120.25 5.65 -120.35 M5.35 -81.05 L5.05 -81.0 5.1 -81.0 5.35 -81.05 M3.4 -26.65 L3.5 -26.65 4.2 -26.7 4.35 -26.7 5.05 -26.75 5.65 -26.8 5.75 -26.8 5.8 -26.8 6.05 -27.05 6.2 -27.2 6.25 -27.35 6.4 -27.65 6.7 -28.1 6.9 -28.55 7.2 -29.1 7.25 -29.25 7.25 -29.2 7.3 -29.3 7.3 -29.35 7.3 -32.4 7.3 -35.0 7.2 -35.15 7.2 -70.5 7.3 -70.65 7.3 -73.25 7.3 -76.3 6.7 -77.5 6.4 -78.0 5.8 -78.85 5.75 -78.85 5.65 -78.85 5.55 -78.85 4.15 -78.95 3.65 -79.0 3.55 -79.0 3.5 -79.0 3.4 -79.0 3.15 -79.0 2.55 -79.05 2.1 -79.05 0.45 -79.15 0.1 -79.15 -0.6 -79.2 -0.75 -79.2 -1.4 -79.15 -1.45 -79.15 -1.7 -79.15 -1.75 -79.15 -1.95 -79.1 -2.6 -79.05 -2.95 -79.05 -3.05 -79.05 -3.15 -79.05 -3.7 -79.05 -3.75 -79.05 -4.3 -79.0 -6.05 -78.9 -6.15 -78.9 -6.25 -78.9 -6.85 -78.85 -6.9 -78.85 -7.0 -78.75 -7.2 -78.45 -7.4 -78.15 -7.5 -78.0 -7.8 -77.5 -8.25 -75.05 -8.25 -74.95 -8.4 -72.9 -8.3 -71.9 -8.4 -70.55 -8.35 -70.5 -8.35 -35.15 -8.5 -35.0 -8.5 -32.4 -8.5 -29.85 -8.35 -29.1 -8.35 -29.05 -7.9 -28.25 -7.65 -27.9 -7.55 -27.75 -7.55 -27.7 -7.5 -27.65 -6.9 -26.8 -6.85 -26.8 -6.25 -26.75 -6.15 -26.75 -4.45 -26.65 -4.0 -26.6 -3.9 -26.6 -3.8 -26.6 -3.7 -26.6 -1.95 -26.45 -0.6 -26.45 0.05 -26.45 0.1 -26.45 1.15 -26.5 2.3 -26.55 2.65 -26.6 2.75 -26.6 3.4 -26.65 M3.2 -24.75 L1.1 -25.5 0.1 -25.6 0.0 -25.6 -0.1 -25.6 -0.25 -25.6 -1.2 -25.45 -1.25 -25.45 -1.7 -25.5 -1.8 -25.5 -2.05 -25.5 -2.7 -25.45 Q-3.4 -25.3 -3.7 -25.0 L-3.9 -24.6 -4.0 -24.6 -4.05 -24.6 -4.15 -24.6 -4.2 -24.6 -4.3 -24.6 -4.15 -23.4 -4.1 -23.4 -4.1 -23.0 -3.95 -20.7 -3.95 -20.5 -4.0 -19.2 -4.1 -18.85 -4.1 -9.45 -4.0 -9.45 -4.0 -9.0 -4.0 -3.95 -4.1 6.75 -4.1 7.3 -4.1 7.4 -6.0 15.85 -6.35 16.7 -7.8 20.45 -8.05 21.1 -8.3 21.7 -8.05 22.45 -7.5 22.65 2.6 22.65 3.25 22.65 5.35 22.35 6.1 21.6 5.95 21.1 6.0 21.1 5.95 21.05 5.75 20.45 5.35 19.2 4.7 17.05 4.3 14.25 3.15 5.55 3.1 5.4 3.0 -3.95 3.0 -9.0 3.0 -9.45 3.1 -9.45 3.1 -11.25 3.1 -14.9 3.1 -16.05 3.1 -23.0 3.15 -23.05 3.15 -22.5 3.15 -21.6 3.2 -20.7 3.2 -20.05 3.3 -18.95 3.35 -18.95 3.25 -20.05 3.25 -20.7 3.2 -21.6 3.2 -22.5 3.2 -23.05 3.25 -24.75 3.2 -24.75 M5.5 -24.6 L5.45 -24.6 5.4 -9.45 5.45 -9.45 5.5 -24.6 M5.1 -24.65 L5.05 -24.65 5.25 -24.6 5.1 -24.65 M5.55 -9.0 L5.55 -9.45 5.5 -9.45 5.5 -9.0 5.5 -3.95 5.4 7.4 5.4 8.95 5.4 11.85 5.45 11.6 5.45 8.95 5.45 7.4 5.55 -3.95 5.55 -9.0 M-31.15 -149.2 L-31.4 -148.4 -31.4 -148.25 -31.2 -148.75 -31.2 -148.8 -31.15 -149.2 M-4.65 -81.0 L-4.35 -81.05 -4.8 -81.0 -4.65 -81.0 M-15.35 23.15 L-15.35 23.1 -17.55 23.1 Q-19.85 26.55 -22.0 31.5 L-22.35 32.45 Q-21.85 32.6 -21.55 34.05 L-7.3 34.1 17.6 34.15 21.8 34.2 21.75 33.8 21.95 33.0 21.45 31.6 Q19.2 26.55 16.85 23.1 L16.8 23.05 14.7 23.1 14.7 23.15 14.55 23.15 14.5 23.15 14.55 23.3 14.05 23.3 6.15 23.2 -0.3 23.2 -5.7 23.2 -6.8 23.2 -15.15 23.3 -15.15 23.15 -15.35 23.15 M17.65 34.35 L-21.5 34.25 Q-22.5 34.3 -23.2 34.8 L-23.2 34.85 -24.1 37.45 -25.95 42.45 -27.55 46.7 -27.7 47.15 -25.6 46.95 -8.9 47.05 21.0 47.25 26.5 47.25 26.55 46.7 26.5 46.25 26.3 45.6 26.45 45.6 25.35 42.45 23.55 37.45 22.95 35.8 22.1 34.9 21.85 34.35 17.65 34.35 M16.4 48.15 L16.2 48.15 9.5 48.2 -27.85 48.3 -28.15 48.2 -28.45 48.5 -28.6 48.8 -29.2 49.85 -28.95 48.7 -29.05 48.75 -29.75 50.8 -30.25 52.15 -30.55 53.85 -30.6 53.85 -30.7 55.85 -30.85 57.0 Q-31.35 60.75 -30.45 65.4 L-29.65 65.7 -8.05 65.7 20.1 65.7 25.2 65.7 28.7 65.7 29.65 65.6 30.0 65.4 Q30.85 60.75 30.35 57.0 L30.25 55.85 30.1 53.85 29.8 52.15 29.0 49.9 28.7 49.2 28.55 48.8 28.55 48.75 28.45 48.7 28.5 48.85 27.9 48.9 Q27.0 48.3 25.75 48.35 L25.0 48.35 25.0 48.45 24.75 48.5 22.35 48.3 22.35 48.25 21.0 48.2 19.15 48.2 18.35 48.2 18.05 48.2 17.0 48.2 16.45 48.15 16.4 48.15 M6.05 20.45 L6.1 20.75 6.2 20.5 6.2 20.45 6.05 20.2 6.05 20.4 6.05 20.45" fill="#030303" fill-rule="evenodd" stroke="none"/>
      <path d="M-22.9 -170.2 L-13.35 -247.3 -12.95 -250.3 -12.0 -258.0 -11.8 -259.5 -11.65 -260.85 -2.15 -337.0 -2.0 -337.4 -1.75 -337.9 -1.45 -339.15 -1.35 -339.55 Q-0.8 -341.4 0.05 -342.45 L0.05 -342.7 0.2 -342.6 0.2 -342.65 0.45 -342.5 0.45 -342.45 1.15 -341.85 1.95 -340.1 1.85 -339.75 1.8 -339.6 2.1 -338.95 2.2 -338.6 2.35 -338.3 2.35 -338.2 2.4 -337.8 2.55 -336.7 23.0 -172.25 23.0 -172.15 23.2 -170.8 23.25 -170.2 22.1 -170.2 22.15 -169.75 Q22.05 -169.55 21.0 -169.45 L4.7 -300.95 4.05 -306.55 3.95 -306.9 0.8 -332.5 0.8 -332.55 0.15 -337.7 0.15 -337.4 0.1 -337.2 0.05 -336.75 0.05 -336.7 -2.15 -318.65 -2.2 -318.65 -2.2 -318.55 -2.75 -313.95 Q-2.95 -311.15 -3.4 -308.9 L-3.65 -306.9 Q-4.2 -304.2 -4.4 -300.95 L-7.1 -279.25 -18.1 -190.25 -18.1 -190.2 -19.95 -174.85 -19.95 -174.8 -20.65 -169.4 -20.7 -169.4 Q-22.45 -169.5 -22.6 -169.75 L-22.55 -170.2 -22.9 -170.2 M9.75 -129.1 L8.7 -128.5 8.95 -128.9 9.0 -128.95 9.1 -129.1 9.75 -129.1 M-10.35 20.45 L-10.6 20.45 -9.3 17.6 -7.95 14.2 Q-7.0 11.3 -6.35 8.2 L-6.35 8.85 Q-7.45 13.9 -9.4 18.35 L-10.35 20.45 M-10.0 -128.6 L-10.1 -128.65 -10.5 -128.9 -11.05 -129.2 -10.25 -129.2 -10.15 -128.95 -10.15 -128.9 -10.0 -128.6 M6.2 20.45 L6.1 20.45 6.05 20.45 6.05 20.4 6.05 20.2 6.2 20.45" fill="#000000" fill-rule="evenodd" stroke="none"/>
      <path d="M18.75 -161.6 L18.6 -162.25 17.85 -166.4 17.7 -167.2 17.5 -168.2 20.4 -168.2 21.15 -168.05 Q22.3 -167.7 23.05 -166.4 L23.7 -164.65 Q24.15 -162.75 24.8 -162.0 L24.4 -161.9 19.95 -161.6 18.9 -161.6 18.75 -161.6 M25.05 -143.5 L34.1 -143.5 34.1 -142.25 33.95 -141.5 32.8 -138.5 32.65 -138.2 29.9 -133.7 28.2 -131.4 27.95 -131.35 19.2 -131.35 19.85 -132.35 20.35 -133.2 21.5 -135.55 22.8 -138.2 23.0 -138.6 23.15 -138.95 23.4 -139.55 24.5 -142.1 24.95 -143.15 25.0 -143.3 25.05 -143.5 M2.1 -79.05 L2.55 -79.05 3.15 -79.0 3.4 -79.0 3.5 -79.0 3.55 -79.0 3.65 -79.0 4.15 -78.95 5.55 -78.85 5.65 -78.85 5.75 -78.85 5.8 -78.85 6.4 -78.0 6.7 -77.5 7.3 -76.3 7.3 -73.25 7.3 -70.65 7.2 -70.5 7.2 -35.15 7.3 -35.0 7.3 -32.4 7.3 -29.35 7.3 -29.3 7.25 -29.2 7.25 -29.25 7.2 -29.1 6.9 -28.55 6.7 -28.1 6.4 -27.65 6.25 -27.35 6.2 -27.2 6.05 -27.05 5.8 -26.8 5.75 -26.8 5.65 -26.8 5.05 -26.75 4.35 -26.7 4.2 -26.7 3.5 -26.65 3.4 -26.65 Q4.3 -30.6 4.3 -34.0 L4.0 -36.35 Q3.75 -38.15 3.8 -39.15 L3.8 -75.85 2.1 -79.05 M14.2 23.7 L14.05 23.35 14.05 23.3 14.55 23.3 14.75 23.3 14.7 23.15 14.7 23.1 16.8 23.05 16.85 23.1 Q19.2 26.55 21.45 31.6 L21.95 33.0 21.75 33.8 21.8 34.2 17.6 34.15 14.2 23.7 M17.7 34.45 L17.65 34.35 21.85 34.35 22.1 34.9 22.95 35.8 23.55 37.45 25.35 42.45 26.45 45.6 26.3 45.6 26.5 46.25 26.55 46.7 26.5 47.25 21.0 47.25 20.9 46.7 20.05 42.45 19.8 41.35 17.7 34.45" fill="#f74940" fill-rule="evenodd" stroke="none"/>
      <path d="M0.05 -336.7 L0.05 -336.75 0.1 -337.2 0.15 -337.4 0.15 -337.7 0.8 -332.55 0.8 -332.5 3.95 -306.9 4.05 -306.55 4.7 -300.95 21.0 -169.45 20.25 -169.4 13.75 -169.2 Q15.2 -171.6 15.2 -175.0 15.2 -180.3 13.9 -184.75 L12.35 -189.35 12.35 -203.7 12.15 -207.75 11.8 -212.45 11.05 -220.0 10.9 -221.3 9.5 -230.7 9.45 -230.9 7.7 -238.8 6.45 -249.85 6.5 -253.2 Q7.05 -258.3 7.05 -262.05 7.05 -264.15 6.3 -269.15 L6.1 -270.3 6.05 -270.6 5.95 -271.35 5.7 -272.6 Q4.95 -282.05 3.55 -291.1 L3.35 -292.4 3.35 -292.6 2.0 -300.1 2.0 -308.55 0.75 -327.85 0.65 -329.2 0.45 -331.7 0.05 -336.7 M27.4 -144.2 L27.6 -145.9 Q27.6 -153.75 25.6 -160.65 L26.0 -160.65 26.25 -160.05 26.4 -159.5 28.2 -153.1 Q30.2 -146.45 31.15 -145.75 L31.35 -145.7 Q32.2 -145.7 32.35 -146.4 L32.3 -147.2 Q32.3 -148.75 30.5 -154.85 L30.35 -155.35 30.35 -155.6 29.1 -160.55 31.1 -160.45 31.1 -160.25 31.1 -160.2 31.5 -160.25 Q32.7 -157.0 33.9 -152.45 L34.35 -150.9 35.6 -146.3 36.3 -146.0 36.85 -146.05 Q37.05 -146.1 37.05 -146.55 L36.95 -147.1 Q36.85 -149.0 34.55 -156.35 L33.2 -160.2 33.35 -160.15 35.0 -157.05 Q35.4 -155.35 36.5 -152.65 38.0 -149.1 38.2 -144.5 37.9 -144.3 37.25 -144.2 L27.4 -144.2 M-0.4 -80.1 L-1.1 -80.1 -1.2 -80.1 -1.5 -80.1 -2.3 -80.2 -3.45 -80.65 -3.5 -80.7 -3.6 -80.9 -3.6 -81.05 -4.0 -81.05 -4.0 -82.75 -3.95 -84.65 -4.0 -85.95 -4.0 -100.2 -4.05 -115.05 -4.1 -116.35 -4.45 -117.85 -5.0 -120.35 -6.0 -124.85 -6.9 -127.05 -7.0 -127.35 -6.4 -127.1 Q-3.15 -125.7 -0.25 -124.85 L1.75 -124.3 Q0.55 -121.85 0.3 -117.85 L0.3 -117.75 Q0.0 -112.7 -0.35 -111.25 L-0.4 -80.1 M2.6 22.65 L-7.5 22.65 -8.05 22.45 -8.3 21.7 -8.05 21.1 -7.8 20.45 -6.35 16.7 -6.0 15.85 -4.1 7.4 -4.1 7.3 -4.1 6.75 -4.0 -3.95 -4.0 -9.0 -4.0 -9.45 -4.1 -9.45 -4.1 -18.85 -4.0 -19.2 -3.95 -20.5 -3.95 -20.7 -4.1 -23.0 -4.1 -23.4 -4.15 -23.4 -4.3 -24.6 -4.2 -24.6 -4.15 -24.6 -4.05 -24.6 -4.0 -24.6 -3.9 -24.6 -3.7 -25.0 Q-3.4 -25.3 -2.7 -25.45 L-2.05 -25.5 -1.8 -25.5 -1.7 -25.5 -1.3 -25.45 -1.25 -25.45 -1.2 -25.45 -0.25 -25.6 -0.1 -25.6 -0.2 -10.15 Q-0.2 4.65 0.75 12.05 1.35 16.65 2.1 20.45 L2.6 22.65 M21.0 48.2 L22.35 48.25 22.35 48.3 24.75 48.5 25.0 48.45 25.0 48.35 25.75 48.35 Q27.0 48.3 27.9 48.9 L28.5 48.85 28.45 48.7 28.55 48.75 28.55 48.8 28.7 49.2 29.0 49.9 29.8 52.15 30.1 53.85 30.25 55.85 30.35 57.0 Q30.85 60.75 30.0 65.4 L29.65 65.6 28.7 65.7 25.2 65.7 23.15 65.5 21.15 65.5 21.25 65.25 Q21.95 63.5 22.15 61.35 22.55 57.75 22.3 53.85 L22.35 53.85 21.95 51.75 21.0 48.2 M25.0 61.65 L25.0 61.5 24.95 60.65 24.9 61.1 24.9 61.15 25.0 61.65" fill="#e0f0f1" fill-rule="evenodd" stroke="none"/>
      <path d="M-7.3 -169.05 L-7.65 -169.85 Q-9.45 -173.95 -9.45 -180.55 L-9.45 -181.35 Q-9.45 -186.9 -8.2 -194.15 L-8.05 -195.25 -8.05 -207.95 -8.4 -212.45 Q-8.45 -215.05 -8.1 -217.65 L-8.15 -220.45 -7.7 -224.0 -7.3 -227.6 -7.4 -230.7 -7.6 -233.85 -7.7 -234.95 -7.75 -235.5 -7.8 -236.6 Q-7.35 -240.55 -6.15 -244.8 L-6.05 -245.8 Q-6.5 -248.75 -6.05 -250.7 L-5.85 -251.5 -5.7 -252.45 -5.45 -254.05 Q-4.3 -261.3 -2.9 -265.95 L-2.35 -275.6 -2.7 -279.5 -2.35 -282.9 -2.0 -285.25 -1.6 -287.8 -0.75 -292.25 -1.3 -296.7 -1.2 -301.95 -1.15 -302.6 -0.95 -310.8 Q-0.1 -320.35 0.25 -326.75 L0.35 -328.65 0.45 -331.7 0.65 -329.2 0.75 -327.85 2.0 -308.55 2.0 -300.1 3.35 -292.6 3.35 -292.4 3.55 -291.1 Q4.95 -282.05 5.7 -272.6 L5.95 -271.35 6.05 -270.6 6.1 -270.3 6.3 -269.15 Q7.05 -264.15 7.05 -262.05 7.05 -258.3 6.5 -253.2 L6.45 -249.85 7.7 -238.8 9.45 -230.9 9.5 -230.7 10.9 -221.3 11.05 -220.0 11.8 -212.45 12.15 -207.75 12.35 -203.7 12.35 -189.35 13.9 -184.75 Q15.2 -180.3 15.2 -175.0 15.2 -171.6 13.75 -169.2 L-0.2 -168.9 -7.3 -169.05" fill="url(#gradient2)" fill-rule="evenodd" stroke="none"/>
      <path d="M-20.65 -169.4 L-19.95 -174.8 -19.95 -174.85 -18.1 -190.2 -18.1 -190.25 -7.1 -279.25 -4.4 -300.95 Q-4.2 -304.2 -3.65 -306.9 L-3.4 -308.9 Q-2.95 -311.15 -2.75 -313.95 L-2.2 -318.55 -2.2 -318.65 -2.15 -318.65 0.05 -336.7 0.45 -331.7 0.35 -328.65 0.25 -326.75 Q-0.1 -320.35 -0.95 -310.8 L-1.15 -302.6 -1.2 -301.95 -1.3 -296.7 -0.75 -292.25 -1.6 -287.8 -2.0 -285.25 -2.35 -282.9 -2.7 -279.5 -2.35 -275.6 -2.9 -265.95 Q-4.3 -261.3 -5.45 -254.05 L-5.7 -252.45 -5.85 -251.5 -6.05 -250.7 Q-6.5 -248.75 -6.05 -245.8 L-6.15 -244.8 Q-7.35 -240.55 -7.8 -236.6 L-7.75 -235.5 -7.7 -234.95 -7.6 -233.85 -7.4 -230.7 -7.3 -227.6 -7.7 -224.0 -8.15 -220.45 -8.1 -217.65 Q-8.45 -215.05 -8.4 -212.45 L-8.05 -207.95 -8.05 -195.25 -8.2 -194.15 Q-9.45 -186.9 -9.45 -181.35 L-9.45 -180.55 Q-9.45 -173.95 -7.65 -169.85 L-7.3 -169.05 -20.65 -169.4" fill="url(#gradient3)" fill-rule="evenodd" stroke="none"/>
      <path d="M6.1 20.45 L6.05 20.45 6.1 20.45" fill="#21394d" fill-rule="evenodd" stroke="none"/>
      <path d="M17.5 -168.2 L17.7 -167.2 17.85 -166.4 18.6 -162.25 18.75 -161.6 -12.65 -161.6 -11.25 -166.4 -11.15 -166.8 -9.5 -167.0 0.85 -167.1 1.4 -167.2 7.4 -168.05 9.9 -168.2 17.5 -168.2 M19.2 -131.35 L14.1 -131.35 13.7 -131.35 -6.0 -131.35 -11.85 -131.35 -12.0 -131.9 -13.45 -137.35 -13.65 -138.2 -13.7 -138.55 -13.8 -138.95 -13.9 -139.55 -14.2 -141.4 -14.3 -142.0 -14.35 -142.3 -14.15 -142.3 -13.1 -142.45 -12.9 -142.6 0.5 -142.8 3.75 -143.0 8.1 -143.3 10.65 -143.5 25.05 -143.5 25.0 -143.3 24.95 -143.15 24.5 -142.1 23.4 -139.55 23.15 -138.95 23.0 -138.6 22.8 -138.2 21.5 -135.55 20.35 -133.2 19.85 -132.35 19.2 -131.35 M-7.3 34.1 L-6.0 24.85 -3.25 24.15 7.15 23.7 14.2 23.7 17.6 34.15 -7.3 34.1 M-8.9 47.05 L-8.85 46.7 -8.35 42.45 -7.5 35.5 15.6 34.7 17.7 34.45 19.8 41.35 20.05 42.45 20.9 46.7 21.0 47.25 -8.9 47.05" fill="url(#gradient4)" fill-rule="evenodd" stroke="none"/>
      <path d="M-0.9 -145.9 L-1.0 -145.9 -0.9 -145.8 Q-0.25 -145.0 0.85 -145.0 4.1 -145.0 5.35 -155.5 L5.7 -159.75 10.8 -159.75 14.85 -160.25 Q14.85 -159.7 15.2 -158.1 16.75 -153.1 16.8 -151.35 L17.4 -148.45 Q18.2 -146.5 19.1 -145.85 L19.25 -145.9 19.4 -145.85 Q20.9 -145.85 21.15 -147.05 L21.2 -147.9 21.15 -148.8 21.15 -148.9 21.45 -150.35 21.65 -153.75 21.4 -157.85 21.15 -160.7 25.6 -160.65 Q27.6 -153.75 27.6 -145.9 L27.4 -144.2 -13.95 -144.2 -13.75 -145.5 Q-13.0 -150.75 -12.1 -159.95 L-4.95 -159.75 -3.75 -159.75 -3.55 -154.45 -3.6 -153.35 -3.5 -150.35 -3.3 -149.45 -3.2 -148.4 Q-2.8 -146.25 -0.9 -145.9 M-8.05 65.7 L-8.05 64.95 -8.15 58.85 -8.05 53.85 -7.85 51.95 Q-7.2 50.4 -6.4 49.9 -5.1 49.05 4.55 48.65 L16.0 48.2 16.4 48.15 16.45 48.15 17.0 48.2 17.7 48.3 18.0 48.3 18.35 48.3 18.35 48.2 19.15 48.2 21.0 48.2 21.95 51.75 22.35 53.85 22.3 53.85 Q22.55 57.75 22.15 61.35 21.95 63.5 21.25 65.25 L21.15 65.5 20.2 65.5 20.1 65.7 -8.05 65.7" fill="url(#gradient5)" fill-rule="evenodd" stroke="none"/>
      <path d="M3.0 -97.0 L3.05 -92.7 3.05 -81.85 3.1 -81.75 3.45 -81.05 3.1 -81.05 2.55 -84.8 2.85 -92.7 3.0 -97.0" fill="#445460" fill-rule="evenodd" stroke="none"/>
      <path d="M17.0 48.2 L18.05 48.2 18.35 48.2 18.35 48.3 18.0 48.3 17.7 48.3 17.0 48.2 M25.2 65.7 L20.1 65.7 20.2 65.5 21.15 65.5 23.15 65.5 25.2 65.7" fill="url(#gradient6)" fill-rule="evenodd" stroke="none"/>
      <path d="M9.25 66.3 L9.25 66.35 7.75 66.35 7.75 66.3 9.25 66.3" fill="url(#gradient7)" fill-rule="evenodd" stroke="none"/>
      <path d="M-7.0 -127.35 L-7.65 -128.9 -7.65 -128.95 -7.75 -129.15 -7.15 -129.15 -7.35 -129.9 -6.5 -130.4 3.9 -130.4 Q4.95 -130.05 5.25 -129.55 L5.05 -129.1 5.7 -129.1 5.65 -128.95 5.6 -128.9 4.7 -126.05 4.3 -123.2 4.15 -121.9 3.9 -120.35 3.6 -117.85 3.2 -115.2 3.15 -115.05 3.1 -114.45 3.1 -114.15 3.1 -113.4 3.05 -110.7 3.0 -100.2 3.0 -97.0 2.85 -92.7 2.55 -84.8 3.1 -81.05 2.55 -81.05 2.5 -81.05 2.45 -80.65 2.1 -80.25 1.65 -80.15 1.55 -80.15 -0.1 -80.1 -0.2 -80.1 -0.4 -80.1 -0.35 -111.25 Q0.0 -112.7 0.3 -117.75 L0.3 -117.85 Q0.55 -121.85 1.75 -124.3 L-0.25 -124.85 Q-3.15 -125.7 -6.4 -127.1 L-7.0 -127.35 M0.1 -25.6 L1.0 -25.5 Q2.55 -25.2 3.15 -24.75 L3.2 -24.75 3.15 -23.05 3.1 -23.0 3.1 -16.05 3.1 -14.9 3.1 -11.25 3.1 -9.45 3.0 -9.45 3.0 -9.0 3.0 -3.95 3.1 5.4 3.15 5.55 4.3 14.25 4.7 17.05 5.35 19.2 5.75 20.45 5.95 21.05 6.0 21.1 5.95 21.1 6.1 21.6 5.35 22.35 3.25 22.65 2.6 22.65 2.1 20.45 Q1.35 16.65 0.75 12.05 -0.2 4.65 -0.2 -10.15 L-0.1 -25.6 0.0 -25.6 0.1 -25.6 M-29.4 -160.45 L-29.7 -159.4 -30.4 -157.1 -30.45 -156.9 -30.45 -156.8 -30.7 -155.65 -30.95 -154.85 Q-32.75 -148.75 -32.75 -147.2 L-32.8 -146.4 -32.8 -146.35 -32.75 -146.3 -32.75 -146.2 -33.0 -146.2 -33.9 -146.4 -34.1 -148.15 Q-34.1 -150.0 -32.4 -154.65 -30.7 -159.35 -29.4 -160.45 M-21.45 -160.7 L-20.25 -160.7 -21.05 -154.9 Q-21.6 -150.85 -21.6 -148.8 L-21.65 -147.9 -21.6 -147.05 -21.5 -146.75 -21.2 -146.3 -20.7 -146.0 -20.75 -146.0 -21.5 -145.9 Q-23.2 -145.9 -23.75 -149.4 -23.75 -151.35 -22.3 -157.4 L-21.45 -160.7" fill="#95bace" fill-rule="evenodd" stroke="none"/>
      <path d="M14.85 -160.25 L10.8 -159.75 5.7 -159.75 5.35 -155.5 Q4.1 -145.0 0.85 -145.0 -0.25 -145.0 -0.9 -145.8 L-1.0 -145.9 -0.9 -145.9 -0.6 -145.85 -0.15 -145.85 Q2.3 -145.85 3.05 -149.75 3.35 -151.25 3.35 -154.4 3.5 -156.35 3.3 -157.3 L3.35 -159.75 3.3 -160.8 14.85 -160.7 14.85 -160.25 M-3.75 -159.75 L-4.95 -159.75 -12.1 -159.95 Q-13.0 -150.75 -13.75 -145.5 L-13.95 -144.2 -37.7 -144.2 -38.65 -144.5 Q-38.45 -149.1 -36.95 -152.65 -35.85 -155.35 -35.45 -157.05 L-33.8 -160.15 -33.65 -160.2 -35.0 -156.35 Q-37.3 -149.0 -37.4 -147.1 L-37.5 -146.55 -37.3 -146.05 -36.75 -146.0 -36.05 -146.3 Q-35.6 -148.75 -33.5 -154.55 L-31.55 -160.25 -31.55 -160.45 -29.35 -160.6 -29.4 -160.45 Q-30.7 -159.35 -32.4 -154.65 -34.1 -150.0 -34.1 -148.15 L-33.9 -146.4 -33.0 -146.2 -32.75 -146.2 -32.75 -146.3 Q-32.6 -145.7 -31.8 -145.7 -30.9 -145.7 -28.65 -153.1 L-26.85 -159.5 -26.7 -160.05 -26.45 -160.65 -21.45 -160.7 -22.3 -157.4 Q-23.75 -151.35 -23.75 -149.4 -23.2 -145.9 -21.5 -145.9 L-20.75 -146.0 -19.85 -145.85 -19.7 -145.9 -19.55 -145.85 Q-18.65 -146.5 -17.85 -148.45 L-17.25 -151.35 Q-17.2 -153.1 -15.65 -158.1 -15.3 -159.7 -15.3 -160.25 L-15.3 -160.7 -3.75 -160.8 -3.75 -159.75 M21.15 -160.7 L21.4 -157.85 21.65 -153.75 21.45 -150.35 21.15 -148.9 Q21.15 -150.95 20.6 -154.9 L19.8 -160.7 21.0 -160.7 21.15 -160.7 M-8.05 65.7 L-29.65 65.7 -30.45 65.4 Q-31.35 60.75 -30.85 57.0 L-30.7 55.85 -30.6 53.85 -30.55 53.85 -30.25 52.15 -29.75 50.8 -29.05 48.75 -28.95 48.7 -29.2 49.85 -28.6 48.8 -28.45 48.5 -28.15 48.2 -27.85 48.3 9.5 48.2 16.2 48.15 16.4 48.15 16.0 48.2 4.55 48.65 Q-5.1 49.05 -6.4 49.9 -7.2 50.4 -7.85 51.95 L-8.05 53.85 -8.15 58.85 -8.05 64.95 -8.05 65.7 M-25.4 60.85 L-25.4 61.5 -25.35 61.65 -25.3 61.15 -25.35 61.1 -25.4 60.85" fill="url(#gradient8)" fill-rule="evenodd" stroke="none"/>
      <path d="M3.4 -26.65 L2.75 -26.6 2.65 -26.6 2.3 -26.55 1.15 -26.5 0.1 -26.45 0.05 -26.45 -0.6 -26.45 -1.95 -26.45 -3.7 -26.6 -3.8 -26.6 -3.9 -26.6 -4.0 -26.6 -4.0 -71.8 Q-4.35 -73.7 -3.5 -76.15 L-2.6 -78.6 -2.6 -79.05 -1.95 -79.1 -1.75 -79.15 -1.7 -79.15 -1.45 -79.15 -1.4 -79.15 -0.75 -79.2 -0.6 -79.2 0.1 -79.15 0.45 -79.15 2.1 -79.05 3.8 -75.85 3.8 -39.15 Q3.75 -38.15 4.0 -36.35 L4.3 -34.0 Q4.3 -30.6 3.4 -26.65" fill="url(#gradient9)" fill-rule="evenodd" stroke="none"/>
      <path d="M-4.0 -26.6 L-4.45 -26.65 -6.15 -26.75 -6.25 -26.75 -6.85 -26.8 -6.9 -26.8 -7.5 -27.65 -7.55 -27.7 -7.55 -27.75 -7.65 -27.9 -7.9 -28.25 -8.35 -29.05 -8.35 -29.1 -8.5 -29.85 -8.5 -32.4 -8.5 -35.0 -8.35 -35.15 -8.35 -70.5 -8.4 -70.55 -8.3 -71.9 -8.4 -72.9 -8.25 -74.95 -8.25 -75.05 -7.8 -77.5 -7.5 -78.0 -7.4 -78.15 -7.2 -78.45 -7.0 -78.75 -6.9 -78.85 -6.85 -78.85 -6.25 -78.9 -6.15 -78.9 -6.05 -78.9 -4.3 -79.0 -3.75 -79.05 -3.7 -79.05 -3.15 -79.05 -3.05 -79.05 -2.95 -79.05 -2.6 -79.05 -2.6 -78.6 -3.5 -76.15 Q-4.35 -73.7 -4.0 -71.8 L-4.0 -26.6" fill="url(#gradient10)" fill-rule="evenodd" stroke="none"/>
      <path d="M9.9 -168.2 L7.4 -168.05 1.4 -167.2 0.85 -167.1 -9.5 -167.0 -11.15 -166.8 -11.25 -166.4 -12.65 -161.6 -19.35 -161.6 -20.35 -161.6 -24.85 -161.9 -25.25 -162.0 Q-24.6 -162.75 -24.15 -164.65 -23.85 -165.8 -23.35 -166.55 -22.45 -168.05 -20.85 -168.2 L9.9 -168.2 M-11.85 -131.35 L-28.4 -131.35 -28.65 -131.4 -30.3 -133.7 -33.05 -138.2 -33.2 -138.5 -34.35 -141.5 -34.5 -142.25 -34.5 -143.5 10.65 -143.5 8.1 -143.3 3.75 -143.0 0.5 -142.8 -12.9 -142.6 -13.1 -142.45 -14.15 -142.3 -14.35 -142.3 -14.3 -142.0 -14.2 -141.4 -13.9 -139.55 -13.8 -138.95 -13.7 -138.55 -13.65 -138.2 -13.45 -137.35 -12.0 -131.9 -11.85 -131.35 M-15.35 23.15 L-15.35 23.3 -15.15 23.3 -6.8 23.2 -5.7 23.2 -0.3 23.2 6.15 23.2 14.05 23.3 14.05 23.35 14.2 23.7 7.15 23.7 -3.25 24.15 -6.0 24.85 -7.3 34.1 -21.55 34.05 Q-21.85 32.6 -22.35 32.45 L-22.0 31.5 Q-19.85 26.55 -17.55 23.1 L-15.35 23.1 -15.35 23.15 M-8.9 47.05 L-25.6 46.95 -27.7 47.15 -27.55 46.7 -25.95 42.45 -24.1 37.45 -23.2 34.85 -23.2 34.8 Q-22.5 34.3 -21.5 34.25 L17.65 34.35 17.7 34.45 15.6 34.7 -7.5 35.5 -8.35 42.45 -8.85 46.7 -8.9 47.05" fill="url(#gradient11)" fill-rule="evenodd" stroke="none"/>
      <path d="M1.65 -49.8 Q4.6 -45.25 7.25 -42.3 L3.5 -38.6 2.15 -37.1 Q-0.5 -35.1 -0.8 -33.85 -1.9 -32.75 -1.8 -32.35 L-1.6 -31.55 -1.6 -29.0 -1.6 -28.85 -1.65 -28.35 -1.75 -26.55 -1.4 -26.55 -1.35 -26.05 Q-1.35 -25.65 -1.5 -25.5 L-1.8 -25.3 -2.4 -25.3 -2.4 -26.2 -2.85 -26.1 -3.7 -26.1 -3.7 -25.3 -5.85 -25.3 -6.4 -25.35 -6.5 -25.45 -6.65 -25.9 -6.15 -26.55 -6.15 -26.75 -6.15 -34.4 -5.65 -34.9 -1.75 -38.3 1.75 -41.25 1.75 -41.45 2.0 -41.9 Q2.3 -42.05 2.3 -42.35 L1.95 -43.15 Q1.75 -43.35 1.7 -43.65 L-2.1 -47.8 -6.15 -53.0 -6.15 -57.9 -6.25 -58.25 -6.25 -79.65 -6.7 -80.0 -6.8 -80.25 -6.5 -80.7 -4.05 -80.75 -3.85 -80.55 -3.85 -80.4 -2.55 -80.4 -2.55 -80.55 -2.3 -80.45 -2.0 -80.4 -2.0 -80.35 -1.35 -80.3 -0.7 -80.35 -0.9 -79.9 Q-1.2 -79.6 -2.05 -79.65 L-2.0 -76.8 -1.95 -72.85 -1.7 -64.9 -1.75 -62.5 -1.55 -61.65 -1.6 -58.5 Q-1.6 -55.85 -1.2 -53.7 -0.8 -52.55 -0.05 -51.65 L1.45 -50.0 1.65 -49.8 M6.3 -41.9 L6.6 -42.35 6.25 -43.15 Q6.05 -43.35 6.0 -43.65 4.5 -45.05 2.25 -47.9 L-2.25 -53.65 -2.25 -59.5 -2.3 -59.95 -2.3 -79.65 -2.55 -79.65 -2.55 -79.9 -3.85 -79.85 -3.85 -79.65 -5.55 -79.65 -5.7 -60.65 -5.55 -59.95 -5.55 -57.05 -5.35 -53.7 Q-5.05 -52.3 -4.2 -51.25 L-2.8 -49.75 -2.55 -49.55 Q0.35 -45.25 2.95 -42.3 L-0.85 -38.85 -2.2 -37.5 Q-4.55 -35.8 -4.85 -34.7 L-5.8 -33.4 -5.55 -32.65 -5.55 -26.7 -4.85 -26.75 -4.3 -26.7 -2.85 -26.7 -2.4 -26.6 -2.25 -26.6 -2.25 -33.35 -1.7 -33.95 Q-0.35 -35.55 2.55 -38.0 L6.05 -41.2 6.05 -41.4 Q6.05 -41.8 6.3 -41.9" fill="#000000" fill-rule="evenodd" stroke="none"/>
      <path d="M6.3 -41.9 Q6.05 -41.8 6.05 -41.4 L6.05 -41.2 2.55 -38.0 Q-0.35 -35.55 -1.7 -33.95 L-2.25 -33.35 -2.25 -26.6 -2.4 -26.6 -2.85 -26.7 -4.3 -26.7 -4.85 -26.75 -5.55 -26.7 -5.55 -32.65 -5.8 -33.4 -4.85 -34.7 Q-4.55 -35.8 -2.2 -37.5 L-0.85 -38.85 2.95 -42.3 Q0.35 -45.25 -2.55 -49.55 L-2.8 -49.75 -4.2 -51.25 Q-5.05 -52.3 -5.35 -53.7 L-5.55 -57.05 -5.55 -59.95 -5.7 -60.65 -5.55 -79.65 -3.85 -79.65 -3.85 -79.85 -2.55 -79.9 -2.55 -79.65 -2.3 -79.65 -2.3 -59.95 -2.25 -59.5 -2.25 -53.65 2.25 -47.9 Q4.5 -45.05 6.0 -43.65 6.05 -43.35 6.25 -43.15 L6.6 -42.35 6.3 -41.9" fill="#33ffff" fill-rule="evenodd" stroke="none"/>
    </g>
    <linearGradient gradientTransform="matrix(0.0123, -1.0E-4, 0.0, -0.0069, -1.35, -230.9)" gradientUnits="userSpaceOnUse" id="gradient2" spreadMethod="pad" x1="-819.2" x2="819.2">
      <stop offset="0.0" stop-color="#e0f0f1"/>
      <stop offset="1.0" stop-color="#95bace"/>
    </linearGradient>
    <linearGradient gradientTransform="matrix(0.0034, 3.0E-4, 0.0933, -0.9897, -5.35, -281.95)" gradientUnits="userSpaceOnUse" id="gradient3" spreadMethod="pad" x1="-819.2" x2="819.2">
      <stop offset="0.0" stop-color="#e0f0f1"/>
      <stop offset="1.0" stop-color="#ffffff"/>
    </linearGradient>
    <linearGradient gradientTransform="matrix(-0.0083, 4.0E-4, -8.0E-4, -0.018, 4.4, 79.85)" gradientUnits="userSpaceOnUse" id="gradient4" spreadMethod="pad" x1="-819.2" x2="819.2">
      <stop offset="0.0" stop-color="#b90230"/>
      <stop offset="1.0" stop-color="#f74940"/>
    </linearGradient>
    <linearGradient gradientTransform="matrix(0.0123, -1.0E-4, 0.0, -0.0072, -1.35, 67.95)" gradientUnits="userSpaceOnUse" id="gradient5" spreadMethod="pad" x1="-819.2" x2="819.2">
      <stop offset="0.0" stop-color="#e0f0f1"/>
      <stop offset="1.0" stop-color="#95bace"/>
    </linearGradient>
    <linearGradient gradientTransform="matrix(-0.0325, 1.0E-4, -0.0056, -1.0517, -3.9, -147.1)" gradientUnits="userSpaceOnUse" id="gradient6" spreadMethod="pad" x1="-819.2" x2="819.2">
      <stop offset="0.0" stop-color="#c2d2e0"/>
      <stop offset="1.0" stop-color="#ffffff"/>
    </linearGradient>
    <linearGradient gradientTransform="matrix(-0.0331, -1.0E-4, -0.0057, 1.0143, -3.95, 253.4)" gradientUnits="userSpaceOnUse" id="gradient7" spreadMethod="pad" x1="-819.2" x2="819.2">
      <stop offset="0.0" stop-color="#c2d2e0"/>
      <stop offset="1.0" stop-color="#ffffff"/>
    </linearGradient>
    <linearGradient gradientTransform="matrix(0.0079, 0.0, -0.0102, -1.0318, -18.9, -41.1)" gradientUnits="userSpaceOnUse" id="gradient8" spreadMethod="pad" x1="-819.2" x2="819.2">
      <stop offset="0.0" stop-color="#e0f0f1"/>
      <stop offset="1.0" stop-color="#ffffff"/>
    </linearGradient>
    <linearGradient gradientTransform="matrix(-0.0082, 4.0E-4, -8.0E-4, -0.018, 4.45, 79.85)" gradientUnits="userSpaceOnUse" id="gradient9" spreadMethod="pad" x1="-819.2" x2="819.2">
      <stop offset="0.0" stop-color="#b90230"/>
      <stop offset="1.0" stop-color="#f74940"/>
    </linearGradient>
    <linearGradient gradientTransform="matrix(0.0134, 6.0E-4, -6.0E-4, 0.0141, -20.9, 91.25)" gradientUnits="userSpaceOnUse" id="gradient10" spreadMethod="pad" x1="-819.2" x2="819.2">
      <stop offset="0.0" stop-color="#f74940"/>
      <stop offset="1.0" stop-color="#ffab93"/>
    </linearGradient>
    <linearGradient gradientTransform="matrix(0.007, 0.0, 0.0, 0.0141, -19.35, 90.85)" gradientUnits="userSpaceOnUse" id="gradient11" spreadMethod="pad" x1="-819.2" x2="819.2">
      <stop offset="0.0" stop-color="#f74940"/>
      <stop offset="1.0" stop-color="#ffab93"/>
    </linearGradient>
  </defs>
</svg>
