<?xml version="1.0" encoding="UTF-8" standalone="no"?>
<svg xmlns:xlink="http://www.w3.org/1999/xlink" height="83.6px" width="72.65px" xmlns="http://www.w3.org/2000/svg">
  <g transform="matrix(1, 0, 0, 1, -0.9, 13.25)">
    <use height="33.8" transform="matrix(1.0, 0.0, 0.0, 1.0, 12.35, 21.3)" width="38.3" xlink:href="#sprite0"/>
  </g>
  <defs>
    <g id="sprite0" transform="matrix(1, 0, 0, 1, 2.2, 0.6)">
      <use height="33.8" transform="matrix(1.0, 0.0, 0.0, 1.0, -2.2, -0.6)" width="38.3" xlink:href="#shape0"/>
    </g>
    <g id="shape0" transform="matrix(1, 0, 0, 1, 2.2, 0.6)">
      <path d="M24.05 0.5 L29.8 5.35 35.6 0.0 M0.0 32.7 L29.8 5.35 33.4 8.35" fill="none" stroke="#000000" stroke-linecap="round" stroke-linejoin="round" stroke-width="1.0"/>
      <path d="M33.9 32.6 L4.1 5.25 0.5 8.25 M-1.7 -0.1 L4.1 5.25 9.85 0.4" fill="none" stroke="#000000" stroke-linecap="round" stroke-linejoin="round" stroke-width="1.0"/>
    </g>
  </defs>
</svg>
