<?xml version="1.0" encoding="UTF-8" standalone="no"?>
<svg xmlns:xlink="http://www.w3.org/1999/xlink" height="83.6px" width="72.65px" xmlns="http://www.w3.org/2000/svg">
  <g transform="matrix(1, 0, 0, 1, -0.9, 13.25)">
    <use height="55.9" transform="matrix(1.0, 0.0, 0.0, 1.0, 12.15, 5.35)" width="57.7" xlink:href="#sprite0"/>
  </g>
  <defs>
    <g id="sprite0" transform="matrix(1, 0, 0, 1, 0.5, 0.5)">
      <use height="55.9" transform="matrix(1.0, 0.0, 0.0, 1.0, -0.5, -0.5)" width="57.7" xlink:href="#shape0"/>
    </g>
    <g id="shape0" transform="matrix(1, 0, 0, 1, 0.5, 0.5)">
      <path d="M46.05 27.1 L46.1 28.65 46.1 29.55 Q45.8 36.85 40.85 42.3 L26.8 29.4 29.2 27.1 46.05 27.1 29.2 27.1 26.8 29.4 40.85 42.3 40.1 43.05 Q34.15 49.0 25.7 49.0 L25.5 49.0 26.1 30.1 26.8 29.4 26.15 28.8 26.2 27.1 29.2 27.1 41.35 15.55 29.2 27.1 26.2 27.1 26.15 28.8 26.8 29.4 26.1 30.1 25.5 49.0 Q17.55 48.95 11.85 43.6 L11.3 43.05 Q8.35 40.1 6.9 36.55 5.35 32.9 5.35 28.65 L5.4 27.1 24.3 27.1 26.15 28.8 26.1 30.1 11.85 43.6 26.1 30.1 26.15 28.8 24.3 27.1 5.4 27.1 Q5.9 20.0 10.8 14.8 L11.3 14.25 Q17.25 8.3 25.7 8.3 L26.75 8.35 Q34.5 8.65 40.1 14.25 L41.35 15.55 Q45.6 20.55 46.05 27.1 M26.75 8.35 L26.2 27.1 24.3 27.1 10.8 14.8 24.3 27.1 26.2 27.1 26.75 8.35" fill="#ffff33" fill-rule="evenodd" stroke="none"/>
      <path d="M46.05 27.1 L56.7 27.1 M40.85 42.3 L53.1 53.45 M46.05 27.1 L29.2 27.1 26.8 29.4 40.85 42.3 M25.5 49.0 L25.3 54.9 M41.35 15.55 L51.9 5.5 M26.75 8.35 L27.0 0.0 M41.35 15.55 L29.2 27.1 26.2 27.1 26.15 28.8 26.8 29.4 26.1 30.1 25.5 49.0 M11.85 43.6 L0.55 54.35 M10.8 14.8 L2.65 7.35 M5.4 27.1 L0.0 27.1 M11.85 43.6 L26.1 30.1 26.15 28.8 24.3 27.1 5.4 27.1 M10.8 14.8 L24.3 27.1 26.2 27.1 26.75 8.35" fill="none" stroke="#ffff00" stroke-linecap="round" stroke-linejoin="round" stroke-width="1.0"/>
    </g>
  </defs>
</svg>
