<?xml version="1.0" encoding="UTF-8" standalone="no"?>
<svg xmlns:xlink="http://www.w3.org/1999/xlink" height="38.35px" width="402.3px" xmlns="http://www.w3.org/2000/svg">
  <g transform="matrix(1, 0, 0, 1, 0.0, 0.0)">
    <use height="38.35" transform="matrix(1.0, 0.0, 0.0, 1.0, 0.0, 0.0)" width="402.3" xlink:href="#shape0"/>
    <use height="16.3" transform="matrix(1.0, 0.0, 0.0, 1.0, 2.55, 1.85)" width="396.95" xlink:href="#sprite0"/>
    <use height="12.7" transform="matrix(1.0, 0.0, 0.0, 1.0, 2.75, 23.8)" width="396.8" xlink:href="#sprite1"/>
  </g>
  <defs>
    <g id="shape0" transform="matrix(1, 0, 0, 1, 0.0, 0.0)">
      <path d="M402.3 9.9 L402.3 28.45 Q402.3 38.35 387.7 38.35 L14.55 38.35 Q0.0 38.35 0.0 28.45 L0.0 9.9 Q0.0 0.0 14.55 0.0 L387.7 0.0 Q402.3 0.0 402.3 9.9" fill="url(#gradient0)" fill-rule="evenodd" stroke="none"/>
    </g>
    <linearGradient gradientTransform="matrix(-1.0E-4, 0.0238, -0.0389, -1.0E-4, 281.15, 19.15)" gradientUnits="userSpaceOnUse" id="gradient0" spreadMethod="pad" x1="-819.2" x2="819.2">
      <stop offset="0.0" stop-color="#00279d"/>
      <stop offset="1.0" stop-color="#00b5fd"/>
    </linearGradient>
    <g id="sprite0" transform="matrix(1, 0, 0, 1, 0.0, 0.0)">
      <use height="16.3" transform="matrix(1.0, 0.0, 0.0, 1.0, 0.0, 0.0)" width="396.95" xlink:href="#shape1"/>
    </g>
    <g id="shape1" transform="matrix(1, 0, 0, 1, 0.0, 0.0)">
      <path d="M388.85 0.0 Q392.2 0.0 394.55 2.35 396.95 4.75 396.95 8.15 L396.95 8.2 Q396.95 11.55 394.55 13.9 392.2 16.3 388.85 16.3 L8.1 16.3 Q4.75 16.3 2.35 13.9 0.0 11.55 0.0 8.2 L0.0 8.15 Q0.0 4.75 2.35 2.35 4.75 0.0 8.1 0.0 L388.85 0.0" fill="url(#gradient1)" fill-rule="evenodd" stroke="none"/>
    </g>
    <linearGradient gradientTransform="matrix(0.0, 0.0104, -0.0099, 0.0, 278.45, 8.15)" gradientUnits="userSpaceOnUse" id="gradient1" spreadMethod="pad" x1="-819.2" x2="819.2">
      <stop offset="0.0" stop-color="#ffffff" stop-opacity="0.7490196"/>
      <stop offset="0.8117647058823529" stop-color="#f8f8f8" stop-opacity="0.0"/>
    </linearGradient>
    <g id="sprite1" transform="matrix(1, 0, 0, 1, 0.0, 0.0)">
      <use height="12.7" transform="matrix(1.0, 0.0, 0.0, 1.0, 0.0, 0.0)" width="396.8" xlink:href="#shape2"/>
    </g>
    <g id="shape2" transform="matrix(1, 0, 0, 1, 0.0, 0.0)">
      <path d="M384.95 12.7 L11.8 12.7 Q0.0 12.7 0.0 4.65 L0.0 0.0 396.8 0.0 396.8 4.65 Q396.8 12.7 384.95 12.7" fill="url(#gradient2)" fill-rule="evenodd" stroke="none"/>
    </g>
    <linearGradient gradientTransform="matrix(0.0, 0.0094, -0.0226, 0.0, 64.25, 4.95)" gradientUnits="userSpaceOnUse" id="gradient2" spreadMethod="pad" x1="-819.2" x2="819.2">
      <stop offset="0.23529411764705882" stop-color="#75e0f7" stop-opacity="0.0"/>
      <stop offset="1.0" stop-color="#0074b3" stop-opacity="0.8"/>
    </linearGradient>
  </defs>
</svg>
