<?xml version="1.0" encoding="UTF-8" standalone="no"?>
<svg xmlns:xlink="http://www.w3.org/1999/xlink" height="83.6px" width="72.65px" xmlns="http://www.w3.org/2000/svg">
  <g transform="matrix(1, 0, 0, 1, -0.9, 13.25)">
    <use height="186.2" id="a_Grimm" transform="matrix(-0.3649, 0.0, 0.0, 0.3649, 65.9763, 2.3153)" width="148.2" xlink:href="#sprite0"/>
  </g>
  <defs>
    <g id="sprite0" transform="matrix(1, 0, 0, 1, 13.5, 5.85)">
      <use height="72.5" transform="matrix(1.0, 0.0, 0.0, 1.0, -13.5, 86.95)" width="41.95" xlink:href="#sprite1"/>
      <use height="25.85" transform="matrix(0.7071, -0.7071, 0.7071, 0.7071, 4.8361, 85.8493)" width="35.7" xlink:href="#sprite2"/>
      <use height="34.1" transform="matrix(1.0, 0.0, 0.0, 1.0, 66.4, 95.0)" width="66.05" xlink:href="#sprite3"/>
      <use height="76.1" transform="matrix(1.0, 0.0, 0.0, 1.0, 28.75, 32.05)" width="58.25" xlink:href="#sprite4"/>
      <use height="25.05" transform="matrix(0.7071, 0.7071, -0.7071, 0.7071, 83.3252, 57.7935)" width="50.2" xlink:href="#sprite5"/>
      <use height="90.7" transform="matrix(0.7071, 0.7071, -0.7071, 0.7071, 102.266, 83.787)" width="45.85" xlink:href="#sprite6"/>
      <use height="79.7" transform="matrix(1.0, 0.0, 0.0, 1.0, 14.35, -5.85)" width="76.25" xlink:href="#sprite7"/>
    </g>
    <g id="sprite1" transform="matrix(1, 0, 0, 1, 28.45, 5.8)">
      <use height="72.5" transform="matrix(1.0, 0.0, 0.0, 1.0, -28.45, -5.8)" width="41.95" xlink:href="#shape0"/>
    </g>
    <g id="shape0" transform="matrix(1, 0, 0, 1, 28.45, 5.8)">
      <path d="M-24.3 44.85 L-24.3 44.75 -24.15 44.0 -24.25 43.95 Q-25.25 43.45 -26.65 41.75 L-28.45 39.35 -28.1 36.95 -28.05 35.8 -28.15 35.5 Q-28.15 31.2 -26.3 28.9 L-26.2 28.8 -25.65 28.3 Q-25.45 27.35 -24.15 25.4 L-23.5 25.25 -20.85 23.7 -19.45 23.3 -19.45 23.25 -19.35 23.25 -19.05 23.15 -18.95 21.9 Q-18.4 19.3 -15.25 17.45 L-15.25 17.2 Q-15.25 16.25 -11.4 9.05 -10.65 7.7 -10.55 5.25 L-10.25 1.2 Q-9.65 -1.85 -8.5 -3.75 -3.45 -5.8 -1.4 -5.8 -1.0 -5.8 0.2 -5.05 L1.45 -3.5 Q3.2 -0.95 3.2 2.15 3.2 4.55 2.5 5.25 0.95 6.8 -0.3 9.55 L-1.4 13.1 -2.15 15.55 -0.35 15.95 Q1.4 14.2 2.4 10.35 3.35 5.75 3.85 4.0 L4.55 2.0 6.55 0.6 Q7.65 0.0 8.95 -0.2 L9.9 0.5 Q11.3 1.8 12.45 4.1 13.5 6.25 13.5 7.45 L12.25 12.9 Q11.15 17.2 11.0 21.9 L10.95 23.65 10.9 25.35 10.35 26.55 10.75 28.9 10.9 31.85 Q10.9 33.35 9.95 36.15 L8.9 38.6 8.95 39.65 Q8.95 41.2 8.15 43.95 L7.7 45.6 Q6.95 48.4 6.3 49.65 L6.35 50.65 6.1 52.6 5.8 54.45 6.35 55.95 6.3 56.6 6.1 60.0 5.85 61.5 4.35 65.0 Q3.55 65.65 3.2 65.65 L-1.1 65.4 Q-2.45 64.7 -3.25 63.35 L-3.8 62.45 Q-4.25 62.85 -5.0 64.8 -6.3 66.7 -9.75 66.7 L-11.45 66.4 -12.05 66.35 -14.5 63.15 -14.4 62.25 -13.85 63.35 -13.75 63.25 -13.55 63.6 Q-13.2 64.25 -13.2 63.35 L-13.6 62.3 -14.0 61.25 Q-14.0 58.5 -14.3 54.9 L-14.65 51.55 -14.05 48.8 Q-13.35 46.4 -12.9 42.6 L-12.8 42.2 -12.0 41.1 -11.5 40.65 Q-10.3 39.65 -8.7 39.7 L-7.5 39.9 Q-5.15 40.6 -4.35 43.95 -3.95 45.85 -3.95 48.45 L-3.95 51.45 -4.1 52.85 -3.8 53.75 -3.75 53.8 Q-2.7 50.05 -2.2 47.5 -1.9 46.0 -0.05 44.95 2.2 43.7 4.6 45.15 5.25 45.35 5.65 46.6 L5.95 45.2 6.25 43.95 6.8 41.7 Q6.75 40.65 7.3 39.35 6.0 34.85 4.0 30.4 L3.3 28.9 Q0.35 23.7 -3.25 21.9 -5.25 21.0 -7.45 21.0 L-10.55 21.2 -13.2 21.8 -13.4 21.9 Q-14.3 22.3 -14.8 22.8 L-15.15 22.65 -14.7 21.9 Q-14.35 21.45 -13.8 21.2 L-13.35 20.95 Q-11.65 20.25 -7.45 20.0 -4.7 20.5 -2.25 21.9 -0.5 22.95 1.1 24.55 L3.7 27.6 4.1 28.1 4.7 28.9 Q7.1 32.85 7.9 36.2 L8.55 34.6 Q9.5 32.4 9.6 28.9 L9.6 28.3 Q9.6 25.7 6.65 21.9 L5.8 20.9 5.3 20.4 4.8 19.95 Q2.9 18.15 0.95 17.25 L0.4 17.0 Q-1.0 16.4 -2.45 16.25 L-2.6 16.5 -3.05 16.25 -3.1 16.25 -3.65 16.2 Q-12.3 16.2 -15.55 19.55 -16.55 20.55 -17.0 21.9 L-17.05 22.05 -17.25 22.95 -16.45 23.05 -15.55 22.95 -13.15 22.55 -12.9 22.5 Q-11.7 22.6 -11.0 23.65 -10.0 25.05 -10.0 28.2 L-10.0 28.9 Q-10.15 31.1 -11.05 32.45 -11.55 33.35 -14.5 36.3 L-15.05 36.8 -15.85 36.8 Q-15.95 37.35 -16.55 38.2 L-16.85 38.2 -17.5 38.5 -17.25 39.3 -17.4 39.75 -17.6 39.55 -17.9 39.85 -18.6 40.55 -19.75 41.65 Q-21.55 43.3 -22.3 43.3 L-22.4 43.3 -22.6 43.6 -22.6 43.55 -22.65 43.6 -22.7 43.45 -22.75 43.2 -22.85 43.3 -22.95 42.9 -23.1 42.75 -23.45 43.5 -23.5 43.5 -23.45 43.1 Q-23.95 43.7 -24.3 44.85 M-15.9 60.0 L-16.5 63.55 -16.7 63.15 Q-17.25 63.7 -18.1 64.05 L-21.05 64.2 Q-22.55 64.15 -23.45 63.55 -24.3 62.35 -24.9 59.85 L-25.0 59.65 -25.7 52.9 -25.2 49.5 -25.2 49.7 -25.1 50.2 -24.85 52.15 -24.7 51.95 -24.7 51.45 -24.35 51.35 -23.5 47.35 -23.4 47.05 -23.35 47.0 -23.45 47.65 -23.6 48.3 -23.5 48.3 -22.9 47.75 Q-21.65 46.65 -19.95 46.8 -18.55 47.1 -17.5 47.95 -16.95 48.4 -16.55 49.0 L-16.25 50.75 -16.05 50.7 -16.05 50.8 -15.9 51.75 -16.3 53.8 -16.35 53.2 Q-16.15 48.85 -18.95 48.25 L-19.8 48.15 Q-21.4 48.05 -22.6 48.95 -23.8 50.2 -23.9 51.9 L-23.85 52.2 -24.15 52.15 -24.3 52.9 Q-24.4 54.7 -23.7 58.7 L-23.5 59.9 Q-22.85 62.6 -21.7 62.7 -18.6 62.85 -17.25 61.05 L-17.3 62.45 Q-17.3 63.35 -17.15 63.0 -16.6 62.45 -15.9 60.0 M1.5 0.0 L1.0 -1.25 Q-0.4 -4.15 -3.5 -4.15 -7.85 -4.15 -8.8 1.4 -9.3 4.2 -8.9 7.25 -8.9 7.9 -10.95 12.0 -12.5 15.15 -13.65 16.7 -10.6 15.4 -6.95 15.25 L-4.45 15.3 -4.05 15.35 -3.2 15.4 Q-3.2 11.25 -0.65 6.8 1.85 2.9 1.85 2.2 L1.5 0.0 M6.85 20.0 L8.45 21.9 9.35 23.65 9.55 21.9 10.15 15.9 Q12.0 8.75 12.0 7.4 12.0 6.0 11.25 4.3 10.1 1.7 8.0 1.7 L7.4 1.8 5.45 3.1 4.15 9.35 3.8 11.0 Q2.75 15.4 1.95 16.75 4.3 17.7 6.2 19.35 L6.85 20.0 M4.45 47.65 L4.05 47.15 Q2.95 45.75 1.45 45.7 -2.45 45.6 -2.15 52.55 L1.5 52.3 Q2.15 52.3 3.4 52.9 L3.45 52.9 3.55 53.05 3.75 53.15 4.25 53.4 4.65 53.7 4.75 53.75 Q5.3 52.05 5.3 50.7 L5.3 50.4 5.1 49.4 5.15 49.2 4.45 47.65 M-2.6 60.95 L-2.0 62.35 Q-0.8 64.35 1.45 64.35 3.55 64.35 4.75 61.8 L5.45 59.0 Q5.45 56.9 4.15 55.45 2.95 54.15 1.3 53.85 -2.85 53.35 -2.85 59.0 L-2.8 60.0 -2.6 60.95 M-17.35 31.1 Q-17.6 29.7 -18.45 28.9 L-18.65 28.75 Q-19.9 27.75 -21.65 27.95 -23.2 28.1 -24.2 28.9 -24.85 29.45 -25.3 30.35 L-26.05 33.8 -26.65 36.85 -26.55 37.3 -26.6 37.3 -26.5 37.65 -26.5 37.7 -26.4 37.9 -26.4 37.95 -26.05 38.9 Q-24.7 41.65 -22.9 41.65 -21.0 41.65 -19.65 40.05 L-18.5 38.15 -17.6 35.6 -17.4 34.1 -17.4 33.5 -17.3 32.1 -17.35 31.1 M-11.65 25.95 Q-12.5 24.3 -13.7 24.3 L-18.6 24.9 -19.55 24.8 Q-20.5 25.2 -21.45 25.85 L-23.05 27.15 -21.95 27.1 Q-20.05 27.3 -18.55 28.65 L-18.3 28.9 -17.75 29.55 Q-16.1 31.85 -15.85 35.25 L-15.7 35.15 -14.1 33.35 -12.9 31.95 Q-11.35 30.15 -11.05 28.9 L-11.0 28.4 Q-11.0 27.25 -11.65 25.95 M-23.25 46.65 L-23.35 46.7 -22.85 44.1 -23.25 46.65 M-14.05 42.4 L-14.1 42.25 -14.3 41.55 -15.0 40.5 -15.2 40.25 Q-16.05 39.4 -16.55 39.7 L-16.5 39.45 -15.75 39.75 -14.95 40.5 -14.25 41.35 -13.9 41.85 -14.0 42.15 -14.05 42.4 M-11.9 43.0 L-12.0 43.15 -12.35 43.95 -13.05 46.05 -13.35 45.85 -13.45 46.45 -14.35 50.5 -13.8 53.25 Q-13.3 52.1 -12.25 51.25 L-12.2 51.25 -11.55 50.45 -10.95 50.45 Q-8.7 49.45 -6.55 51.25 L-5.8 51.45 -5.0 51.6 Q-4.85 50.6 -4.85 48.15 -4.85 45.0 -5.05 44.1 L-5.1 43.95 Q-5.5 42.45 -6.55 41.8 -7.35 41.25 -8.55 41.25 L-9.75 41.4 Q-11.25 41.75 -11.9 43.0 M-5.0 60.0 Q-4.65 58.6 -4.65 57.9 L-5.0 56.6 -4.8 55.55 -4.9 54.9 Q-5.3 52.85 -6.55 51.7 -7.5 51.15 -8.9 51.0 -12.05 50.6 -12.8 52.75 L-13.05 54.25 -13.0 54.65 -13.05 54.65 -13.5 56.6 -13.5 60.0 -13.5 60.2 -13.7 61.25 -12.6 63.05 -12.0 64.1 -10.6 65.0 -9.75 65.7 -8.5 65.7 Q-7.15 65.25 -5.8 62.1 L-5.0 60.0" fill="#000000" fill-rule="evenodd" stroke="none"/>
      <path d="M-22.85 43.3 L-22.75 43.2 -22.7 43.45 -22.65 43.6 Q-22.15 44.8 -21.0 45.7 L-22.25 45.85 -23.25 46.65 -22.85 44.1 -22.85 43.8 -22.85 43.65 -22.85 43.55 -22.85 43.3 M-22.6 43.6 L-22.4 43.3 -22.3 43.3 Q-21.55 43.3 -19.75 41.65 L-18.6 40.55 -17.9 39.85 -17.6 39.55 -17.4 39.75 -17.25 39.3 -17.2 39.4 -17.1 39.4 -16.8 39.4 -16.5 39.45 -16.55 39.7 Q-16.05 39.4 -15.2 40.25 L-15.0 40.5 -14.3 41.55 -14.1 42.25 -14.05 42.4 -15.1 45.6 Q-15.85 47.65 -16.55 49.0 -16.95 48.4 -17.5 47.95 -18.55 47.1 -19.95 46.8 -21.65 46.65 -22.9 47.75 L-23.5 48.3 -23.6 48.3 -23.45 47.65 -23.35 47.0 -22.45 46.05 -21.25 45.8 -21.1 45.9 -20.9 45.75 -20.95 45.7 -20.7 45.65 Q-21.85 44.95 -22.5 43.85 L-22.6 43.6 M4.8 19.95 L5.3 20.4 5.8 20.9 6.65 21.9 Q9.6 25.7 9.6 28.3 L9.6 28.9 Q9.5 32.4 8.55 34.6 L7.9 36.2 Q7.1 32.85 4.7 28.9 L4.1 28.1 3.7 27.6 1.1 24.55 3.6 21.9 4.8 19.95 M-6.95 15.25 L-6.45 10.35 Q-5.8 5.3 -5.6 5.2 L1.5 0.0 1.85 2.2 Q1.85 2.9 -0.65 6.8 -3.2 11.25 -3.2 15.4 L-4.05 15.35 -4.45 15.3 -6.95 15.25 M4.15 9.35 L5.45 3.1 7.4 1.8 8.0 1.7 Q10.1 1.7 11.25 4.3 12.0 6.0 12.0 7.4 12.0 8.75 10.15 15.9 L9.55 21.9 9.35 23.65 8.45 21.9 6.85 20.0 7.25 17.75 Q7.45 16.25 8.2 13.4 L8.95 10.65 8.55 9.65 8.0 8.7 Q5.5 8.7 4.15 9.35 M3.4 52.9 L3.7 51.25 4.45 47.65 5.15 49.2 5.1 49.4 5.3 50.4 5.3 50.7 Q5.3 52.05 4.75 53.75 L4.65 53.7 4.25 53.4 3.75 53.15 3.55 53.05 3.45 52.9 3.4 52.9 M-2.6 60.95 Q-2.15 60.3 -1.25 60.3 -0.9 60.3 -0.1 60.65 L0.95 61.0 Q1.6 61.0 2.35 60.0 L3.4 57.6 4.1 55.45 4.15 55.45 Q5.45 56.9 5.45 59.0 L4.75 61.8 Q3.55 64.35 1.45 64.35 -0.8 64.35 -2.0 62.35 L-2.6 60.95 M-17.35 31.1 L-17.3 32.1 -17.4 33.5 -17.4 34.1 -17.6 35.6 -18.5 38.15 -19.65 40.05 Q-21.0 41.65 -22.9 41.65 -24.7 41.65 -26.05 38.9 L-26.4 37.95 -26.4 37.9 -26.5 37.7 -26.5 37.65 -26.6 37.3 -26.55 37.3 -26.0 37.25 Q-23.15 36.95 -21.15 34.2 -19.9 32.4 -17.35 31.1 M-18.55 28.65 Q-16.8 27.55 -13.15 26.4 L-11.65 25.95 Q-11.0 27.25 -11.0 28.4 L-11.05 28.9 Q-11.35 30.15 -12.9 31.95 L-14.1 33.35 -15.7 35.15 -15.85 35.25 Q-16.1 31.85 -17.75 29.55 L-18.3 28.9 -18.55 28.65 M-15.75 39.75 Q-15.3 40.0 -14.8 40.5 L-14.5 40.85 -14.2 41.2 -13.85 41.7 -13.9 41.85 -14.25 41.35 -14.95 40.5 -15.75 39.75 M-12.25 51.25 Q-13.3 52.1 -13.8 53.25 L-14.35 50.5 -13.45 46.45 -13.35 45.85 -13.05 46.05 -12.35 43.95 -12.0 43.15 -11.9 43.0 -11.9 43.95 -12.25 51.25 M-18.1 43.05 L-18.45 43.7 -18.0 43.05 -18.1 43.05 M-19.15 46.05 L-18.6 46.55 -18.95 46.15 Q-19.25 45.75 -19.95 45.55 L-20.1 45.6 Q-19.45 45.7 -19.15 46.05 M-17.25 61.05 Q-18.6 62.85 -21.7 62.7 -22.85 62.6 -23.5 59.9 L-23.7 58.7 Q-24.4 54.7 -24.3 52.9 L-24.15 52.15 -23.85 52.2 -23.9 51.9 Q-23.8 50.2 -22.6 48.95 -21.4 48.05 -19.8 48.15 L-18.95 48.25 -22.95 53.2 Q-21.7 58.6 -21.4 58.6 L-21.0 58.35 -18.6 58.85 -17.15 59.15 -17.05 59.15 -17.25 61.05 M-5.0 60.0 L-5.8 62.1 Q-7.15 65.25 -8.5 65.7 L-9.75 65.7 -10.6 65.0 -12.0 64.1 -12.6 63.05 -13.7 61.25 -13.5 60.2 -13.5 60.0 -13.5 56.6 -13.05 54.65 -13.0 54.65 -13.05 54.25 -12.8 52.75 Q-12.0 56.05 -11.55 59.7 L-11.5 59.95 -10.0 59.5 -8.45 59.1 Q-6.3 59.1 -5.05 60.0 L-5.0 60.0 M-16.6 55.8 L-16.65 55.9 -16.8 55.85 -16.6 55.8" fill="#bfcbb1" fill-rule="evenodd" stroke="none"/>
      <path d="M-15.55 22.95 L-16.45 23.05 -17.25 22.95 -17.05 22.05 -17.0 21.9 Q-16.55 20.55 -15.55 19.55 -12.3 16.2 -3.65 16.2 L-3.1 16.25 -3.05 16.25 -2.6 16.5 -2.45 16.25 Q-1.0 16.4 0.4 17.0 L0.95 17.25 Q2.9 18.15 4.8 19.95 L3.6 21.9 1.1 24.55 Q-0.5 22.95 -2.25 21.9 -4.7 20.5 -7.45 20.0 -11.65 20.25 -13.35 20.95 L-13.8 21.2 -14.9 21.9 Q-15.4 22.35 -15.55 22.95 M-6.95 15.25 Q-10.6 15.4 -13.65 16.7 -12.5 15.15 -10.95 12.0 -8.9 7.9 -8.9 7.25 -9.3 4.2 -8.8 1.4 -7.85 -4.15 -3.5 -4.15 -0.4 -4.15 1.0 -1.25 L1.5 0.0 -5.6 5.2 Q-5.8 5.3 -6.45 10.35 L-6.95 15.25 M4.15 9.35 Q5.5 8.7 8.0 8.7 L8.55 9.65 8.95 10.65 8.2 13.4 Q7.45 16.25 7.25 17.75 L6.85 20.0 6.2 19.35 Q4.3 17.7 1.95 16.75 2.75 15.4 3.8 11.0 L4.15 9.35 M3.4 52.9 Q2.15 52.3 1.5 52.3 L-2.15 52.55 Q-2.45 45.6 1.45 45.7 2.95 45.75 4.05 47.15 L4.45 47.65 3.7 51.25 3.4 52.9 M4.15 55.45 L4.1 55.45 3.4 57.6 2.35 60.0 Q1.6 61.0 0.95 61.0 L-0.1 60.65 Q-0.9 60.3 -1.25 60.3 -2.15 60.3 -2.6 60.95 L-2.8 60.0 -2.85 59.0 Q-2.85 53.35 1.3 53.85 2.95 54.15 4.15 55.45 M-26.55 37.3 L-26.65 36.85 -26.05 33.8 -25.3 30.35 Q-24.85 29.45 -24.2 28.9 -23.2 28.1 -21.65 27.95 -19.9 27.75 -18.65 28.75 L-18.45 28.9 Q-17.6 29.7 -17.35 31.1 -19.9 32.4 -21.15 34.2 -23.15 36.95 -26.0 37.25 L-26.55 37.3 M-18.55 28.65 Q-20.05 27.3 -21.95 27.1 L-23.05 27.15 -21.45 25.85 Q-20.5 25.2 -19.55 24.8 L-18.6 24.9 -13.7 24.3 Q-12.5 24.3 -11.65 25.95 L-13.15 26.4 Q-16.8 27.55 -18.55 28.65 M-12.25 51.25 L-11.9 43.95 -11.9 43.0 Q-11.25 41.75 -9.75 41.4 L-8.55 41.25 Q-7.35 41.25 -6.55 41.8 -5.5 42.45 -5.1 43.95 L-5.05 44.1 Q-4.85 45.0 -4.85 48.15 -4.85 50.6 -5.0 51.6 L-5.8 51.45 -6.55 51.25 Q-8.7 49.45 -10.95 50.45 L-11.55 50.45 -12.2 51.25 -12.25 51.25 M-17.05 59.15 L-17.15 59.15 -18.6 58.85 -21.0 58.35 -21.4 58.6 Q-21.7 58.6 -22.95 53.2 L-18.95 48.25 Q-16.15 48.85 -16.35 53.2 L-16.3 53.8 -16.6 55.8 -16.8 55.85 -16.65 55.9 -17.05 59.15 M-12.8 52.75 Q-12.05 50.6 -8.9 51.0 -7.5 51.15 -6.55 51.7 -5.3 52.85 -4.9 54.9 L-4.8 55.55 -5.0 56.6 -4.65 57.9 Q-4.65 58.6 -5.0 60.0 L-5.05 60.0 Q-6.3 59.1 -8.45 59.1 L-10.0 59.5 -11.5 59.95 -11.55 59.7 Q-12.0 56.05 -12.8 52.75" fill="#ffffff" fill-rule="evenodd" stroke="none"/>
      <path d="M-24.3 44.85 Q-23.95 43.7 -23.45 43.1 L-23.5 43.5 -23.45 43.5 -23.1 42.75 -22.95 42.9 -22.85 43.3 -22.85 43.55 -22.85 43.65 -22.85 43.8 -22.85 44.1 -23.35 46.7 -23.4 47.05 -23.5 47.35 -24.35 51.35 -24.7 51.45 -24.7 51.95 -24.85 52.15 -25.1 50.2 -25.2 49.7 -25.2 49.5 -25.25 48.3 Q-25.25 47.3 -24.5 45.45 L-24.3 44.85 M-17.25 39.3 L-17.5 38.5 -16.85 38.2 -16.55 38.2 Q-15.95 37.35 -15.85 36.8 L-15.05 36.8 -14.5 36.3 Q-11.55 33.35 -11.05 32.45 -10.15 31.1 -10.0 28.9 L-10.0 28.2 Q-10.0 25.05 -11.0 23.65 -11.7 22.6 -12.9 22.5 L-13.15 22.55 -15.55 22.95 Q-15.4 22.35 -14.9 21.9 L-13.8 21.2 Q-14.35 21.45 -14.7 21.9 L-15.15 22.65 -14.8 22.8 Q-14.3 22.3 -13.4 21.9 L-13.2 21.8 -10.55 21.2 -7.45 21.0 Q-5.25 21.0 -3.25 21.9 0.35 23.7 3.3 28.9 L4.0 30.4 Q6.0 34.85 7.3 39.35 6.75 40.65 6.8 41.7 L6.25 43.95 5.95 45.2 5.65 46.6 Q5.25 45.35 4.6 45.15 2.2 43.7 -0.05 44.95 -1.9 46.0 -2.2 47.5 -2.7 50.05 -3.75 53.8 L-3.8 53.75 -4.1 52.85 -3.95 51.45 -3.95 48.45 Q-3.95 45.85 -4.35 43.95 -5.15 40.6 -7.5 39.9 L-8.7 39.7 Q-10.3 39.65 -11.5 40.65 L-12.0 41.1 -12.8 42.2 -12.9 42.6 Q-13.35 46.4 -14.05 48.8 L-14.65 51.55 -14.3 54.9 Q-14.0 58.5 -14.0 61.25 L-13.6 62.3 -13.2 63.35 Q-13.2 64.25 -13.55 63.6 L-13.75 63.25 -13.85 63.35 -14.4 62.25 Q-15.15 60.4 -15.45 57.95 L-15.6 58.6 -15.9 60.0 Q-16.6 62.45 -17.15 63.0 -17.3 63.35 -17.3 62.45 L-17.25 61.05 -17.05 59.15 -16.65 55.9 -16.6 55.8 -16.3 53.8 -15.9 51.75 -15.8 51.2 -15.85 50.6 -16.05 50.7 -16.25 50.75 -16.55 49.0 Q-15.85 47.65 -15.1 45.6 L-14.05 42.4 -14.0 42.15 -13.9 41.85 -13.85 41.7 -14.2 41.2 -14.5 40.85 -14.8 40.5 Q-15.3 40.0 -15.75 39.75 L-16.5 39.45 -16.8 39.4 -17.1 39.4 -17.2 39.4 -17.25 39.3" fill="#080808" fill-rule="evenodd" stroke="none"/>
    </g>
    <g id="sprite2" transform="matrix(1, 0, 0, 1, 28.4, 9.45)">
      <use height="25.85" transform="matrix(1.0, 0.0, 0.0, 1.0, -28.4, -9.45)" width="35.7" xlink:href="#shape1"/>
    </g>
    <g id="shape1" transform="matrix(1, 0, 0, 1, 28.4, 9.45)">
      <path d="M-11.2 2.1 L-11.15 2.25 Q-10.65 5.25 -11.15 5.75 L-13.55 6.05 -17.1 6.6 -18.75 8.65 Q-19.85 9.75 -21.05 9.45 L-24.0 4.8 -25.25 2.95 Q-24.35 1.05 -23.4 0.1 -22.65 -0.65 -21.75 -0.55 -20.0 -0.2 -17.15 2.65 L-11.2 2.1 M1.9 7.3 Q-0.45 6.05 -2.45 4.05 -5.9 0.6 -6.65 -5.25 L-6.7 -6.5 Q-5.25 -7.65 -2.3 -7.4 0.75 -7.05 3.1 -5.1 5.75 -2.95 5.65 0.05 5.6 3.5 1.9 7.3" fill="#ffffff" fill-rule="evenodd" stroke="none"/>
      <path d="M-9.05 -4.05 Q-9.1 -6.7 -8.15 -7.65 -6.0 -9.8 -2.1 -9.4 1.5 -8.9 4.3 -6.4 7.3 -3.7 7.3 0.0 7.2 4.3 2.75 8.75 0.1 11.4 -2.35 11.85 L-6.5 11.5 -10.4 10.9 Q-12.7 11.2 -15.0 13.5 -17.35 15.85 -18.25 16.15 -21.7 17.3 -26.3 12.7 -29.8 9.2 -27.45 3.85 -26.7 2.1 -25.45 0.45 L-25.15 0.05 -23.5 -2.3 -20.2 -2.2 -15.35 0.85 -13.3 0.4 -10.45 -0.15 Q-9.1 -1.7 -9.05 -4.05 M-6.7 -6.5 L-7.0 -6.3 -7.9 -1.6 Q-8.8 3.25 -10.1 5.0 L-10.4 5.0 Q-10.55 3.75 -9.45 1.05 L-9.5 1.1 -11.2 2.1 -17.15 2.65 Q-20.0 -0.2 -21.75 -0.55 -22.65 -0.65 -23.4 0.1 -24.35 1.05 -25.25 2.95 L-25.9 4.5 Q-27.55 9.05 -25.25 11.35 -21.85 14.75 -19.2 14.5 -18.05 14.35 -16.85 13.15 L-15.85 11.75 -14.85 10.35 Q-13.4 8.9 -11.35 8.95 L-7.25 9.65 Q-1.65 10.85 1.55 7.65 L1.9 7.3 Q5.6 3.5 5.65 0.05 5.75 -2.95 3.1 -5.1 0.75 -7.05 -2.3 -7.4 -5.25 -7.65 -6.7 -6.5" fill="#000000" fill-rule="evenodd" stroke="none"/>
      <path d="M-11.2 2.1 L-9.5 1.1 -9.45 1.05 Q-10.55 3.75 -10.4 5.0 L-10.1 5.0 Q-8.8 3.25 -7.9 -1.6 L-7.0 -6.3 -6.7 -6.5 -6.65 -5.25 Q-5.9 0.6 -2.45 4.05 -0.45 6.05 1.9 7.3 L1.55 7.65 Q-1.65 10.85 -7.25 9.65 L-11.35 8.95 Q-13.4 8.9 -14.85 10.35 L-15.85 11.75 -16.85 13.15 Q-18.05 14.35 -19.2 14.5 -21.85 14.75 -25.25 11.35 -27.55 9.05 -25.9 4.5 L-25.25 2.95 -24.0 4.8 -21.05 9.45 Q-19.85 9.75 -18.75 8.65 L-17.1 6.6 -13.55 6.05 -11.15 5.75 Q-10.65 5.25 -11.15 2.25 L-11.2 2.1" fill="#bfcbb1" fill-rule="evenodd" stroke="none"/>
    </g>
    <g id="sprite3" transform="matrix(1, 0, 0, 1, -2.55, 9.1)">
      <use height="34.1" transform="matrix(1.0, 0.0, 0.0, 1.0, 2.55, -9.1)" width="66.05" xlink:href="#shape2"/>
    </g>
    <g id="shape2" transform="matrix(1, 0, 0, 1, -2.55, 9.1)">
      <path d="M60.95 16.05 Q61.4 17.2 61.4 19.05 61.4 19.8 60.4 21.0 L59.15 22.2 Q57.65 23.75 55.6 23.75 54.3 23.75 52.35 22.75 L51.55 22.25 52.3 21.4 Q53.0 20.35 53.0 18.25 L52.85 16.1 Q54.4 16.1 56.4 15.35 58.35 14.65 58.95 14.65 L59.4 15.1 Q60.4 14.75 60.95 16.05 M62.35 17.15 L62.35 16.9 64.75 16.9 66.95 16.9 67.15 19.1 Q67.15 21.2 62.95 21.9 L61.0 22.25 61.2 22.05 60.95 22.05 60.85 21.65 61.05 21.1 61.05 21.0 61.45 19.7 Q61.8 18.65 61.8 17.15 L62.35 17.15 M5.65 -3.95 Q7.4 -5.6 12.15 -6.9 14.9 -8.0 17.6 -5.15 19.95 -2.75 19.95 -0.95 19.95 0.7 17.9 3.3 14.95 6.9 10.5 6.9 5.55 6.9 4.45 4.1 4.15 3.45 4.15 0.0 4.15 -2.6 5.65 -3.95 M45.4 10.8 Q45.4 12.15 45.75 14.65 45.75 16.4 43.75 18.1 L42.15 19.15 Q41.65 19.65 40.6 19.65 L40.45 19.8 35.7 20.45 Q34.7 20.45 33.95 18.8 33.1 16.9 32.65 16.7 30.3 17.65 28.8 15.9 L28.25 15.2 28.9 14.45 Q30.65 13.25 31.65 11.0 32.35 9.6 32.65 7.9 L32.6 7.85 32.55 7.4 32.8 7.0 32.8 6.95 32.85 6.95 33.3 6.65 33.85 6.4 33.95 6.25 Q34.5 5.55 37.5 5.55 38.2 5.55 38.9 6.75 L39.7 8.6 Q40.25 10.0 40.65 10.3 41.85 11.05 45.4 10.8 M30.85 4.25 Q31.4 4.7 31.4 5.75 L31.35 7.05 31.4 7.95 Q31.4 10.5 30.1 12.25 29.4 13.25 28.35 13.85 L28.3 13.8 26.15 14.2 24.0 14.45 Q15.35 14.45 14.1 10.0 L13.8 7.95 Q16.7 7.05 18.95 4.45 20.8 2.25 21.45 0.5 L21.9 1.15 Q23.3 2.95 24.95 3.9 29.45 3.1 30.85 4.25 M47.05 13.5 L47.0 13.25 51.4 14.25 51.45 15.15 Q52.0 15.7 52.35 16.95 L52.65 19.2 Q52.65 19.8 52.05 20.55 51.3 21.45 50.25 21.75 L50.0 21.65 49.75 21.8 48.7 21.8 47.7 21.9 46.9 22.05 Q45.1 22.05 42.8 20.5 L43.0 20.4 43.0 20.0 43.05 19.65 43.05 19.45 43.15 19.35 43.45 19.05 44.8 17.45 Q46.6 15.25 46.65 13.45 L47.05 13.5" fill="#bfcbb1" fill-rule="evenodd" stroke="none"/>
      <path d="M21.5 -2.4 L22.55 -1.7 Q24.05 -0.35 25.45 2.25 L29.95 2.05 Q31.65 2.05 32.5 3.1 L32.95 4.3 32.95 4.35 Q33.75 4.0 34.95 3.8 38.4 3.15 39.4 4.3 39.85 4.8 40.2 6.05 L40.95 8.1 Q41.85 10.0 44.65 8.9 L46.3 8.7 Q46.95 9.1 46.95 11.05 L46.95 11.35 Q47.7 11.15 48.85 11.35 51.35 11.75 52.55 13.35 L52.7 14.45 56.9 13.95 59.95 13.45 Q61.35 13.5 62.0 15.2 L63.65 15.05 Q66.75 14.8 67.65 15.5 68.35 16.2 68.55 17.25 L68.6 18.9 Q68.6 20.85 67.7 22.0 66.0 24.05 61.25 23.8 L59.5 23.8 59.3 23.65 Q57.15 25.0 54.5 25.0 52.7 25.0 51.05 23.85 L50.05 23.05 46.95 23.45 Q44.25 23.45 42.15 22.2 L40.95 21.3 Q38.4 22.1 35.1 22.1 33.6 22.1 32.8 20.4 L32.15 18.35 Q28.25 17.75 27.2 16.65 L26.7 15.7 25.05 15.85 23.6 15.9 19.9 15.45 15.55 14.75 14.5 13.15 Q12.4 11.6 12.05 9.35 L11.7 8.4 10.4 8.45 Q4.8 8.45 3.1 4.3 2.55 2.75 2.55 -0.7 2.55 -3.4 4.8 -5.35 7.05 -7.3 11.85 -8.85 15.4 -9.95 18.8 -6.35 20.95 -4.15 21.5 -2.4 M5.65 -3.95 Q4.15 -2.6 4.15 0.0 4.15 3.45 4.45 4.1 5.55 6.9 10.5 6.9 14.95 6.9 17.9 3.3 19.95 0.7 19.95 -0.95 19.95 -2.75 17.6 -5.15 14.9 -8.0 12.15 -6.9 7.4 -5.6 5.65 -3.95 M62.35 17.15 L61.8 17.15 Q61.8 18.65 61.45 19.7 L61.05 21.0 61.05 21.1 60.85 21.65 60.95 22.05 61.2 22.05 61.0 22.25 62.95 21.9 Q67.15 21.2 67.15 19.1 L66.95 16.9 64.75 16.9 62.35 16.9 62.35 17.15 M60.95 16.05 Q60.4 14.75 59.4 15.1 L58.95 14.65 Q58.35 14.65 56.4 15.35 54.4 16.1 52.85 16.1 L53.0 18.25 Q53.0 20.35 52.3 21.4 L51.55 22.25 52.35 22.75 Q54.3 23.75 55.6 23.75 57.65 23.75 59.15 22.2 L60.4 21.0 Q61.4 19.8 61.4 19.05 61.4 17.2 60.95 16.05 M45.4 10.8 Q41.85 11.05 40.65 10.3 40.25 10.0 39.7 8.6 L38.9 6.75 Q38.2 5.55 37.5 5.55 34.5 5.55 33.95 6.25 L33.85 6.4 33.3 6.65 32.85 6.95 32.8 6.95 32.8 7.0 32.55 7.4 32.6 7.85 32.65 7.9 Q32.35 9.6 31.65 11.0 30.65 13.25 28.9 14.45 L28.25 15.2 28.8 15.9 Q30.3 17.65 32.65 16.7 33.1 16.9 33.95 18.8 34.7 20.45 35.7 20.45 L40.45 19.8 40.6 19.65 Q41.65 19.65 42.15 19.15 L43.75 18.1 Q45.75 16.4 45.75 14.65 45.4 12.15 45.4 10.8 M47.05 13.5 L46.65 13.45 Q46.6 15.25 44.8 17.45 L43.45 19.05 43.15 19.35 43.05 19.45 43.05 19.65 43.0 20.0 43.0 20.4 42.8 20.5 Q45.1 22.05 46.9 22.05 L47.7 21.9 48.7 21.8 49.75 21.8 50.0 21.65 50.25 21.75 Q51.3 21.45 52.05 20.55 52.65 19.8 52.65 19.2 L52.35 16.95 Q52.0 15.7 51.45 15.15 L51.4 14.25 47.0 13.25 47.05 13.5 M30.85 4.25 Q29.45 3.1 24.95 3.9 23.3 2.95 21.9 1.15 L21.45 0.5 Q20.8 2.25 18.95 4.45 16.7 7.05 13.8 7.95 L14.1 10.0 Q15.35 14.45 24.0 14.45 L26.15 14.2 28.3 13.8 28.35 13.85 Q29.4 13.25 30.1 12.25 31.4 10.5 31.4 7.95 L31.35 7.05 31.4 5.75 Q31.4 4.7 30.85 4.25" fill="#000000" fill-rule="evenodd" stroke="none"/>
    </g>
    <g id="sprite4" transform="matrix(1, 0, 0, 1, 41.1, 80.1)">
      <use height="76.1" transform="matrix(1.0, 0.0, 0.0, 1.0, -41.1, -80.1)" width="58.25" xlink:href="#shape3"/>
    </g>
    <g id="shape3" transform="matrix(1, 0, 0, 1, 41.1, 80.1)">
      <path d="M-18.75 -52.75 L-18.15 -53.3 Q-14.95 -54.55 -10.75 -54.15 L-8.35 -53.6 -9.1 -54.7 -9.2 -56.6 Q-9.2 -59.3 -6.45 -62.55 L-5.8 -63.25 Q-6.75 -64.8 -6.75 -65.85 -6.75 -74.85 1.65 -78.75 4.75 -80.15 7.4 -80.1 10.0 -80.0 10.0 -78.6 L9.9 -78.05 9.15 -73.5 8.35 -69.25 10.05 -67.45 Q11.65 -65.65 11.65 -64.75 L11.6 -64.25 11.6 -64.15 Q11.6 -62.7 9.05 -60.15 L8.45 -59.55 8.4 -59.5 Q8.4 -59.3 8.95 -58.2 L9.5 -56.55 Q9.5 -55.7 8.45 -54.6 7.5 -53.55 6.1 -52.85 L7.2 -50.0 7.35 -49.4 6.55 -49.55 7.55 -48.85 Q10.9 -46.4 10.9 -43.8 L10.45 -37.45 10.45 -37.2 Q11.6 -36.8 13.05 -35.35 16.9 -31.6 16.9 -28.15 L16.85 -27.35 17.15 -21.45 16.9 -18.65 16.95 -18.1 Q16.95 -15.9 11.55 -10.2 5.65 -4.0 1.7 -4.0 -5.05 -4.0 -9.2 -6.1 L-11.65 -7.65 -12.85 -7.35 -16.3 -7.95 -16.3 -7.65 Q-16.3 -6.75 -17.85 -5.8 -19.4 -4.85 -21.05 -4.85 -26.45 -4.85 -30.05 -8.0 -32.8 -10.45 -32.8 -12.3 L-32.65 -17.8 -33.05 -18.4 -33.35 -18.95 Q-35.9 -19.9 -38.45 -24.35 L-39.05 -25.45 Q-40.8 -28.3 -40.95 -29.8 L-41.1 -30.45 Q-41.1 -32.9 -39.95 -35.8 -39.1 -38.0 -37.9 -39.7 L-38.65 -42.25 -38.75 -45.2 -38.65 -47.4 -38.7 -47.7 Q-38.7 -49.3 -38.0 -50.15 -36.95 -51.35 -34.05 -52.0 -31.85 -52.5 -31.65 -51.05 L-31.5 -48.1 -31.05 -46.6 -29.45 -43.0 -28.45 -41.2 -26.95 -38.7 -25.7 -38.85 -25.25 -38.9 -23.65 -41.15 Q-20.95 -44.7 -19.85 -48.15 L-19.7 -48.95 -19.35 -51.1 Q-19.15 -52.25 -18.75 -52.75 M1.85 -76.25 Q-4.75 -71.85 -4.75 -67.4 -4.75 -65.75 -2.55 -62.4 L-0.75 -60.0 -0.3 -59.65 Q1.25 -58.6 2.7 -58.6 L3.2 -58.6 Q5.6 -59.05 7.75 -61.1 9.9 -63.2 9.9 -64.15 9.9 -64.75 8.1 -66.7 L6.25 -68.5 7.3 -72.7 7.4 -73.25 Q7.85 -75.85 8.4 -77.35 8.2 -78.6 6.4 -78.3 4.5 -78.05 1.85 -76.25 M7.2 -58.35 L6.95 -58.75 5.15 -58.3 2.7 -57.9 Q2.15 -57.9 -2.0 -59.85 L-3.8 -60.65 -4.2 -61.1 -4.6 -61.6 -5.15 -61.0 Q-5.6 -61.0 -5.6 -60.7 L-5.55 -60.5 Q-7.3 -58.45 -7.3 -56.7 -7.3 -54.65 -6.7 -52.9 L-6.45 -52.95 -6.4 -52.95 Q-3.65 -53.4 0.25 -52.3 2.7 -51.65 4.75 -50.6 L4.9 -50.5 4.75 -50.85 3.85 -53.0 Q3.85 -53.7 5.65 -55.0 7.45 -56.25 7.45 -56.9 L7.05 -58.0 7.2 -58.35 M-18.85 -25.75 L-18.9 -24.7 Q-18.9 -23.8 -17.15 -22.35 -14.7 -20.3 -11.1 -20.3 L-10.9 -20.3 -8.7 -20.05 Q-4.75 -20.05 -2.0 -21.8 4.55 -24.55 9.1 -37.75 L9.5 -41.35 9.5 -41.8 9.5 -42.7 Q9.5 -44.4 7.7 -46.5 L6.15 -48.1 Q2.45 -51.6 -1.65 -51.6 L-6.55 -51.25 Q-6.65 -49.8 -7.1 -47.7 L-5.1 -46.05 Q-1.05 -42.75 -1.05 -41.05 L-1.05 -40.7 -1.05 -40.3 -1.15 -39.15 -1.55 -37.7 -1.6 -37.6 -1.8 -37.1 -2.65 -35.15 -3.5 -33.7 Q-6.05 -29.15 -8.55 -28.85 -9.9 -28.3 -11.45 -28.1 L-14.75 -27.7 -17.15 -27.9 Q-18.3 -28.2 -18.7 -26.75 L-18.85 -25.75 M-7.5 -15.05 L-8.35 -15.15 -10.15 -15.35 -10.2 -15.35 Q-11.65 -15.45 -11.95 -15.05 L-12.05 -14.7 -12.25 -14.15 -12.15 -13.65 -12.15 -13.4 -12.15 -13.35 Q-12.15 -12.25 -11.8 -11.25 L-11.3 -10.1 Q-10.4 -8.65 -8.75 -7.95 L-8.1 -7.45 Q-4.45 -5.55 0.7 -5.55 7.45 -5.55 12.35 -12.8 14.05 -15.25 15.2 -18.1 16.1 -20.35 16.1 -21.25 16.1 -27.85 12.65 -32.6 L10.15 -35.2 Q9.35 -32.3 6.65 -28.25 L6.35 -27.75 6.8 -27.4 Q8.4 -25.85 8.4 -24.35 L8.2 -23.35 Q7.9 -22.1 6.65 -19.8 L5.95 -18.6 Q3.45 -14.25 1.45 -14.25 L1.3 -14.25 1.1 -14.2 0.45 -14.0 -7.5 -15.05 M6.85 -22.6 L6.95 -23.55 Q5.75 -25.5 5.4 -26.4 3.35 -23.6 1.35 -21.9 L0.6 -20.95 Q-2.0 -18.75 -9.8 -18.75 L-12.65 -19.0 -11.75 -17.35 -10.7 -16.4 -9.45 -16.0 -8.55 -15.7 -4.6 -15.2 Q1.1 -15.5 4.15 -18.2 L5.1 -19.65 6.85 -22.6 M-11.9 -53.55 Q-15.7 -54.45 -17.2 -51.15 -17.5 -49.85 -19.2 -46.35 L-21.15 -42.15 -21.9 -41.1 Q-23.5 -38.6 -23.75 -37.5 L-23.9 -36.9 -23.7 -36.7 -23.7 -36.6 -23.55 -36.05 -23.35 -35.2 Q-22.85 -34.3 -22.1 -33.85 -21.25 -32.95 -20.35 -32.85 L-20.35 -33.1 -20.1 -32.95 Q-19.4 -32.95 -18.9 -33.3 L-18.85 -33.15 Q-17.3 -33.95 -15.05 -36.45 -12.65 -39.1 -11.1 -41.75 -9.3 -44.65 -8.8 -46.5 L-8.55 -47.45 -8.25 -48.1 -8.2 -49.6 -8.35 -50.7 Q-8.55 -51.4 -9.05 -51.95 L-9.0 -52.0 -9.4 -52.35 Q-10.5 -53.2 -11.9 -53.55 M-7.45 -46.15 Q-8.35 -42.55 -9.25 -41.0 -10.7 -38.6 -14.4 -34.75 -17.15 -31.9 -18.35 -31.15 L-18.1 -30.3 -17.5 -29.95 -15.7 -29.15 -9.25 -29.8 -8.95 -29.8 -6.65 -31.75 Q-4.15 -34.2 -2.55 -38.15 -2.2 -39.55 -2.2 -41.25 -2.2 -42.25 -7.3 -46.6 L-7.45 -46.15 M-10.35 -49.15 L-10.3 -49.7 -10.25 -49.1 -10.35 -49.15 M-26.6 -18.85 L-26.45 -18.55 -25.45 -16.6 -25.25 -16.6 -25.25 -16.15 Q-20.95 -8.7 -14.9 -8.7 -13.6 -8.7 -12.3 -9.5 L-12.6 -10.75 Q-12.85 -14.4 -13.05 -15.35 L-13.05 -17.25 -14.55 -19.55 Q-16.35 -20.3 -17.6 -21.6 -19.5 -23.65 -19.5 -25.6 L-19.2 -27.25 -18.95 -27.65 Q-19.7 -29.5 -20.05 -31.15 -20.9 -31.55 -21.95 -32.65 L-22.5 -33.25 -23.2 -34.0 -23.3 -34.1 -23.45 -34.3 -23.6 -34.5 -25.75 -37.3 Q-26.65 -37.1 -27.4 -36.6 L-28.0 -35.6 Q-29.45 -33.15 -29.45 -31.8 L-29.75 -31.55 -29.85 -29.85 -29.85 -29.75 Q-29.8 -28.65 -29.0 -25.7 L-28.4 -23.55 -27.45 -20.85 -27.45 -20.8 -27.3 -20.7 -27.15 -20.15 -26.6 -18.85 M-28.95 -38.45 L-30.9 -43.25 Q-33.0 -48.25 -33.0 -50.5 -36.35 -51.35 -37.3 -48.25 -37.65 -47.1 -37.65 -44.3 -37.65 -43.1 -36.75 -40.7 L-36.7 -40.65 -36.55 -40.65 -36.45 -40.15 -36.5 -40.0 -35.9 -38.6 Q-33.65 -33.65 -31.2 -33.65 L-31.0 -33.7 -31.0 -33.8 -30.35 -33.65 Q-29.55 -33.65 -28.8 -35.2 -28.15 -36.55 -28.15 -37.4 -28.15 -37.9 -28.9 -38.4 L-28.95 -38.45 M-30.05 -37.4 L-30.3 -36.8 -30.15 -37.25 -30.05 -37.4 M-33.0 -32.35 Q-35.4 -34.05 -36.95 -38.8 L-38.25 -35.25 -38.3 -35.15 -38.5 -34.5 -39.25 -32.15 -39.3 -30.65 -39.25 -29.9 Q-39.05 -28.05 -38.3 -26.8 L-38.4 -26.7 -39.35 -28.45 Q-38.65 -26.75 -36.9 -24.5 -34.9 -21.9 -32.85 -20.35 L-32.2 -20.15 -32.1 -20.35 -31.7 -20.3 -31.35 -20.0 -28.5 -20.35 -29.15 -21.8 -30.5 -25.2 -31.15 -27.95 -31.15 -28.65 -31.25 -28.65 Q-32.1 -28.65 -33.25 -29.85 L-33.9 -30.65 -33.85 -30.65 -34.2 -31.05 -34.4 -31.4 -34.2 -31.4 -32.8 -30.65 -32.8 -30.6 -32.05 -30.2 -31.25 -29.75 -31.15 -29.65 -31.15 -30.2 -31.1 -31.55 -31.5 -31.65 -31.9 -31.75 -33.0 -32.35 M-29.4 -18.85 L-29.6 -18.85 -30.9 -18.95 -31.15 -17.6 -31.35 -16.45 -31.45 -15.95 Q-31.45 -12.65 -30.15 -10.25 L-29.35 -9.0 Q-27.05 -6.15 -22.55 -6.15 -21.1 -6.15 -19.4 -7.25 L-17.6 -8.4 Q-19.45 -9.2 -21.4 -10.55 L-24.9 -13.5 -25.3 -13.95 -25.75 -14.5 -25.85 -14.4 -26.15 -14.1 -26.35 -13.75 -26.7 -13.15 -28.05 -11.6 -28.1 -11.55 -28.25 -11.4 Q-28.4 -11.3 -28.6 -11.15 L-28.6 -11.2 -28.7 -11.2 -28.75 -11.2 -29.15 -11.1 -29.25 -11.4 -29.1 -11.45 -29.15 -11.5 -29.0 -11.7 -28.75 -11.6 -28.3 -11.95 -27.45 -13.7 -27.1 -14.35 -26.75 -15.2 -26.7 -15.45 -26.6 -16.35 -26.85 -16.6 -26.9 -16.75 -27.95 -19.1 -29.4 -18.85" fill="#000000" fill-rule="evenodd" stroke="none"/>
      <path d="M1.85 -76.25 Q4.5 -78.05 6.4 -78.3 8.2 -78.6 8.4 -77.35 7.85 -75.85 7.4 -73.25 L7.3 -72.7 6.25 -68.5 8.1 -66.7 Q9.9 -64.75 9.9 -64.15 9.9 -63.2 7.75 -61.1 5.6 -59.05 3.2 -58.6 L2.7 -58.6 Q1.25 -58.6 -0.3 -59.65 L-0.75 -60.0 -2.55 -62.4 Q-4.75 -65.75 -4.75 -67.4 -4.75 -71.85 1.85 -76.25 M7.2 -58.35 L7.05 -58.0 7.45 -56.9 Q7.45 -56.25 5.65 -55.0 3.85 -53.7 3.85 -53.0 L4.75 -50.85 4.9 -50.5 4.75 -50.6 Q2.7 -51.65 0.25 -52.3 -3.65 -53.4 -6.4 -52.95 L-6.45 -52.95 -6.7 -52.9 Q-7.3 -54.65 -7.3 -56.7 -7.3 -58.45 -5.55 -60.5 L-5.6 -60.7 Q-5.6 -61.0 -5.15 -61.0 L-4.6 -61.6 -4.2 -61.1 -3.8 -60.65 -2.0 -59.85 Q2.15 -57.9 2.7 -57.9 L5.15 -58.3 6.95 -58.75 7.2 -58.35 M-2.65 -35.15 L-1.8 -37.1 -1.6 -37.6 -1.55 -37.7 -1.15 -39.15 -1.05 -40.3 -1.05 -40.7 -1.05 -41.05 Q-1.05 -42.75 -5.1 -46.05 L-7.1 -47.7 Q-6.65 -49.8 -6.55 -51.25 L-1.65 -51.6 Q2.45 -51.6 6.15 -48.1 L7.7 -46.5 Q9.5 -44.4 9.5 -42.7 L9.5 -41.8 9.5 -41.35 9.1 -37.75 Q4.55 -24.55 -2.0 -21.8 -4.75 -20.05 -8.7 -20.05 L-10.9 -20.3 -11.1 -20.3 Q-14.7 -20.3 -17.15 -22.35 -18.9 -23.8 -18.9 -24.7 L-18.85 -25.75 -17.4 -25.35 -10.6 -23.75 -5.45 -23.75 Q-1.75 -28.0 1.2 -32.6 L0.75 -31.95 -2.65 -35.15 M6.65 -19.8 Q7.9 -22.1 8.2 -23.35 L8.4 -24.35 Q8.4 -25.85 6.8 -27.4 L6.35 -27.75 6.65 -28.25 Q9.35 -32.3 10.15 -35.2 L12.65 -32.6 Q16.1 -27.85 16.1 -21.25 16.1 -20.35 15.2 -18.1 14.05 -15.25 12.35 -12.8 7.45 -5.55 0.7 -5.55 -4.45 -5.55 -8.1 -7.45 L-8.75 -7.95 Q-10.4 -8.65 -11.3 -10.1 L-11.8 -11.25 Q-12.15 -12.25 -12.15 -13.35 L-12.15 -13.4 -12.15 -13.65 -12.25 -14.15 -12.05 -14.7 -11.95 -15.05 Q-11.65 -15.45 -10.2 -15.35 L-10.15 -15.35 -8.35 -15.15 -7.5 -15.05 -9.1 -12.95 -9.9 -10.15 Q-7.0 -9.15 -0.55 -9.15 L2.5 -9.3 2.95 -9.85 5.75 -14.05 6.2 -16.25 6.65 -19.8 M-11.9 -53.55 Q-10.5 -53.2 -9.4 -52.35 L-9.0 -52.0 -9.05 -51.95 Q-8.55 -51.4 -8.35 -50.7 L-8.2 -49.6 -8.25 -48.1 -8.55 -47.45 -8.8 -46.5 Q-9.3 -44.65 -11.1 -41.75 -12.65 -39.1 -15.05 -36.45 -17.3 -33.95 -18.85 -33.15 L-18.9 -33.3 Q-19.4 -32.95 -20.1 -32.95 L-20.35 -33.1 -20.35 -32.85 Q-21.25 -32.95 -22.1 -33.85 -22.85 -34.3 -23.35 -35.2 L-23.55 -36.05 -23.7 -36.6 -23.7 -36.7 -23.9 -36.9 -23.75 -37.5 Q-23.5 -38.6 -21.9 -41.1 L-21.15 -42.15 -19.2 -46.35 Q-17.5 -49.85 -17.2 -51.15 -15.7 -54.45 -11.9 -53.55 M-10.35 -49.15 L-10.25 -49.1 -10.3 -49.7 -10.35 -49.15 M-23.2 -34.0 L-22.5 -33.25 -21.95 -32.65 Q-20.9 -31.55 -20.05 -31.15 -19.7 -29.5 -18.95 -27.65 L-19.2 -27.25 -19.5 -25.6 Q-19.5 -23.65 -17.6 -21.6 -16.35 -20.3 -14.55 -19.55 L-13.05 -17.25 -13.05 -15.35 Q-12.85 -14.4 -12.6 -10.75 L-12.3 -9.5 Q-13.6 -8.7 -14.9 -8.7 -20.95 -8.7 -25.25 -16.15 L-25.25 -16.6 -25.45 -16.6 -26.45 -18.55 -26.6 -18.85 -25.05 -25.7 -23.15 -33.9 -23.2 -34.0 M-30.05 -37.4 L-30.15 -37.25 -30.3 -36.8 -30.05 -37.4 M-28.95 -38.45 L-28.9 -38.4 Q-28.15 -37.9 -28.15 -37.4 -28.15 -36.55 -28.8 -35.2 -29.55 -33.65 -30.35 -33.65 L-31.0 -33.8 -31.0 -33.7 -31.2 -33.65 Q-33.65 -33.65 -35.9 -38.6 L-36.5 -40.0 -36.45 -40.15 -36.55 -40.65 -36.7 -40.65 -36.75 -40.7 Q-37.65 -43.1 -37.65 -44.3 -37.65 -47.1 -37.3 -48.25 -36.35 -51.35 -33.0 -50.5 -33.0 -48.25 -30.9 -43.25 L-28.95 -38.45 M-33.0 -32.35 L-33.0 -31.75 -32.8 -30.65 -34.2 -31.4 -34.4 -31.4 -34.2 -31.05 -33.85 -30.65 -33.9 -30.65 Q-34.9 -31.1 -35.1 -31.5 -35.55 -32.25 -38.6 -34.15 L-38.5 -34.5 -38.3 -35.15 -38.25 -35.25 -36.95 -38.8 Q-35.4 -34.05 -33.0 -32.35 M-30.5 -25.2 L-29.15 -21.8 -28.5 -20.35 -31.35 -20.0 -31.7 -20.3 -32.1 -20.35 -32.2 -20.15 -32.85 -20.35 Q-34.9 -21.9 -36.9 -24.5 -38.65 -26.75 -39.35 -28.45 L-38.4 -26.7 -38.3 -26.8 Q-39.05 -28.05 -39.25 -29.9 L-39.0 -29.65 Q-34.35 -25.0 -31.9 -25.0 L-30.5 -25.2 M-31.35 -16.45 L-31.15 -17.6 -30.9 -18.95 -29.6 -18.85 -29.4 -18.85 -28.95 -17.85 Q-28.0 -16.05 -26.75 -15.2 L-27.1 -14.35 Q-29.3 -14.65 -31.35 -16.45 M-26.35 -13.75 L-26.15 -14.1 -25.85 -14.4 -25.75 -14.5 -25.3 -13.95 -24.9 -13.5 -21.4 -10.55 Q-19.45 -9.2 -17.6 -8.4 L-19.4 -7.25 Q-21.1 -6.15 -22.55 -6.15 -27.05 -6.15 -29.35 -9.0 L-26.05 -10.15 -26.35 -13.75" fill="#bfcbb1" fill-rule="evenodd" stroke="none"/>
      <path d="M-2.65 -35.15 L0.75 -31.95 1.2 -32.6 Q-1.75 -28.0 -5.45 -23.75 L-10.6 -23.75 -17.4 -25.35 -18.85 -25.75 -18.7 -26.75 Q-18.3 -28.2 -17.15 -27.9 L-14.75 -27.7 -11.45 -28.1 Q-9.9 -28.3 -8.55 -28.85 -6.05 -29.15 -3.5 -33.7 L-2.65 -35.15 M6.65 -19.8 L6.2 -16.25 5.75 -14.05 2.95 -9.85 2.5 -9.3 -0.55 -9.15 Q-7.0 -9.15 -9.9 -10.15 L-9.1 -12.95 -7.5 -15.05 0.45 -14.0 1.1 -14.2 1.3 -14.25 1.45 -14.25 Q3.45 -14.25 5.95 -18.6 L6.65 -19.8 M-26.6 -18.85 L-27.15 -20.15 -27.3 -20.7 -27.45 -20.8 -27.45 -20.85 -28.4 -23.55 -29.0 -25.7 Q-29.8 -28.65 -29.85 -29.75 L-29.85 -29.85 -29.75 -31.55 -29.45 -31.8 Q-29.45 -33.15 -28.0 -35.6 L-27.4 -36.6 Q-26.65 -37.1 -25.75 -37.3 L-23.6 -34.5 -23.45 -34.3 -23.3 -34.1 -23.2 -34.0 -23.15 -33.9 -25.05 -25.7 -26.6 -18.85 M-38.5 -34.5 L-38.6 -34.15 Q-35.55 -32.25 -35.1 -31.5 -34.9 -31.1 -33.9 -30.65 L-33.25 -29.85 Q-32.1 -28.65 -31.25 -28.65 L-31.15 -28.65 -31.15 -27.95 -30.5 -25.2 -31.9 -25.0 Q-34.35 -25.0 -39.0 -29.65 L-39.25 -29.9 -39.3 -30.65 -39.25 -32.15 -38.5 -34.5 M-31.35 -16.45 Q-29.3 -14.65 -27.1 -14.35 L-27.45 -13.7 -28.3 -11.95 -28.75 -11.6 -29.0 -11.7 -29.15 -11.5 -29.1 -11.45 -29.25 -11.4 -29.15 -11.1 -28.75 -11.2 -28.7 -11.2 -28.6 -11.2 -28.6 -11.15 Q-28.4 -11.3 -28.25 -11.4 L-28.1 -11.55 -28.05 -11.6 -26.7 -13.15 -26.35 -13.75 -26.05 -10.15 -29.35 -9.0 -30.15 -10.25 Q-31.45 -12.65 -31.45 -15.95 L-31.35 -16.45" fill="#ffffff" fill-rule="evenodd" stroke="none"/>
      <path d="M-31.05 -46.6 L-31.15 -47.0 Q-28.85 -50.7 -24.05 -52.15 -21.4 -52.95 -18.75 -52.75 -19.15 -52.25 -19.35 -51.1 L-19.7 -48.95 -19.85 -48.15 Q-20.95 -44.7 -23.65 -41.15 L-25.25 -38.9 -25.7 -38.85 -26.95 -38.7 -28.45 -41.2 -29.45 -43.0 -31.05 -46.6 M6.85 -22.6 L5.1 -19.65 4.15 -18.2 Q1.1 -15.5 -4.6 -15.2 L-8.55 -15.7 -9.45 -16.0 -10.7 -16.4 -11.75 -17.35 -12.65 -19.0 -9.8 -18.75 Q-2.0 -18.75 0.6 -20.95 L1.35 -21.9 Q3.35 -23.6 5.4 -26.4 5.75 -25.5 6.95 -23.55 L6.85 -22.6 M-7.45 -46.15 L-7.3 -46.6 Q-2.2 -42.25 -2.2 -41.25 -2.2 -39.55 -2.55 -38.15 -4.15 -34.2 -6.65 -31.75 L-8.95 -29.8 -9.25 -29.8 -15.7 -29.15 -17.5 -29.95 -18.1 -30.3 -18.35 -31.15 Q-17.15 -31.9 -14.4 -34.75 -10.7 -38.6 -9.25 -41.0 -8.35 -42.55 -7.45 -46.15 M-32.8 -30.65 L-33.0 -31.75 -33.0 -32.35 -31.9 -31.75 -31.5 -31.65 -31.1 -31.55 -31.15 -30.2 -31.15 -29.65 -31.25 -29.75 -32.05 -30.2 -32.8 -30.6 -32.8 -30.65 M-26.75 -15.2 Q-28.0 -16.05 -28.95 -17.85 L-29.4 -18.85 -27.95 -19.1 -26.9 -16.75 -26.85 -16.6 -26.6 -16.35 -26.7 -15.45 -26.75 -15.2" fill="#080808" fill-rule="evenodd" stroke="none"/>
    </g>
    <g id="sprite5" transform="matrix(1, 0, 0, 1, 12.75, 19.15)">
      <use height="25.05" transform="matrix(1.0, 0.0, 0.0, 1.0, -12.75, -19.15)" width="50.2" xlink:href="#shape4"/>
    </g>
    <g id="shape4" transform="matrix(1, 0, 0, 1, 12.75, 19.15)">
      <path d="M-9.8 -1.8 Q-8.85 0.45 -7.15 2.15 L-7.1 2.2 Q-4.75 4.55 -1.85 4.55 2.7 4.6 8.9 -0.85 L9.25 -1.15 16.0 -0.95 21.85 -1.35 Q22.85 -1.05 23.35 -0.55 L26.1 3.2 Q26.8 3.9 27.95 3.95 30.1 4.0 32.95 1.15 36.35 -2.25 35.15 -6.55 34.6 -8.7 33.45 -10.15 L33.3 -10.3 32.9 -10.7 32.8 -10.75 32.8 -10.8 31.35 -11.75 31.25 -11.85 30.9 -12.0 30.85 -11.95 30.55 -12.15 Q28.45 -13.15 27.5 -12.9 25.4 -11.4 23.55 -10.6 L23.35 -10.35 Q22.75 -9.75 20.15 -9.65 L18.45 -9.65 Q18.35 -9.65 18.25 -9.75 L12.8 -10.1 10.5 -10.1 7.5 -10.2 Q5.9 -10.3 4.75 -11.25 2.7 -12.1 1.6 -13.7 L1.5 -13.8 0.8 -14.5 0.05 -15.15 Q-1.55 -16.25 -3.65 -16.05 -8.1 -15.7 -11.0 -8.4 -11.15 -5.15 -10.05 -2.35 L-9.8 -1.8 M4.0 -13.8 Q5.6 -12.6 14.5 -12.2 L21.25 -11.95 21.45 -12.15 Q22.8 -12.5 27.4 -15.2 29.95 -15.35 31.15 -14.65 L32.5 -13.7 34.0 -12.3 34.2 -12.1 34.8 -11.1 35.0 -10.8 36.9 -8.0 Q37.95 -5.55 37.0 -2.9 36.45 -0.35 34.3 1.8 30.6 5.5 28.5 5.9 27.0 6.1 25.3 4.4 22.75 1.85 21.6 1.2 18.8 -0.4 14.7 0.1 12.55 0.35 9.3 2.0 L9.35 1.55 7.7 2.8 6.15 3.65 4.3 4.7 Q1.0 6.1 -2.3 5.5 -6.2 4.8 -9.3 1.7 -11.0 0.0 -11.95 -3.15 L-12.75 -6.75 -12.65 -8.35 -12.3 -9.8 -12.05 -11.05 Q-11.6 -12.7 -10.5 -13.75 L-9.6 -14.7 Q-6.85 -17.45 -5.6 -18.0 L-2.85 -19.15 -2.8 -19.1 -1.45 -18.95 1.2 -16.3 4.0 -13.8 M27.55 -14.75 L27.85 -14.85 27.7 -14.9 27.55 -14.75" fill="#000000" fill-rule="evenodd" stroke="none"/>
      <path d="M-9.8 -1.8 Q-8.55 -1.35 -7.45 -0.55 -6.4 0.2 -6.0 0.2 -4.75 0.45 -0.15 -4.15 L0.35 -4.55 Q1.0 -9.7 0.1 -15.0 0.0 -15.1 0.05 -15.15 L0.8 -14.5 1.5 -13.8 1.6 -13.7 Q2.7 -12.1 4.75 -11.25 5.9 -10.3 7.5 -10.2 L10.5 -10.1 Q9.65 -8.35 10.05 -6.95 10.2 -6.25 10.7 -5.1 L15.3 -4.6 19.05 -5.25 23.1 -5.4 Q24.0 -4.9 25.15 -3.65 L27.1 -1.7 30.85 -11.95 30.9 -12.0 31.25 -11.85 31.35 -11.75 32.8 -10.8 32.8 -10.75 32.9 -10.7 33.3 -10.3 33.45 -10.15 Q34.6 -8.7 35.15 -6.55 36.35 -2.25 32.95 1.15 30.1 4.0 27.95 3.95 26.8 3.9 26.1 3.2 L23.35 -0.55 Q22.85 -1.05 21.85 -1.35 L16.0 -0.95 9.25 -1.15 8.9 -0.85 Q2.7 4.6 -1.85 4.55 -4.75 4.55 -7.1 2.2 L-7.15 2.15 Q-8.85 0.45 -9.8 -1.8" fill="#bfcbb1" fill-rule="evenodd" stroke="none"/>
      <path d="M0.05 -15.15 Q0.0 -15.1 0.1 -15.0 1.0 -9.7 0.35 -4.55 L-0.15 -4.15 Q-4.75 0.45 -6.0 0.2 -6.4 0.2 -7.45 -0.55 -8.55 -1.35 -9.8 -1.8 L-10.05 -2.35 Q-11.15 -5.15 -11.0 -8.4 -8.1 -15.7 -3.65 -16.05 -1.55 -16.25 0.05 -15.15 M30.85 -11.95 L27.1 -1.7 25.15 -3.65 Q24.0 -4.9 23.1 -5.4 L19.05 -5.25 15.3 -4.6 10.7 -5.1 Q10.2 -6.25 10.05 -6.95 9.65 -8.35 10.5 -10.1 L12.8 -10.1 18.25 -9.75 Q18.35 -9.65 18.45 -9.65 L20.15 -9.65 Q22.75 -9.75 23.35 -10.35 L23.55 -10.6 Q25.4 -11.4 27.5 -12.9 28.45 -13.15 30.55 -12.15 L30.85 -11.95" fill="#ffffff" fill-rule="evenodd" stroke="none"/>
    </g>
    <g id="sprite6" transform="matrix(1, 0, 0, 1, 13.15, 16.85)">
      <use height="90.7" transform="matrix(1.0, 0.0, 0.0, 1.0, -13.15, -16.85)" width="45.85" xlink:href="#shape5"/>
    </g>
    <g id="shape5" transform="matrix(1, 0, 0, 1, 13.15, 16.85)">
      <path d="M10.05 -14.1 L9.8 -14.35 Q9.0 -15.15 6.1 -15.45 2.7 -15.75 1.15 -14.2 -3.05 -10.0 -2.45 -7.2 -1.85 -4.6 3.85 0.1 5.85 1.7 7.35 7.2 8.45 11.0 8.25 12.6 L13.2 12.85 13.25 12.9 13.5 12.95 13.65 13.0 13.8 12.95 14.3 13.05 16.05 13.6 Q18.25 14.3 20.45 15.5 L18.95 9.6 Q17.35 2.7 15.55 0.5 12.9 -2.75 12.25 -5.6 12.0 -6.85 12.05 -8.1 L12.1 -10.85 Q11.7 -12.35 10.05 -14.1 M6.5 -16.75 Q10.5 -16.45 11.65 -15.3 12.65 -14.3 13.1 -10.95 13.7 -6.6 14.05 -5.7 14.5 -4.35 16.0 -1.85 17.6 0.75 18.1 2.05 19.1 4.45 20.65 10.8 21.55 13.8 22.6 15.85 23.25 16.3 24.0 17.05 L25.6 18.95 26.9 19.75 28.65 21.5 Q30.35 23.2 30.75 28.6 L31.2 36.15 Q32.15 37.4 32.45 38.6 33.15 41.1 31.9 44.25 32.15 45.7 31.5 48.5 L31.05 50.45 Q30.8 51.45 30.9 52.95 31.7 57.95 29.05 60.6 L27.5 62.15 26.15 63.6 26.05 63.7 Q25.3 66.65 22.8 69.15 20.15 71.8 16.95 71.6 14.75 71.5 14.05 70.8 L13.7 70.35 12.55 71.6 Q9.7 74.45 6.0 73.65 3.55 73.2 2.4 72.05 1.05 70.7 1.65 67.1 L2.3 64.05 1.7 63.45 Q1.1 62.85 1.4 58.85 1.6 56.45 2.05 55.0 L-1.45 58.4 -1.5 58.85 -1.45 59.0 Q-1.35 59.9 -1.7 61.15 -2.4 63.55 -4.5 65.65 -7.4 68.55 -10.15 68.1 -11.5 67.85 -12.6 66.75 -13.55 65.8 -12.9 59.35 L-12.9 57.65 -12.9 56.95 -12.8 55.65 -12.75 55.1 -12.7 54.75 -12.4 52.25 Q-12.1 50.1 -11.5 48.95 L-11.3 48.45 -10.7 46.65 Q-9.75 44.7 -8.0 43.85 L-8.0 43.15 -8.5 41.05 -8.6 40.65 -9.35 39.7 -10.25 38.8 Q-13.05 36.0 -12.8 33.05 -12.5 29.5 -7.9 22.85 L-7.95 20.1 -7.75 15.7 Q-8.4 11.25 -10.7 6.85 -15.05 -1.2 -11.15 -4.5 -9.6 -5.75 -7.4 -5.55 -5.1 -5.25 -3.4 -3.5 -2.7 -2.85 0.0 6.35 L2.0 14.45 Q3.95 13.4 6.2 12.95 L5.55 9.5 Q4.75 5.4 3.9 3.35 3.25 1.7 1.35 -0.25 L-1.95 -3.5 Q-6.1 -5.45 -3.55 -10.7 L-1.25 -14.2 0.5 -15.95 Q2.35 -17.1 6.5 -16.75 M13.35 19.1 L13.75 18.9 Q15.2 18.25 16.75 18.1 L18.55 18.3 Q19.7 19.45 20.5 21.75 L20.8 21.95 21.65 22.0 22.7 22.95 23.1 23.35 Q23.0 22.45 23.15 21.6 23.2 19.95 23.8 19.55 L23.15 18.6 22.8 18.25 20.8 16.55 Q17.8 14.55 14.15 13.95 L14.1 13.95 12.9 13.75 Q4.45 13.2 -4.25 21.9 L-6.55 24.3 -6.65 24.6 -7.05 25.0 Q-9.3 27.75 -10.3 29.95 -10.85 32.2 -10.7 34.25 L-10.45 35.7 Q-9.8 37.25 -8.3 38.55 L-8.15 38.7 -4.6 31.45 -0.9 27.75 Q-0.6 23.85 2.0 22.75 4.7 21.65 7.0 23.5 L7.3 23.15 7.4 23.15 8.25 22.8 10.9 21.75 Q11.05 20.2 13.35 19.1 M20.85 22.95 L21.75 28.0 Q22.5 34.55 21.25 38.5 22.1 38.6 22.5 39.0 24.0 40.5 24.5 43.2 L24.6 43.75 Q24.8 41.65 25.5 39.55 L26.2 37.75 24.9 32.9 23.95 27.8 Q23.45 26.1 23.25 24.4 L21.9 23.55 Q21.4 23.15 20.85 22.95 M24.75 21.0 Q24.45 21.2 24.75 21.9 24.1 25.25 25.35 29.8 26.55 34.15 26.85 36.6 27.6 35.45 28.55 35.4 28.9 33.15 28.9 30.65 L28.95 29.8 Q28.2 25.05 27.2 22.85 L25.75 21.25 Q25.1 20.85 24.75 21.0 M-2.6 17.95 L0.1 15.65 0.35 15.4 -1.8 7.55 Q-4.35 -1.6 -5.3 -2.55 -5.8 -3.05 -7.15 -3.2 L-7.3 -3.25 -9.3 -3.4 Q-12.6 -1.85 -11.3 2.75 -10.35 6.15 -9.15 7.35 L-7.75 9.3 -6.15 11.6 Q-5.95 11.8 -6.3 15.55 L-6.3 18.45 -6.45 22.4 -5.9 21.95 Q-4.3 19.65 -2.6 17.95 M3.2 23.25 L3.1 23.35 Q1.25 25.2 0.6 27.5 L0.75 27.6 0.5 27.85 Q-0.25 31.0 1.1 35.05 L2.95 39.9 3.4 41.05 Q4.05 40.5 4.85 40.2 L5.05 40.2 5.25 40.1 6.6 39.85 7.0 39.85 7.95 39.9 7.25 32.7 Q6.5 25.05 5.95 24.5 5.6 24.15 4.45 23.65 L3.2 23.25 M7.4 24.65 L8.05 30.6 8.85 40.1 Q10.2 40.6 11.45 41.8 13.25 43.6 13.5 44.55 14.25 47.2 10.8 50.65 L10.75 50.7 Q12.35 50.6 12.95 51.2 L13.35 52.5 14.05 51.7 14.55 51.1 16.05 49.7 15.45 48.0 14.3 44.25 Q13.95 42.4 15.1 41.05 14.2 32.45 13.1 29.35 L12.25 26.4 11.25 23.4 11.05 22.8 10.05 23.4 7.7 24.05 7.55 24.5 7.4 24.65 M15.5 19.45 Q14.65 19.8 13.95 20.5 L12.35 22.3 14.95 32.0 Q16.05 36.6 16.05 40.3 L16.7 39.85 16.85 39.7 17.6 39.45 Q19.45 38.6 20.7 38.55 20.9 34.95 20.7 31.05 20.25 22.3 17.35 19.4 L16.1 19.35 15.5 19.45 M7.1 50.65 Q8.85 50.9 10.1 49.65 13.05 46.7 12.25 44.4 12.0 43.85 10.55 42.4 L10.45 42.3 9.25 41.4 8.8 41.25 7.15 41.0 Q5.3 41.15 3.85 42.4 2.4 43.75 2.1 45.35 1.9 47.15 3.25 48.5 L4.75 49.7 5.95 50.3 6.65 50.5 7.1 50.65 M0.6 38.35 Q-0.55 34.3 -0.9 31.15 L-0.95 29.8 -3.15 32.2 Q-4.85 34.1 -5.65 35.9 L-7.1 40.05 -6.1 40.45 -6.05 40.6 -6.3 41.1 -7.05 41.3 -6.7 42.85 -4.7 43.15 Q-2.8 43.55 -2.45 43.9 L0.85 47.7 Q2.7 50.25 2.55 51.6 L2.35 52.2 3.75 52.8 5.0 52.15 6.4 51.65 5.75 51.4 5.35 51.2 2.65 49.1 Q0.75 47.2 1.0 44.95 1.1 43.55 2.0 42.4 1.4 41.35 0.6 38.35 M18.8 40.25 Q17.65 41.1 16.65 42.4 14.05 46.2 16.3 49.45 L16.35 49.4 16.5 49.55 16.5 49.65 17.3 50.55 18.05 50.8 18.75 50.7 20.8 49.95 22.85 47.9 23.4 47.15 23.4 46.95 23.55 46.8 Q24.1 45.45 23.45 43.3 22.7 40.85 21.65 39.8 L21.05 39.5 20.9 39.55 19.3 39.95 18.8 40.25 M24.35 46.9 Q25.15 47.7 25.35 53.5 L25.4 57.05 26.45 56.4 27.05 55.8 26.75 55.9 Q28.1 54.05 28.9 52.4 29.65 50.8 29.85 49.2 L29.95 48.6 30.4 44.45 28.7 46.45 28.6 46.55 27.25 47.45 26.3 47.65 Q25.4 47.55 25.0 47.15 24.7 46.85 24.6 45.95 L24.35 46.9 M26.6 46.25 L27.25 46.1 27.7 45.75 27.85 45.6 Q30.55 42.9 30.8 40.3 30.85 38.5 30.2 37.85 28.0 35.65 26.45 39.8 25.1 43.65 25.75 46.2 L26.6 46.25 M29.3 54.05 L29.05 54.5 Q27.9 56.25 26.35 57.8 L26.05 58.1 25.95 58.2 25.65 58.3 25.35 58.5 Q25.85 59.1 25.9 60.95 L25.85 61.9 25.85 62.1 26.4 61.55 Q29.35 58.2 29.25 54.4 L29.3 54.05 M15.55 69.2 L15.75 69.3 15.9 69.35 16.0 69.45 16.25 69.5 16.25 69.55 16.5 69.55 16.55 69.6 16.65 69.6 17.1 69.65 17.8 69.65 18.05 69.6 Q20.1 69.35 21.6 67.85 23.3 66.15 24.05 64.2 L23.7 63.85 23.85 63.7 24.2 63.35 24.35 62.9 24.45 62.0 24.4 60.95 24.5 60.75 24.25 60.6 24.05 60.8 24.0 60.85 23.9 60.95 23.75 61.0 23.7 61.05 23.6 61.05 Q22.05 61.9 19.7 61.55 L19.35 61.4 16.15 61.1 15.85 61.3 16.05 61.55 15.5 63.35 15.25 64.3 Q14.7 66.75 14.85 68.05 L14.95 68.4 15.4 69.05 15.55 69.2 M18.6 60.45 L20.05 60.9 Q22.0 61.15 23.65 59.6 24.05 57.9 23.9 54.65 L23.5 48.45 22.6 49.55 Q21.05 51.1 18.9 51.45 L17.8 51.55 17.65 51.6 16.6 51.35 16.2 50.15 15.55 51.2 15.25 51.7 Q14.4 53.45 14.5 54.35 L14.7 54.85 15.0 55.4 15.85 56.7 16.4 58.25 16.4 58.15 16.75 58.7 17.15 59.4 18.6 60.45 M9.25 64.1 L11.9 61.95 12.05 61.8 12.2 59.6 Q12.45 57.4 12.8 55.75 L11.65 51.8 Q11.05 51.2 9.8 51.35 8.95 51.9 8.0 51.95 L7.85 51.9 7.5 52.05 Q4.6 53.25 4.0 54.55 3.65 55.4 3.4 59.25 L3.3 62.05 Q3.35 63.2 3.5 63.35 L3.65 63.5 3.75 63.5 4.25 64.1 4.45 64.2 4.5 64.25 5.35 64.8 6.2 65.05 Q7.55 65.2 9.25 64.1 M14.35 58.5 Q14.2 60.95 13.4 62.05 L14.05 63.6 Q14.15 63.5 14.2 63.55 L15.45 59.2 14.45 56.9 14.35 58.5 M-4.25 52.1 L0.75 52.3 0.95 52.1 1.0 52.05 Q2.15 50.8 0.05 47.9 L-0.05 47.7 -2.05 45.6 -2.15 45.4 -2.4 45.15 Q-3.0 44.55 -3.75 44.2 -4.5 43.85 -4.85 44.2 L-5.55 44.5 -8.1 45.85 Q-9.3 47.3 -9.6 48.55 L-9.8 49.95 -9.35 50.2 Q-8.3 50.85 -4.95 51.9 L-4.25 52.1 M9.9 65.15 Q7.35 66.6 5.1 65.95 L5.0 65.85 4.3 65.55 4.0 67.25 Q3.45 70.5 4.2 71.25 4.85 71.9 6.55 72.1 L8.6 71.85 8.55 71.9 9.05 71.7 10.2 70.85 11.15 69.8 Q12.5 67.85 12.7 65.15 L12.55 63.1 12.45 63.2 11.95 63.7 10.7 64.65 10.6 64.75 9.9 65.15 M17.0 62.55 L17.0 62.65 16.75 62.3 17.0 62.55 M-7.65 58.0 L-6.8 58.05 -6.7 58.05 -4.45 57.9 Q-3.4 57.55 -2.4 56.85 L-2.05 56.5 -1.7 55.85 -1.6 55.75 -0.35 53.6 Q-2.2 53.75 -5.0 52.85 L-5.95 52.6 -9.6 50.85 -10.6 50.45 -10.75 50.8 -11.6 53.45 Q-11.7 54.35 -11.1 55.55 L-10.95 55.7 -10.65 56.2 -10.25 56.7 Q-9.3 57.65 -7.65 58.0 M-7.4 59.4 L-8.45 59.0 -10.75 57.4 -11.2 57.05 -11.6 56.65 -11.5 59.55 -11.6 59.95 Q-11.4 64.55 -11.1 64.85 -9.55 66.4 -7.5 65.55 L-7.4 65.45 Q-6.4 65.05 -5.3 64.05 L-5.05 63.8 -4.95 63.7 Q-3.0 61.75 -2.95 59.8 L-3.1 59.05 -3.1 58.75 -3.25 58.9 -3.45 58.9 -4.45 59.35 -7.4 59.4" fill="#000000" fill-rule="evenodd" stroke="none"/>
      <path d="M14.3 13.05 L13.8 12.95 13.65 13.0 13.5 12.95 13.25 12.9 13.2 12.85 8.25 12.6 Q8.45 11.0 7.35 7.2 5.85 1.7 3.85 0.1 -1.85 -4.6 -2.45 -7.2 -3.05 -10.0 1.15 -14.2 2.7 -15.75 6.1 -15.45 9.0 -15.15 9.8 -14.35 L10.05 -14.1 9.65 -12.8 Q8.05 -7.8 6.9 -2.55 L8.45 -2.3 Q11.55 -1.7 12.2 -1.05 12.65 -0.6 14.3 13.05 M12.9 13.75 L12.5 13.75 13.35 14.9 Q14.25 16.3 13.35 19.1 11.05 20.2 10.9 21.75 L8.25 22.8 7.4 23.15 7.3 23.15 7.0 23.5 Q4.7 21.65 2.0 22.75 -0.6 23.85 -0.9 27.75 L-4.6 31.45 -8.15 38.7 -8.3 38.55 Q-9.8 37.25 -10.45 35.7 L-10.7 34.25 Q-10.85 32.2 -10.3 29.95 -9.3 27.75 -7.05 25.0 L-6.65 24.6 -6.55 24.3 -4.25 21.9 Q4.45 13.2 12.9 13.75 M-7.3 -3.25 L-4.8 5.85 -3.05 15.9 -2.6 17.95 Q-4.3 19.65 -5.9 21.95 L-6.45 22.4 -6.3 18.45 -6.3 15.55 Q-5.95 11.8 -6.15 11.6 L-7.75 9.3 -9.15 7.35 Q-10.35 6.15 -11.3 2.75 -12.6 -1.85 -9.3 -3.4 L-7.3 -3.25 M4.85 40.2 Q4.05 40.5 3.4 41.05 L2.95 39.9 1.1 35.05 Q-0.25 31.0 0.5 27.85 L0.75 27.6 0.6 27.5 Q1.25 25.2 3.1 23.35 L3.2 23.25 3.5 27.05 Q4.0 33.45 4.85 40.2 M16.7 39.85 L16.05 40.3 Q16.05 36.6 14.95 32.0 L12.35 22.3 13.95 20.5 Q14.65 19.8 15.5 19.45 L16.2 23.45 16.9 28.05 17.55 32.6 Q17.8 33.95 16.85 39.0 16.7 39.45 16.7 39.85 M8.8 41.25 L9.05 44.3 8.25 47.0 7.5 49.35 7.35 49.7 Q7.15 50.2 7.1 50.65 L6.65 50.5 5.95 50.3 4.75 49.7 3.25 48.5 Q1.9 47.15 2.1 45.35 2.4 43.75 3.85 42.4 5.3 41.15 7.15 41.0 L8.8 41.25 M18.05 50.8 L17.3 50.55 16.5 49.65 16.5 49.55 16.35 49.4 16.3 49.45 Q14.05 46.2 16.65 42.4 17.65 41.1 18.8 40.25 L18.95 41.2 Q19.45 45.2 18.3 49.55 L18.05 50.8 M19.35 61.4 L19.4 61.45 19.0 63.65 16.2 68.15 15.55 69.2 15.4 69.05 14.95 68.4 14.85 68.05 Q14.7 66.75 15.25 64.3 L15.5 63.35 16.05 61.55 15.85 61.3 16.15 61.1 19.35 61.4 M17.65 51.6 Q17.95 55.9 18.6 60.45 L17.15 59.4 16.75 58.7 16.4 58.15 16.4 58.25 15.85 56.7 15.0 55.4 14.7 54.85 14.5 54.35 Q14.4 53.45 15.25 51.7 L15.55 51.2 16.2 50.15 16.6 51.35 17.65 51.6 M9.25 64.1 Q7.55 65.2 6.2 65.05 L5.35 64.8 4.5 64.25 4.45 64.2 4.25 64.1 3.75 63.5 3.65 63.5 3.5 63.35 Q3.35 63.2 3.3 62.05 L3.4 59.25 Q3.65 55.4 4.0 54.55 4.6 53.25 7.5 52.05 L7.85 51.9 8.0 51.95 8.0 52.05 Q8.25 57.75 9.25 64.1 M-2.15 45.4 L-2.5 47.95 Q-2.8 49.25 -4.25 52.1 L-4.95 51.9 Q-8.3 50.85 -9.35 50.2 L-9.8 49.95 -9.6 48.55 Q-9.3 47.3 -8.1 45.85 L-5.55 44.5 -4.85 44.2 Q-4.5 43.85 -3.75 44.2 -3.0 44.55 -2.4 45.15 L-2.15 45.4 M9.9 65.15 L9.15 65.55 8.65 69.7 8.6 71.35 8.6 71.85 6.55 72.1 Q4.85 71.9 4.2 71.25 3.45 70.5 4.0 67.25 L4.3 65.55 5.0 65.85 5.1 65.95 Q7.35 66.6 9.9 65.15 M17.0 62.55 L16.75 62.3 17.0 62.65 17.0 62.55 M-5.0 52.85 L-7.35 57.2 -7.65 58.0 Q-9.3 57.65 -10.25 56.7 L-10.65 56.2 -10.95 55.7 -11.1 55.55 Q-11.7 54.35 -11.6 53.45 L-10.75 50.8 -10.6 50.45 -9.6 50.85 -5.95 52.6 -5.0 52.85 M-7.4 65.45 L-7.5 65.55 Q-9.55 66.4 -11.1 64.85 -11.4 64.55 -11.6 59.95 L-11.5 59.55 -11.6 56.65 -11.2 57.05 -10.75 57.4 -8.45 59.0 -7.4 59.4 -7.4 65.05 -7.4 65.45" fill="#ffffff" fill-rule="evenodd" stroke="none"/>
      <path d="M14.3 13.05 Q12.65 -0.6 12.2 -1.05 11.55 -1.7 8.45 -2.3 L6.9 -2.55 Q8.05 -7.8 9.65 -12.8 L10.05 -14.1 Q11.7 -12.35 12.1 -10.85 L12.05 -8.1 Q12.0 -6.85 12.25 -5.6 12.9 -2.75 15.55 0.5 17.35 2.7 18.95 9.6 L20.45 15.5 Q18.25 14.3 16.05 13.6 L14.3 13.05 M12.9 13.75 L14.1 13.95 14.15 13.95 Q17.8 14.55 20.8 16.55 L22.8 18.25 23.15 18.6 23.8 19.55 Q23.2 19.95 23.15 21.6 23.0 22.45 23.1 23.35 L22.7 22.95 21.65 22.0 20.8 21.95 20.5 21.75 Q19.7 19.45 18.55 18.3 L16.75 18.1 Q15.2 18.25 13.75 18.9 L13.35 19.1 Q14.25 16.3 13.35 14.9 L12.5 13.75 12.9 13.75 M24.75 21.0 Q25.1 20.85 25.75 21.25 L27.2 22.85 Q28.2 25.05 28.95 29.8 L28.9 30.65 Q28.9 33.15 28.55 35.4 27.6 35.45 26.85 36.6 26.55 34.15 25.35 29.8 24.1 25.25 24.75 21.9 24.45 21.2 24.75 21.0 M-7.3 -3.25 L-7.15 -3.2 Q-5.8 -3.05 -5.3 -2.55 -4.35 -1.6 -1.8 7.55 L0.35 15.4 0.1 15.65 -2.6 17.95 -3.05 15.9 -4.8 5.85 -7.3 -3.25 M4.85 40.2 Q4.0 33.45 3.5 27.05 L3.2 23.25 4.45 23.65 Q5.6 24.15 5.95 24.5 6.5 25.05 7.25 32.7 L7.95 39.9 7.0 39.85 6.6 39.85 5.25 40.1 5.05 40.2 4.85 40.2 M15.5 19.45 L16.1 19.35 17.35 19.4 Q20.25 22.3 20.7 31.05 20.9 34.95 20.7 38.55 19.45 38.6 17.6 39.45 L16.85 39.7 16.7 39.85 Q16.7 39.45 16.85 39.0 17.8 33.95 17.55 32.6 L16.9 28.05 16.2 23.45 15.5 19.45 M8.8 41.25 L9.25 41.4 10.45 42.3 10.55 42.4 Q12.0 43.85 12.25 44.4 13.05 46.7 10.1 49.65 8.85 50.9 7.1 50.65 7.15 50.2 7.35 49.7 L7.5 49.35 8.25 47.0 9.05 44.3 8.8 41.25 M18.05 50.8 L18.3 49.55 Q19.45 45.2 18.95 41.2 L18.8 40.25 19.3 39.95 20.9 39.55 21.05 39.5 21.65 39.8 Q22.7 40.85 23.45 43.3 24.1 45.45 23.55 46.8 L23.4 46.95 23.4 47.15 22.85 47.9 20.8 49.95 18.75 50.7 18.05 50.8 M19.35 61.4 L19.7 61.55 Q22.05 61.9 23.6 61.05 L23.7 61.05 23.75 61.0 23.9 60.95 24.0 60.85 24.05 60.8 24.25 60.6 24.5 60.75 24.4 60.95 24.45 62.0 24.35 62.9 24.2 63.35 23.85 63.7 23.7 63.85 24.05 64.2 Q23.3 66.15 21.6 67.85 20.1 69.35 18.05 69.6 L17.8 69.65 17.1 69.65 16.65 69.6 16.55 69.6 16.5 69.55 16.25 69.55 16.25 69.5 16.0 69.45 15.9 69.35 15.75 69.3 15.55 69.2 16.2 68.15 19.0 63.65 19.4 61.45 19.35 61.4 M29.3 54.05 L29.25 54.4 Q29.35 58.2 26.4 61.55 L25.85 62.1 25.85 61.9 25.9 60.95 Q25.85 59.1 25.35 58.5 L25.65 58.3 25.95 58.2 26.05 58.1 26.35 57.8 Q27.9 56.25 29.05 54.5 L29.3 54.05 M26.6 46.25 L25.75 46.2 Q25.1 43.65 26.45 39.8 28.0 35.65 30.2 37.85 30.85 38.5 30.8 40.3 30.55 42.9 27.85 45.6 L27.7 45.75 27.25 46.1 26.6 46.25 M24.35 46.9 L24.6 45.95 Q24.7 46.85 25.0 47.15 25.4 47.55 26.3 47.65 L27.25 47.45 28.6 46.55 28.7 46.45 30.4 44.45 29.95 48.6 29.85 49.2 Q29.65 50.8 28.9 52.4 28.1 54.05 26.75 55.9 L27.05 55.8 26.45 56.4 25.4 57.05 25.35 53.5 Q25.15 47.7 24.35 46.9 M17.65 51.6 L17.8 51.55 18.9 51.45 Q21.05 51.1 22.6 49.55 L23.5 48.45 23.9 54.65 Q24.05 57.9 23.65 59.6 22.0 61.15 20.05 60.9 L18.6 60.45 Q17.95 55.9 17.65 51.6 M8.0 51.95 Q8.95 51.9 9.8 51.35 11.05 51.2 11.65 51.8 L12.8 55.75 Q12.45 57.4 12.2 59.6 L12.05 61.8 11.9 61.95 9.25 64.1 Q8.25 57.75 8.0 52.05 L8.0 51.95 M-2.15 45.4 L-2.05 45.6 -0.05 47.7 0.05 47.9 Q2.15 50.8 1.0 52.05 L0.95 52.1 0.75 52.3 -4.25 52.1 Q-2.8 49.25 -2.5 47.95 L-2.15 45.4 M8.6 71.85 L8.6 71.35 8.65 69.7 9.15 65.55 9.9 65.15 10.6 64.75 10.7 64.65 11.95 63.7 12.45 63.2 12.55 63.1 12.7 65.15 Q12.5 67.85 11.15 69.8 L10.2 70.85 9.05 71.7 8.55 71.9 8.6 71.85 M-5.0 52.85 Q-2.2 53.75 -0.35 53.6 L-1.6 55.75 -1.7 55.85 -2.05 56.5 -2.4 56.85 Q-3.4 57.55 -4.45 57.9 L-6.7 58.05 -6.8 58.05 -7.65 58.0 -7.35 57.2 -5.0 52.85 M-7.4 65.45 L-7.4 65.05 -7.4 59.4 -4.45 59.35 -3.45 58.9 -3.25 58.9 -3.1 58.75 -3.1 59.05 -2.95 59.8 Q-3.0 61.75 -4.95 63.7 L-5.05 63.8 -5.3 64.05 Q-6.4 65.05 -7.4 65.45" fill="#bfcbb1" fill-rule="evenodd" stroke="none"/>
      <path d="M20.85 22.95 Q21.4 23.15 21.9 23.55 L23.25 24.4 Q23.45 26.1 23.95 27.8 L24.9 32.9 26.2 37.75 25.5 39.55 Q24.8 41.65 24.6 43.75 L24.5 43.2 Q24.0 40.5 22.5 39.0 22.1 38.6 21.25 38.5 22.5 34.55 21.75 28.0 L20.85 22.95 M7.4 24.65 L7.55 24.5 7.7 24.05 10.05 23.4 11.05 22.8 11.25 23.4 12.25 26.4 13.1 29.35 Q14.2 32.45 15.1 41.05 13.95 42.4 14.3 44.25 L15.45 48.0 16.05 49.7 14.55 51.1 14.05 51.7 13.35 52.5 12.95 51.2 Q12.35 50.6 10.75 50.7 L10.8 50.65 Q14.25 47.2 13.5 44.55 13.25 43.6 11.45 41.8 10.2 40.6 8.85 40.1 L8.05 30.6 7.4 24.65 M0.6 38.35 Q1.4 41.35 2.0 42.4 1.1 43.55 1.0 44.95 0.75 47.2 2.65 49.1 L5.35 51.2 5.75 51.4 6.4 51.65 5.0 52.15 3.75 52.8 2.35 52.2 2.55 51.6 Q2.7 50.25 0.85 47.7 L-2.45 43.9 Q-2.8 43.55 -4.7 43.15 L-6.7 42.85 -7.05 41.3 -6.3 41.1 -6.05 40.6 -6.1 40.45 -7.1 40.05 -5.65 35.9 Q-4.85 34.1 -3.15 32.2 L-0.95 29.8 -0.9 31.15 Q-0.55 34.3 0.6 38.35" fill="#080808" fill-rule="evenodd" stroke="none"/>
    </g>
    <g id="sprite7" transform="matrix(1, 0, 0, 1, 38.85, 64.65)">
      <use height="79.7" transform="matrix(1.0, 0.0, 0.0, 1.0, -38.85, -64.65)" width="76.25" xlink:href="#shape6"/>
    </g>
    <g id="shape6" transform="matrix(1, 0, 0, 1, 38.85, 64.65)">
      <path d="M-35.4 -19.45 L-36.1 -21.7 Q-36.95 -25.15 -36.95 -28.7 -36.95 -38.35 -31.4 -47.15 -22.85 -60.75 -4.05 -62.55 3.25 -60.85 8.15 -57.45 L6.65 -57.0 Q0.0 -54.75 -3.65 -50.85 -0.4 -52.45 7.35 -54.4 L10.95 -55.25 14.1 -51.55 14.2 -51.55 Q14.95 -50.3 17.0 -47.75 L18.05 -46.5 16.7 -50.6 15.6 -53.05 15.45 -53.45 14.95 -54.05 13.7 -55.8 20.35 -56.5 Q16.4 -58.75 11.25 -58.05 9.0 -60.05 6.65 -61.0 4.45 -62.35 2.2 -62.85 13.75 -62.85 22.7 -56.25 26.75 -53.3 29.5 -49.35 L26.15 -46.3 20.3 -41.15 Q21.45 -38.4 21.45 -35.85 21.45 -30.0 18.7 -25.45 13.4 -16.6 -0.4 -16.6 L-4.1 -16.8 -5.05 -10.95 -5.65 -5.6 -5.7 -2.65 -5.6 -1.9 -7.95 -1.65 -9.6 -1.45 -10.85 -1.45 -10.85 -1.65 -10.85 -1.85 -11.1 -1.9 -11.25 -3.45 -11.6 -6.25 -11.75 -7.8 -12.05 -10.2 -12.15 -11.4 -12.3 -11.4 -12.35 -10.65 -12.4 -11.2 -12.6 -11.2 -12.8 -7.8 -12.6 -4.9 -12.45 -1.5 -20.8 -2.35 -21.4 -4.3 -21.4 -4.6 -21.6 -7.25 -21.7 -8.5 -21.7 -9.8 -21.8 -11.85 -22.0 -11.85 -22.0 -11.7 -22.1 -12.15 -22.25 -12.15 -22.35 -8.95 -22.35 -6.8 -22.45 -3.6 -22.45 -2.75 -23.55 -3.1 Q-24.85 -3.5 -25.75 -4.1 -26.2 -5.3 -26.45 -7.15 L-26.95 -10.2 -26.95 -10.25 Q-27.1 -11.7 -27.6 -13.55 -28.3 -16.0 -29.2 -16.4 L-35.35 -19.45 -35.4 -19.45 M-2.9 -18.35 L-2.8 -18.3 -2.65 -18.3 -1.25 -18.2 -1.1 -18.2 -0.95 -18.2 -0.9 -18.2 -0.6 -18.2 -0.45 -18.2 -0.35 -18.2 -0.2 -18.2 0.3 -18.2 Q10.85 -18.2 15.9 -24.5 L16.9 -25.95 18.2 -28.35 Q19.75 -31.85 19.75 -35.75 L19.7 -36.6 19.45 -38.2 19.35 -38.75 19.35 -38.85 18.95 -39.75 18.95 -39.95 18.9 -40.1 18.8 -40.25 14.85 -44.4 Q12.0 -46.0 8.4 -46.6 L4.8 -46.8 3.55 -46.75 Q0.8 -46.5 -1.5 -44.95 L-3.25 -43.45 Q-8.95 -37.55 -8.95 -28.95 L-8.1 -24.05 Q-6.9 -19.35 -5.1 -19.2 L-4.65 -18.75 -3.5 -18.4 -3.65 -18.25 -3.0 -18.35 -2.9 -18.35 M-2.25 5.35 L-2.65 3.1 -2.45 2.1 -2.1 2.1 Q-0.2 2.1 4.6 -0.9 9.5 -4.0 9.5 -5.35 L9.2 -7.4 9.1 -8.9 Q11.05 -9.65 12.9 -9.65 L15.2 -9.45 13.85 -6.0 12.35 -2.05 9.55 0.65 Q7.1 2.6 0.1 4.65 L-2.25 5.35 M-23.1 -37.85 L-23.15 -39.05 -23.15 -39.1 -23.45 -42.2 -23.55 -42.6 -23.8 -43.65 Q-24.5 -45.8 -25.85 -46.75 L-25.85 -46.8 -25.9 -47.0 -26.85 -47.25 -28.45 -47.5 -27.7 -47.3 Q-29.5 -47.1 -31.3 -45.05 -33.4 -42.7 -34.2 -40.0 -35.6 -35.35 -35.6 -30.25 -34.6 -26.5 -33.2 -24.3 -32.25 -22.8 -31.05 -22.05 -30.0 -21.3 -28.65 -21.3 L-28.15 -21.5 -27.95 -21.65 Q-26.75 -21.8 -25.85 -23.15 L-25.2 -24.3 Q-24.4 -26.15 -23.85 -29.15 L-23.1 -37.2 -23.1 -37.85 M-17.65 -19.9 L-17.25 -19.45 -17.7 -19.6 -17.65 -19.9 M-13.0 -15.85 L-11.95 -15.4 -11.5 -15.65 -11.4 -16.4 Q-11.4 -18.2 -18.3 -29.15 -20.85 -26.8 -22.15 -23.15 -23.35 -19.95 -23.35 -16.65 L-23.25 -16.0 -22.6 -16.05 -22.45 -15.85 -17.8 -15.35 -12.75 -15.65 -12.65 -15.65 -13.0 -15.85 M-33.7 -0.9 L-33.25 -1.75 -29.0 -6.0 Q-28.4 -5.35 -27.95 -5.35 L-27.1 -5.15 -27.1 -5.0 -28.0 -2.4 -28.85 -1.7 -31.15 0.65 -31.0 1.75 -31.05 1.7 -31.65 1.35 -33.7 -0.9 M-30.05 1.05 L-28.1 -1.15 -26.1 -2.75 -24.35 -2.3 -22.1 -1.9 -22.0 -1.9 -21.75 -1.9 Q-21.95 -1.0 -23.35 0.55 -24.95 2.25 -24.95 2.9 L-24.9 3.25 -24.95 3.1 -28.25 2.25 -30.05 1.05 M-24.35 3.05 L-24.35 2.7 Q-24.35 2.25 -22.45 0.2 L-20.5 -1.65 -17.85 -1.2 -15.55 -0.95 -12.5 -0.5 -12.3 -0.45 -13.5 1.05 Q-14.55 2.7 -14.55 3.95 L-14.5 4.3 -21.4 3.8 -24.35 3.05 M-13.8 4.75 L-13.95 3.6 Q-13.95 3.1 -12.5 1.05 L-11.55 -0.35 -7.7 -0.2 -4.8 -0.45 -4.5 -0.2 -4.5 -0.35 -4.15 -0.35 Q-3.85 0.55 -3.65 2.1 L-3.5 3.45 -3.35 3.75 -2.85 5.5 -7.3 5.0 -13.8 4.75" fill="#ffffff" fill-rule="evenodd" stroke="none"/>
      <path d="M29.5 -49.35 Q26.75 -53.3 22.7 -56.25 13.75 -62.85 2.2 -62.85 4.45 -62.35 6.65 -61.0 9.0 -60.05 11.25 -58.05 16.4 -58.75 20.35 -56.5 L13.7 -55.8 14.95 -54.05 15.45 -53.45 15.6 -53.05 16.7 -50.6 18.05 -46.5 17.0 -47.75 Q14.95 -50.3 14.2 -51.55 L14.1 -51.55 10.95 -55.25 7.35 -54.4 Q-0.4 -52.45 -3.65 -50.85 0.0 -54.75 6.65 -57.0 L8.15 -57.45 Q3.25 -60.85 -4.05 -62.55 -22.85 -60.75 -31.4 -47.15 -36.95 -38.35 -36.95 -28.7 -36.95 -25.15 -36.1 -21.7 L-35.4 -19.45 -35.1 -18.75 -34.4 -18.15 -33.95 -17.55 -33.1 -16.7 -30.35 -13.8 -27.95 -11.75 -27.35 -11.3 -26.95 -10.25 -26.95 -10.2 -26.45 -7.15 Q-26.2 -5.3 -25.75 -4.1 -24.85 -3.5 -23.55 -3.1 L-22.45 -2.75 -22.45 -3.6 -22.35 -6.8 -22.35 -8.95 -22.25 -12.15 -22.1 -12.15 -22.0 -11.7 -22.0 -11.85 -21.8 -11.85 -21.7 -9.8 -21.7 -8.5 -21.6 -7.25 -21.4 -4.6 -21.4 -4.3 -20.8 -2.35 -12.45 -1.5 -12.6 -4.9 -12.8 -7.8 -12.6 -11.2 -12.4 -11.2 -12.35 -10.65 -12.3 -11.4 -12.15 -11.4 -12.05 -10.2 -11.75 -7.8 -11.6 -6.25 -11.25 -3.45 -11.1 -1.9 -10.85 -1.85 -10.85 -1.65 -10.85 -1.45 -9.6 -1.45 -7.95 -1.65 -5.6 -1.9 -4.9 -2.0 -4.85 -2.3 -4.65 -2.35 -3.7 -8.95 -3.5 -10.3 -3.35 -10.3 -3.2 -10.15 -2.75 -10.35 10.0 -14.7 18.05 -17.7 18.6 -17.9 18.75 -17.95 Q18.9 -18.6 19.25 -18.2 L22.1 -19.6 22.15 -19.65 26.15 -22.35 31.1 -26.15 34.45 -30.05 35.0 -30.65 35.3 -31.35 Q35.1 -34.6 34.45 -37.55 33.75 -40.8 32.65 -43.6 L32.35 -44.25 31.75 -45.6 31.1 -46.85 29.5 -49.35 M36.8 -30.0 Q35.45 -28.05 30.4 -24.1 25.25 -20.2 23.0 -18.9 21.65 -18.05 19.95 -17.2 L20.55 -16.05 21.8 -13.15 21.7 -13.05 21.8 -12.6 21.35 -10.1 21.15 -9.3 20.15 -6.85 Q18.4 -2.85 14.3 2.6 11.55 6.3 5.45 11.45 L3.5 13.15 2.4 13.45 Q-2.8 15.05 -7.6 15.05 -15.8 15.05 -21.75 13.0 L-21.9 13.1 -22.0 12.95 Q-26.95 11.2 -30.35 8.05 -32.9 5.7 -34.25 2.85 L-34.9 1.25 Q-35.9 -0.15 -35.9 -0.55 L-35.7 -1.15 -35.7 -1.3 -35.4 -1.6 -33.1 -4.35 -31.65 -5.85 Q-30.45 -7.75 -30.45 -9.9 L-30.45 -11.05 -30.6 -12.0 -33.0 -14.2 -33.3 -14.55 Q-37.6 -17.45 -37.8 -18.5 L-38.25 -21.9 -38.4 -22.9 -38.85 -27.05 Q-38.85 -33.2 -37.7 -38.0 -36.9 -41.25 -35.7 -43.55 L-35.35 -44.2 Q-32.85 -49.2 -28.65 -53.4 -17.5 -64.75 -0.9 -64.65 20.65 -63.9 30.75 -51.1 37.4 -42.65 37.4 -32.7 37.5 -30.8 36.8 -30.0 M-3.5 -18.4 L-4.65 -18.75 -5.1 -19.2 Q-6.9 -19.35 -8.1 -24.05 L-8.95 -28.95 Q-8.95 -37.55 -3.25 -43.45 L-1.5 -44.95 Q0.8 -46.5 3.55 -46.75 L4.8 -46.8 8.4 -46.6 Q12.0 -46.0 14.85 -44.4 L18.8 -40.25 18.9 -40.1 18.95 -39.95 18.95 -39.75 19.35 -38.85 19.35 -38.75 19.45 -38.2 19.7 -36.6 19.75 -35.75 Q19.75 -31.85 18.2 -28.35 L16.9 -25.95 15.9 -24.5 Q10.85 -18.2 0.3 -18.2 L-0.2 -18.2 -0.35 -18.2 -0.45 -18.2 -0.6 -18.2 -0.9 -18.2 -0.95 -18.2 -1.1 -18.2 -1.25 -18.2 -2.65 -18.3 -2.8 -18.3 -2.9 -18.35 -3.1 -18.4 -3.5 -18.4 M6.35 -39.55 Q2.8 -39.8 0.35 -37.7 -2.35 -35.35 -2.35 -30.95 -2.35 -27.95 -1.6 -26.4 0.3 -22.5 6.4 -22.5 11.4 -22.5 13.55 -25.5 15.0 -27.45 15.0 -30.15 15.0 -34.25 12.3 -36.9 9.85 -39.3 6.35 -39.55 M-2.25 5.35 L-1.65 7.95 -0.3 12.5 1.8 12.0 2.15 11.9 2.35 11.8 Q9.55 7.15 14.15 0.0 L15.1 -1.5 Q18.2 -6.0 20.1 -11.55 L20.0 -11.7 20.05 -12.05 20.1 -12.2 19.5 -13.95 Q18.8 -15.65 18.7 -16.65 14.75 -14.8 8.9 -12.85 L8.7 -12.55 8.4 -12.05 9.1 -8.9 9.2 -7.4 9.5 -5.35 Q9.5 -4.0 4.6 -0.9 -0.2 2.1 -2.1 2.1 L-2.45 2.1 -2.65 3.1 -2.25 5.35 M8.25 -9.3 L8.05 -10.85 8.0 -10.95 Q7.15 -11.55 6.6 -12.1 0.45 -10.15 -2.0 -9.8 L-1.95 -9.65 -2.95 -6.75 -3.45 -3.7 -3.1 -1.2 -3.0 -0.85 Q-2.45 -0.05 -2.3 0.7 L0.15 -0.35 4.35 -1.95 Q7.85 -4.15 8.2 -4.8 8.5 -5.15 8.5 -7.55 L8.5 -8.0 8.25 -9.3 M-25.2 -24.3 L-25.85 -23.15 Q-26.75 -21.8 -27.95 -21.65 L-28.15 -21.5 -28.65 -21.3 Q-30.0 -21.3 -31.05 -22.05 -32.25 -22.8 -33.2 -24.3 -34.6 -26.5 -35.6 -30.25 -35.6 -35.35 -34.2 -40.0 -33.4 -42.7 -31.3 -45.05 -29.5 -47.1 -27.7 -47.3 L-28.45 -47.5 -26.85 -47.25 -25.9 -47.0 -25.85 -46.8 -25.85 -46.75 Q-24.5 -45.8 -23.8 -43.65 L-23.55 -42.6 -23.45 -42.2 -23.15 -39.1 -23.15 -39.05 -23.1 -37.85 -25.85 -36.25 -26.5 -35.55 Q-27.65 -33.45 -27.75 -30.6 L-27.75 -30.45 Q-27.55 -26.65 -25.2 -24.3 M-17.65 -19.9 L-18.4 -20.65 -18.5 -20.75 -20.45 -18.4 -22.6 -16.05 -23.25 -16.0 -23.35 -16.65 Q-23.35 -19.95 -22.15 -23.15 -20.85 -26.8 -18.3 -29.15 -11.4 -18.2 -11.4 -16.4 L-11.5 -15.65 -11.95 -15.4 -13.0 -15.85 -13.05 -15.9 -13.25 -16.0 -15.5 -17.55 -15.8 -17.85 -17.25 -19.45 -17.65 -19.9 M-29.0 -6.0 L-33.25 -1.75 -33.7 -0.9 -33.7 -0.85 Q-33.7 0.3 -32.6 2.25 -31.55 4.15 -29.9 5.85 L-29.95 5.35 -30.55 3.45 -30.95 2.1 -31.0 1.9 -31.0 1.75 -31.15 0.65 -28.85 -1.7 -28.0 -2.4 -26.75 -3.25 -26.9 -3.45 -26.9 -3.5 -26.95 -3.6 -27.0 -3.95 -27.1 -5.0 -27.1 -5.15 -27.45 -8.6 Q-27.45 -9.75 -28.85 -11.2 L-28.9 -10.95 -28.65 -8.4 -28.7 -6.3 -28.8 -6.25 -29.0 -6.0 M-24.9 3.25 L-24.95 2.9 Q-24.95 2.25 -23.35 0.55 -21.95 -1.0 -21.75 -1.9 L-22.0 -1.9 -22.1 -1.9 -24.35 -2.3 -26.1 -2.75 -28.1 -1.15 -30.05 1.05 -30.1 1.05 -30.3 1.55 -30.45 2.1 -30.45 2.25 Q-30.45 2.95 -29.15 5.85 L-28.55 7.05 Q-26.2 9.0 -23.2 10.35 L-24.0 7.6 -24.85 3.8 -24.9 3.25 M-14.5 4.3 L-14.55 3.95 Q-14.55 2.7 -13.5 1.05 L-12.3 -0.45 -12.5 -0.5 -15.55 -0.95 -17.85 -1.2 -20.5 -1.65 -22.45 0.2 Q-24.35 2.25 -24.35 2.7 L-24.35 3.05 -23.2 7.8 -22.3 10.7 Q-17.95 12.45 -12.3 12.95 L-13.5 8.9 -14.5 4.7 -14.5 4.3 M-2.85 5.5 L-3.35 3.75 -3.5 3.45 -3.65 2.1 Q-3.85 0.55 -4.15 -0.35 L-4.5 -0.35 -4.5 -0.2 -4.8 -0.45 -7.7 -0.2 -11.55 -0.35 -12.5 1.05 Q-13.95 3.1 -13.95 3.6 L-13.8 4.75 -11.6 13.05 -7.6 13.15 -1.45 12.7 -1.9 11.4 -2.55 7.55 -2.55 7.5 -2.55 7.4 -2.6 6.9 -2.7 6.2 -2.85 5.5" fill="#000000" fill-rule="evenodd" stroke="none"/>
      <path d="M-35.4 -19.45 L-35.35 -19.45 -29.2 -16.4 Q-28.3 -16.0 -27.6 -13.55 -27.1 -11.7 -26.95 -10.25 L-27.35 -11.3 -27.95 -11.75 -30.35 -13.8 -33.1 -16.7 -33.95 -17.55 -34.4 -18.15 -35.1 -18.75 -35.4 -19.45 M-5.6 -1.9 L-5.7 -2.65 -5.65 -5.6 -5.05 -10.95 -4.1 -16.8 -0.4 -16.6 Q13.4 -16.6 18.7 -25.45 21.45 -30.0 21.45 -35.85 21.45 -38.4 20.3 -41.15 L26.15 -46.3 29.5 -49.35 31.1 -46.85 31.75 -45.6 32.35 -44.25 32.65 -43.6 Q33.75 -40.8 34.45 -37.55 35.1 -34.6 35.3 -31.35 L35.0 -30.65 34.45 -30.05 31.1 -26.15 26.15 -22.35 22.15 -19.65 22.1 -19.6 19.25 -18.2 Q18.9 -18.6 18.75 -17.95 L18.6 -17.9 18.05 -17.7 10.0 -14.7 -2.75 -10.35 -3.2 -10.15 -3.35 -10.3 -3.5 -10.3 -3.7 -8.95 -4.65 -2.35 -4.85 -2.3 -4.9 -2.0 -5.6 -1.9 M-2.9 -18.35 L-3.0 -18.35 -3.65 -18.25 -3.5 -18.4 -3.1 -18.4 -2.9 -18.35 M9.1 -8.9 L8.4 -12.05 8.7 -12.55 8.9 -12.85 Q14.75 -14.8 18.7 -16.65 18.8 -15.65 19.5 -13.95 L20.1 -12.2 20.05 -12.05 20.0 -11.7 20.1 -11.55 Q18.2 -6.0 15.1 -1.5 L14.15 0.0 Q9.55 7.15 2.35 11.8 L2.15 11.9 1.8 12.0 -0.3 12.5 -1.65 7.95 -2.25 5.35 0.1 4.65 Q7.1 2.6 9.55 0.65 L12.35 -2.05 13.85 -6.0 15.2 -9.45 12.9 -9.65 Q11.05 -9.65 9.1 -8.9 M-22.6 -16.05 L-20.45 -18.4 -18.5 -20.75 -18.4 -20.65 -17.65 -19.9 -17.7 -19.6 -17.25 -19.45 -15.8 -17.85 -15.5 -17.55 -13.25 -16.0 -13.05 -15.9 -13.0 -15.85 -12.65 -15.65 -12.75 -15.65 -17.8 -15.35 -22.45 -15.85 -22.6 -16.05 M-33.7 -0.9 L-31.65 1.35 -31.05 1.7 -31.0 1.75 -31.0 1.9 -30.95 2.1 -30.55 3.45 -29.95 5.35 -29.9 5.85 Q-31.55 4.15 -32.6 2.25 -33.7 0.3 -33.7 -0.85 L-33.7 -0.9 M-27.1 -5.15 L-27.95 -5.35 Q-28.4 -5.35 -29.0 -6.0 L-28.8 -6.25 -28.7 -6.3 -28.65 -8.4 -28.9 -10.95 -28.85 -11.2 Q-27.45 -9.75 -27.45 -8.6 L-27.1 -5.15 M-30.05 1.05 L-28.25 2.25 -24.95 3.1 -24.9 3.25 -24.85 3.8 -24.0 7.6 -23.2 10.35 Q-26.2 9.0 -28.55 7.05 L-29.15 5.85 Q-30.45 2.95 -30.45 2.25 L-30.45 2.1 -30.3 1.55 -30.1 1.05 -30.05 1.05 M-24.35 3.05 L-21.4 3.8 -14.5 4.3 -14.5 4.7 -13.5 8.9 -12.3 12.95 Q-17.95 12.45 -22.3 10.7 L-23.2 7.8 -24.35 3.05 M-13.8 4.75 L-7.3 5.0 -2.85 5.5 -2.7 6.2 -2.6 6.9 -2.55 7.4 -2.55 7.5 -2.55 7.55 -1.9 11.4 -1.45 12.7 -7.6 13.15 -11.6 13.05 -13.8 4.75" fill="#bfcbb1" fill-rule="evenodd" stroke="none"/>
      <path d="M8.25 -9.3 L8.5 -8.0 8.5 -7.55 Q8.5 -5.15 8.2 -4.8 7.85 -4.15 4.35 -1.95 L0.15 -0.35 -2.3 0.7 Q-2.45 -0.05 -3.0 -0.85 L-3.1 -1.2 -3.45 -3.7 -2.95 -6.75 -1.95 -9.65 -2.0 -9.8 Q0.45 -10.15 6.6 -12.1 7.15 -11.55 8.0 -10.95 L8.05 -10.85 8.25 -9.3 M-28.0 -2.4 L-27.1 -5.0 -27.0 -3.95 -26.95 -3.6 -26.9 -3.5 -26.9 -3.45 -26.75 -3.25 -28.0 -2.4" fill="#080808" fill-rule="evenodd" stroke="none"/>
      <path d="M6.35 -39.55 Q9.85 -39.3 12.3 -36.9 15.0 -34.25 15.0 -30.15 15.0 -27.45 13.55 -25.5 11.4 -22.5 6.4 -22.5 0.3 -22.5 -1.6 -26.4 -2.35 -27.95 -2.35 -30.95 -2.35 -35.35 0.35 -37.7 2.8 -39.8 6.35 -39.55 M-23.1 -37.85 L-23.1 -37.2 -23.85 -29.15 Q-24.4 -26.15 -25.2 -24.3 -27.55 -26.65 -27.75 -30.45 L-27.75 -30.6 Q-27.65 -33.45 -26.5 -35.55 L-25.85 -36.25 -23.1 -37.85" fill="#99ff99" fill-rule="evenodd" stroke="none"/>
    </g>
  </defs>
</svg>
