<?xml version="1.0" encoding="UTF-8" standalone="no"?>
<svg xmlns:xlink="http://www.w3.org/1999/xlink" height="83.6px" width="72.65px" xmlns="http://www.w3.org/2000/svg">
  <g transform="matrix(1, 0, 0, 1, -0.9, 13.25)">
    <use height="55.5" transform="matrix(1.0, 0.0, 0.0, 1.0, 12.15, 11.1)" width="52.15" xlink:href="#sprite0"/>
  </g>
  <defs>
    <g id="sprite0" transform="matrix(1, 0, 0, 1, 0.0, 0.0)">
      <use height="55.5" transform="matrix(1.0, 0.0, 0.0, 1.0, 0.0, 0.0)" width="52.15" xlink:href="#shape0"/>
    </g>
    <g id="shape0" transform="matrix(1, 0, 0, 1, 0.0, 0.0)">
      <path d="M41.55 27.35 L41.55 14.35 28.55 14.35 28.55 27.35 41.55 27.35 M52.15 0.0 L52.15 55.5 0.0 55.5 0.0 0.0 52.15 0.0" fill="#333333" fill-rule="evenodd" stroke="none"/>
      <path d="M41.55 27.35 L28.55 27.35 28.55 14.35 41.55 14.35 41.55 27.35" fill="#ffffff" fill-rule="evenodd" stroke="none"/>
      <path d="M20.95 14.4 L20.95 27.4 7.95 27.4 7.95 14.4 20.95 14.4 M21.15 32.65 L21.15 53.05 7.95 53.05 7.95 32.65 21.15 32.65 M42.15 53.2 L28.95 53.2 28.95 32.8 42.15 32.8 42.15 53.2" fill="#ffffff" fill-rule="evenodd" stroke="none"/>
    </g>
  </defs>
</svg>
