<?xml version="1.0" encoding="UTF-8" standalone="no"?>
<svg xmlns:xlink="http://www.w3.org/1999/xlink" height="83.6px" width="72.65px" xmlns="http://www.w3.org/2000/svg">
  <g transform="matrix(1, 0, 0, 1, -0.9, 13.25)">
    <use height="49.6" transform="matrix(1.0, 0.0, 0.0, 1.0, 11.15, 13.15)" width="48.9" xlink:href="#sprite0"/>
  </g>
  <defs>
    <g id="sprite0" transform="matrix(1, 0, 0, 1, 3.4, 0.5)">
      <use height="49.6" transform="matrix(1.0, 0.0, 0.0, 1.0, -3.4, -0.5)" width="48.9" xlink:href="#shape0"/>
    </g>
    <g id="shape0" transform="matrix(1, 0, 0, 1, 3.4, 0.5)">
      <path d="M5.3 11.2 L6.3 8.9 6.6 8.65 6.95 8.65 7.05 8.7 20.9 -0.25 21.25 -0.35 21.3 -0.35 21.55 -0.5 21.95 -0.4 35.75 8.55 35.85 8.5 36.25 8.5 36.5 8.75 39.3 14.9 45.0 24.15 43.3 24.15 42.9 24.15 43.3 24.15 43.3 48.2 43.35 48.25 43.5 48.6 43.35 48.95 43.0 49.1 0.0 49.1 -0.35 48.95 -0.5 48.6 -0.5 24.05 -0.5 24.0 -2.9 23.95 5.3 11.2 6.45 9.35 5.3 11.2 M35.8 9.4 L39.3 14.9 35.8 9.4 M10.5 30.35 L10.5 45.75 32.75 45.75 32.75 30.35 10.5 30.35 M26.6 21.3 L26.6 11.0 16.05 11.0 16.05 21.3 26.6 21.3" fill="#000000" fill-rule="evenodd" stroke="none"/>
      <path d="M26.6 21.3 L16.05 21.3 16.05 11.0 26.6 11.0 26.6 21.3 M10.5 30.35 L32.75 30.35 32.75 45.75 10.5 45.75 10.5 30.35 M11.1 30.9 L21.5 37.85 11.05 44.75 21.5 37.85 11.1 30.9 M32.0 44.9 L21.5 37.85 32.0 30.9 21.5 37.85 32.0 44.9" fill="#ffffff" fill-rule="evenodd" stroke="none"/>
      <path d="M5.3 11.2 L6.45 9.35 M43.3 24.15 L45.0 24.15 39.3 14.9 35.8 9.4 M43.3 24.15 L42.9 24.15 M26.6 21.3 L16.05 21.3 16.05 11.0 26.6 11.0 26.6 21.3 M10.5 30.35 L32.75 30.35 32.75 45.75 10.5 45.75 10.5 30.35 M32.0 30.9 L21.5 37.85 32.0 44.9 M11.05 44.75 L21.5 37.85 11.1 30.9 M5.3 11.2 L-2.9 23.95 -0.5 24.0" fill="none" stroke="#000000" stroke-linecap="round" stroke-linejoin="round" stroke-width="1.0"/>
    </g>
  </defs>
</svg>
