<?xml version="1.0" encoding="UTF-8" standalone="no"?>
<svg xmlns:xlink="http://www.w3.org/1999/xlink" height="83.6px" width="72.65px" xmlns="http://www.w3.org/2000/svg">
  <g transform="matrix(1, 0, 0, 1, -0.9, 13.25)">
    <use height="76.05" transform="matrix(1.0, 0.0, 0.0, 1.0, 9.7, -7.95)" width="57.5" xlink:href="#sprite0"/>
  </g>
  <defs>
    <g id="sprite0" transform="matrix(1, 0, 0, 1, 21.65, 39.45)">
      <use height="76.05" transform="matrix(1.0, 0.0, 0.0, 1.0, -21.65, -39.45)" width="57.5" xlink:href="#shape0"/>
    </g>
    <g id="shape0" transform="matrix(1, 0, 0, 1, 21.65, 39.45)">
      <path d="M16.85 -18.75 L17.3 -18.6 16.9 -18.15 16.4 -18.6 16.85 -18.75" fill="#000000" fill-opacity="0.003921569" fill-rule="evenodd" stroke="none"/>
      <path d="M-17.1 -6.9 Q-15.35 -9.7 -12.9 -12.15 -7.7 -17.35 -1.1 -19.25 -2.5 -19.85 -3.7 -20.6 -8.75 -23.75 -8.75 -28.2 -8.75 -32.65 -3.7 -35.8 1.35 -38.95 8.5 -38.95 15.65 -38.95 20.65 -35.8 25.7 -32.65 25.7 -28.2 25.7 -23.75 20.65 -20.6 18.9 -19.5 16.85 -18.75 L16.4 -18.6 16.9 -18.15 17.3 -18.6 17.5 -18.8 17.75 -18.55 17.75 -18.4 Q19.4 -17.75 21.05 -16.8 L21.35 -17.65 21.6 -17.35 21.5 -16.55 Q24.45 -14.75 27.05 -12.15 29.0 -10.2 30.55 -8.05 L30.7 -7.95 30.65 -7.85 31.45 -6.6 31.8 -6.55 31.65 -6.3 31.45 -6.25 Q30.45 -6.25 27.5 -7.35 24.5 -8.5 23.2 -9.35 L18.15 -12.3 Q16.0 -10.7 12.5 -9.0 2.9 -4.35 -6.6 -4.55 L-18.05 -4.55 -18.25 -4.75 -18.3 -4.9 -18.2 -4.9 -17.15 -6.75 -17.2 -6.9 -17.1 -6.9 M13.05 -17.8 L15.75 -18.4 13.05 -17.8 M12.45 -17.7 L8.5 -17.45 Q3.1 -17.45 -1.1 -19.25 3.1 -17.45 8.5 -17.45 L12.45 -17.7" fill="#000000" fill-rule="evenodd" stroke="none"/>
      <path d="M-17.1 -6.9 Q-15.35 -9.7 -12.9 -12.15 -7.7 -17.35 -1.1 -19.25 -2.5 -19.85 -3.7 -20.6 -8.75 -23.75 -8.75 -28.2 -8.75 -32.65 -3.7 -35.8 1.35 -38.95 8.5 -38.95 15.65 -38.95 20.65 -35.8 25.7 -32.65 25.7 -28.2 25.7 -23.75 20.65 -20.6 18.9 -19.5 16.85 -18.75 L17.3 -18.6 M17.75 -18.4 Q19.4 -17.75 21.05 -16.8 M21.5 -16.55 Q24.45 -14.75 27.05 -12.15 29.0 -10.2 30.55 -8.05 M30.65 -7.85 L31.45 -6.6 M31.65 -6.3 Q35.35 0.0 35.35 7.85 35.35 19.55 27.05 27.8 18.8 36.1 7.1 36.1 -4.6 36.1 -12.9 27.8 -21.15 19.55 -21.15 7.8 -21.15 0.9 -18.25 -4.75 M-18.2 -4.9 L-17.15 -6.75 M15.75 -18.4 L13.05 -17.8 M16.85 -18.75 L16.4 -18.6 M-1.1 -19.25 Q3.1 -17.45 8.5 -17.45 L12.45 -17.7" fill="none" stroke="#000000" stroke-linecap="round" stroke-linejoin="round" stroke-width="1.0"/>
      <path d="M14.85 5.15 Q14.05 4.3 14.05 3.05 14.05 1.8 14.85 0.9 15.8 0.05 16.95 0.05 18.2 0.05 19.1 0.9 20.05 1.8 20.05 3.05 20.05 4.3 19.1 5.15 18.2 6.05 16.95 6.05 15.8 6.05 14.85 5.15 M1.75 6.15 Q0.6 6.15 -0.35 5.25 -1.15 4.4 -1.15 3.15 -1.15 1.9 -0.35 1.0 0.6 0.15 1.75 0.15 3.0 0.15 3.9 1.0 4.85 1.9 4.85 3.15 4.85 4.4 3.9 5.25 3.0 6.15 1.75 6.15" fill="#000000" fill-rule="evenodd" stroke="none"/>
      <path d="M14.85 5.15 Q14.05 4.3 14.05 3.05 14.05 1.8 14.85 0.9 15.8 0.05 16.95 0.05 18.2 0.05 19.1 0.9 20.05 1.8 20.05 3.05 20.05 4.3 19.1 5.15 18.2 6.05 16.95 6.05 15.8 6.05 14.85 5.15 M1.75 6.15 Q0.6 6.15 -0.35 5.25 -1.15 4.4 -1.15 3.15 -1.15 1.9 -0.35 1.0 0.6 0.15 1.75 0.15 3.0 0.15 3.9 1.0 4.85 1.9 4.85 3.15 4.85 4.4 3.9 5.25 3.0 6.15 1.75 6.15 M12.05 15.15 Q12.05 16.3 11.2 17.1 10.4 17.95 9.25 17.95 8.15 17.95 7.35 17.1 6.55 16.3 6.55 15.15" fill="none" stroke="#000000" stroke-linecap="round" stroke-linejoin="round" stroke-width="1.0"/>
    </g>
  </defs>
</svg>
